<svg width="320" height="320" viewBox="0 0 320 320" fill="none" xmlns="http://www.w3.org/2000/svg">
<path d="M128.059 167.617H124.78L84.2798 134.112H106.748L127.818 153.262L128.059 167.617Z" fill="#25407C"/>
<path d="M132.972 160.107V155.077L96.9161 114.957H124.311L140.944 148.49C140.944 148.49 140.706 150.996 140.014 151.439C139.297 151.894 139.766 159.881 139.766 159.881L132.972 160.107Z" fill="#25407C"/>
<path d="M145.618 158.961V150.527L122.909 95.8125H154.531L156.853 143.695L153.818 146.641C153.818 146.641 152.416 149.383 152.885 152.123C153.349 154.854 153.115 157.139 153.115 157.139L145.618 158.961Z" fill="#25407C"/>
<path d="M188.875 167.617H192.141L232.652 134.112H210.162L189.088 153.262L188.875 167.617Z" fill="#25407C"/>
<path d="M183.941 160.107V155.077L220.001 114.957H192.616L175.976 148.49C175.976 148.49 176.21 150.996 176.92 151.439C177.63 151.894 177.154 159.881 177.154 159.881L183.941 160.107Z" fill="#25407C"/>
<path d="M171.291 158.961V150.527L194.008 95.8125H162.396L160.057 143.695L163.116 146.641C163.116 146.641 164.511 149.383 164.042 152.123C163.574 154.854 163.808 157.139 163.808 157.139L171.291 158.961Z" fill="#25407C"/>
<path fill-rule="evenodd" clip-rule="evenodd" d="M10 222.384H19.3471V207.246H28.5207V200.081H19.3471V192.612H32.2523V185.446H10V222.384Z" fill="#25407C"/>
<path fill-rule="evenodd" clip-rule="evenodd" d="M34.595 222.384H42.9968V196.346H34.595V222.384ZM34.595 192.912H42.9968V185.453H34.595V192.912Z" fill="#25407C"/>
<path fill-rule="evenodd" clip-rule="evenodd" d="M47.2385 222.384H55.6373V205.535C56.5884 204.222 57.4523 203.505 60.2537 203.505C61.439 203.505 62.5372 203.826 63.6947 204.222V195.729C60.3599 195.729 56.6159 197.028 55.589 200.298H55.486V196.346H47.2385V222.384Z" fill="#25407C"/>
<path fill-rule="evenodd" clip-rule="evenodd" d="M77.5757 205.834C71.9076 205.995 64.0394 208.021 64.0394 215.018C64.0394 220.106 66.9787 223 71.5012 223C74.0959 223 76.3173 221.757 77.8237 220C77.927 220.776 77.927 221.654 78.0854 222.384H86.7492C86.4363 222.019 85.9773 221.14 85.9773 218.174V203.661C85.9773 197.903 80.7383 195.729 75.7084 195.729C70.9474 195.729 66.2618 197.793 65.3344 202.94L72.6354 204.442C72.7966 202.991 73.4718 201.025 75.4012 201.025C76.8962 201.025 77.5757 202.523 77.5757 204.07V205.834ZM77.5757 215.746C76.5311 216.95 75.5913 217.414 74.8678 217.414C73.3727 217.414 72.4245 216.417 72.4245 214.612C72.4245 210.767 74.3443 210.202 77.5757 209.895V215.746Z" fill="#25407C"/>
<path fill-rule="evenodd" clip-rule="evenodd" d="M104.516 222.384H119.495C126.819 222.384 131.583 218.447 131.583 212.218C131.583 207.35 128.79 204.297 123.949 203.088V202.991C127.798 202.15 130.912 198.827 130.912 194.272C130.912 189.178 126.819 185.446 120.077 185.446H104.516V222.384ZM113.841 206.316H117.266C120.274 206.316 121.948 208.117 121.948 210.857C121.948 214.653 119.295 215.539 117.266 215.539H113.841V206.316ZM113.841 191.989H117.104C119.24 191.989 121.579 192.559 121.579 196.082C121.579 198.273 120.274 200.081 116.9 200.081H113.841V191.989Z" fill="#25407C"/>
<path fill-rule="evenodd" clip-rule="evenodd" d="M146.211 205.834C140.551 205.995 132.672 208.021 132.672 215.018C132.672 220.106 135.628 223 140.148 223C142.752 223 144.971 221.757 146.463 220C146.569 220.776 146.569 221.654 146.735 222.384H155.393C155.078 222.019 154.607 221.14 154.607 218.174V203.661C154.607 197.903 149.373 195.729 144.337 195.729C139.573 195.729 134.902 197.793 133.974 202.94L141.282 204.442C141.44 202.991 142.104 201.025 144.024 201.025C145.526 201.025 146.211 202.523 146.211 204.07V205.834ZM146.211 215.746C145.17 216.95 144.231 217.414 143.517 217.414C142.008 217.414 141.068 216.417 141.068 214.612C141.068 210.767 142.99 210.202 146.211 209.895V215.746Z" fill="#25407C"/>
<path fill-rule="evenodd" clip-rule="evenodd" d="M159.075 222.384H167.478V205.535C168.401 204.222 169.286 203.505 172.08 203.505C173.282 203.505 174.378 203.826 175.508 204.222V195.729C172.191 195.729 168.445 197.028 167.426 200.298H167.322V196.346H159.075V222.384Z" fill="#25407C"/>
<path fill-rule="evenodd" clip-rule="evenodd" d="M198.011 206.045C198.011 203.454 196.657 195.729 187.738 195.729C179.804 195.729 175.873 202.823 175.873 209.934C175.873 216.366 179.804 223 187.386 223C193.502 223 197.133 219.683 197.756 213.358L191.21 212.421C191.21 214.405 190.976 217.414 188.011 217.414C185.829 217.414 184.885 215.487 184.885 209.617C184.885 204.442 185.192 201.025 188.011 201.025C189.336 201.025 190.022 201.748 190.436 202.771C190.787 203.76 190.859 205.014 190.859 206.045H198.011Z" fill="#25407C"/>
<path fill-rule="evenodd" clip-rule="evenodd" d="M222.337 211.222V209.472C222.337 202.678 219.54 195.729 211.437 195.729C203.713 195.729 199.878 201.944 199.878 209.324C199.878 216.527 203.502 223 211.533 223C219.019 223 221.602 217.099 221.965 215.914L216.329 213.82C215.805 215.942 214.092 217.414 212.06 217.414C208.757 217.414 208.274 213.514 208.274 211.222H222.337ZM208.274 206.265C208.274 203.826 208.998 201.025 211.398 201.025C214.285 201.025 214.513 203.826 214.561 206.265H208.274Z" fill="#25407C"/>
<path fill-rule="evenodd" clip-rule="evenodd" d="M225.127 222.384H233.536V185.446H225.127V222.384Z" fill="#25407C"/>
<path fill-rule="evenodd" clip-rule="evenodd" d="M236.327 209.258C236.327 217.354 240.075 223 248.068 223C256.046 223 259.774 217.354 259.774 209.258C259.774 201.484 255.888 195.723 248.068 195.723C240.226 195.723 236.327 201.484 236.327 209.258ZM245.061 209.258C245.061 203.239 245.667 201.025 248.068 201.025C250.456 201.025 251.069 203.239 251.069 209.258C251.069 215.843 250.142 217.713 248.068 217.713C245.991 217.713 245.061 215.843 245.061 209.258Z" fill="#25407C"/>
<path fill-rule="evenodd" clip-rule="evenodd" d="M262.789 222.384H271.188V203.349L271.657 202.724C272.235 202.003 272.945 201.638 273.83 201.638C275.387 201.638 275.849 202.568 275.849 203.967V222.384H284.247V201.58C284.247 198.014 282.088 195.729 278.705 195.729C275.697 195.729 273.055 197.18 271.291 199.822H271.188V196.346H262.789V222.384Z" fill="#25407C"/>
<path fill-rule="evenodd" clip-rule="evenodd" d="M300.797 205.834C295.162 205.995 287.27 208.021 287.27 215.018C287.27 220.106 290.212 223 294.745 223C297.35 223 299.568 221.757 301.053 220C301.174 220.776 301.174 221.654 301.326 222.384H310C309.665 222.019 309.204 221.14 309.204 218.174V203.661C309.204 197.903 303.96 195.729 298.944 195.729C294.173 195.729 289.495 197.793 288.558 202.94L295.878 204.442C296.034 202.991 296.712 201.025 298.638 201.025C300.127 201.025 300.797 202.523 300.797 204.07V205.834ZM300.797 215.746C299.775 216.95 298.827 217.414 298.097 217.414C296.595 217.414 295.668 216.417 295.668 214.612C295.668 210.767 297.591 210.202 300.797 209.895V215.746Z" fill="#25407C"/>
</svg>
