<svg width="220" height="220" viewBox="0 0 220 220" fill="none" xmlns="http://www.w3.org/2000/svg">
<path d="M90.868 104.359H96.5635V122.256H90.868V104.359Z" fill="#E60019"/>
<path d="M97.7625 104.359H103.246V106.81H103.352C104.675 104.888 106.385 103.847 108.871 103.847C112.786 103.847 115.096 106.651 115.096 110.636V122.274H109.4V111.782C109.4 109.895 108.448 108.608 106.597 108.608C104.71 108.608 103.458 110.178 103.458 112.382V122.274H97.7625V104.359Z" fill="#E60019"/>
<path d="M93.7245 103.001C95.6138 103.001 97.1454 101.469 97.1454 99.5799C97.1454 97.6907 95.6138 96.1591 93.7245 96.1591C91.8352 96.1591 90.3037 97.6907 90.3037 99.5799C90.3037 101.469 91.8352 103.001 93.7245 103.001Z" fill="#E60019"/>
<path d="M155.159 104.094C155 104.076 154.806 104.076 154.594 104.076C152.426 104.076 150.962 105.029 149.692 107.145H149.587V104.359H144.138V122.256H149.833V114.216C149.833 110.495 151.897 108.767 155.159 109.067V104.094Z" fill="#E60019"/>
<path d="M183.125 110.971C180.85 110.548 178.822 110.371 178.822 109.12C178.822 108.009 179.898 107.48 181.309 107.48C182.878 107.48 183.971 107.973 184.183 109.578H189.42C189.138 106.051 186.422 103.847 181.344 103.847C177.112 103.847 173.621 105.804 173.621 109.578C173.621 113.775 176.936 114.603 180.057 115.132C182.437 115.556 184.606 115.732 184.606 117.337C184.606 118.483 183.531 119.118 181.802 119.118C180.092 119.118 178.946 118.395 178.593 116.913H173.162C173.568 120.599 176.795 122.821 181.838 122.821C186.528 122.821 189.984 120.793 189.984 116.878C189.967 112.293 186.264 111.5 183.125 110.971Z" fill="#E60019"/>
<path d="M164.31 118.694C161.965 118.694 160.643 117.196 160.29 114.78H173.145C173.18 111.147 172.139 108.026 170.006 106.069C168.472 104.676 166.444 103.83 163.887 103.83C158.438 103.83 154.7 107.92 154.7 113.263C154.7 118.677 158.333 122.768 164.24 122.768C166.514 122.768 168.331 122.168 169.83 121.128C171.399 120.052 172.457 118.5 172.827 116.896H167.273C166.797 118.024 165.827 118.694 164.31 118.694ZM163.993 107.885C165.844 107.885 167.167 109.243 167.378 111.377H160.325C160.713 109.261 161.842 107.885 163.993 107.885Z" fill="#E60019"/>
<path d="M200 118.042C199.735 118.06 199.383 118.06 199.048 118.06C197.831 118.06 197.055 117.707 197.055 116.314V107.92H200V104.359H197.055V98.6983H191.501V104.359H189.755V107.92H191.501V117.531C191.501 121.375 193.881 122.468 197.196 122.468C198.466 122.468 199.418 122.38 200 122.256V118.042Z" fill="#E60019"/>
<path d="M125.27 118.042C125.041 118.042 124.777 118.06 124.53 118.06C123.313 118.06 122.537 117.707 122.537 116.314V107.92H125.27V104.359H122.537V98.6983H116.983V104.359H115.131V107.92H116.983V117.531C116.983 121.375 119.363 122.468 122.678 122.468C123.807 122.468 124.688 122.397 125.27 122.292V118.042Z" fill="#E60019"/>
<path d="M124.988 113.281C124.988 107.938 128.726 103.847 134.175 103.847C136.732 103.847 138.76 104.694 140.294 106.087C142.427 108.044 143.468 111.147 143.433 114.797H130.578C130.931 117.213 132.253 118.712 134.598 118.712C136.097 118.712 137.085 118.042 137.561 116.931H143.115C142.727 118.536 141.687 120.07 140.118 121.163C138.619 122.203 136.802 122.803 134.528 122.803C128.621 122.785 124.988 118.694 124.988 113.281ZM137.684 111.394C137.473 109.261 136.15 107.903 134.299 107.903C132.13 107.903 131.019 109.261 130.631 111.394H137.684Z" fill="#E60019"/>
<path d="M70.8366 97.27H80.7288C83.7618 97.27 86.0012 98.1164 87.5529 99.5799C89.1575 101.079 90.0744 103.212 90.0744 105.734C90.0744 110.53 86.7594 113.916 81.6105 113.916H76.6027V122.274H70.8366V97.27ZM80.9757 109.014C83.2151 109.014 84.4671 107.691 84.4671 105.699C84.4671 103.706 83.1799 102.489 80.9757 102.489H76.6027V109.031H80.9757V109.014Z" fill="#E60019"/>
<path d="M41.4244 131.849C53.2567 131.849 62.8487 122.257 62.8487 110.424C62.8487 98.592 53.2567 89 41.4244 89C29.592 89 20 98.592 20 110.424C20 122.257 29.592 131.849 41.4244 131.849Z" fill="white"/>
<path d="M41.4244 89C29.5748 89 20 98.5925 20 110.424C20 119.505 25.6426 127.264 33.6129 130.385C33.4189 128.692 33.2602 126.083 33.6834 124.231C34.0713 122.556 36.1873 113.581 36.1873 113.581C36.1873 113.581 35.5525 112.293 35.5525 110.407C35.5525 107.427 37.2806 105.205 39.4318 105.205C41.2657 105.205 42.1473 106.58 42.1473 108.22C42.1473 110.054 40.9835 112.805 40.3664 115.362C39.855 117.495 41.442 119.241 43.5404 119.241C47.3491 119.241 50.2762 115.221 50.2762 109.437C50.2762 104.306 46.5909 100.726 41.3186 100.726C35.2175 100.726 31.6379 105.293 31.6379 110.019C31.6379 111.853 32.3433 113.828 33.2249 114.903C33.4013 115.115 33.4189 115.309 33.366 115.52C33.2073 116.19 32.837 117.654 32.7665 117.954C32.6783 118.342 32.4491 118.43 32.0435 118.236C29.3985 116.966 27.741 113.052 27.741 109.913C27.741 103.159 32.643 96.9526 41.9005 96.9526C49.3241 96.9526 55.1078 102.243 55.1078 109.331C55.1078 116.719 50.4526 122.662 43.9988 122.662C41.8299 122.662 39.7845 121.533 39.0968 120.193C39.0968 120.193 38.0212 124.284 37.7567 125.289C37.2806 127.158 35.9757 129.486 35.094 130.914C37.1042 131.531 39.2202 131.866 41.442 131.866C53.2739 131.866 62.8664 122.274 62.8664 110.442C62.8487 98.5925 53.2563 89 41.4244 89Z" fill="#E60019"/>
</svg>
