<svg width="320" height="320" viewBox="0 0 320 320" fill="none" xmlns="http://www.w3.org/2000/svg">
<path fill-rule="evenodd" clip-rule="evenodd" d="M160 20.0002C237.319 20.0002 300 82.6809 300 160C300 237.319 237.319 300 160 300C82.6804 300 20 237.319 20 160C20 82.6809 82.6804 20.0002 160 20.0002Z" fill="#231F20"/>
<path d="M160 20.0002C237.319 20.0002 300 82.6809 300 160C300 237.319 237.319 300 160 300C82.6804 300 20 237.319 20 160C20 82.6809 82.6804 20.0002 160 20.0002Z" stroke="#231F20" stroke-width="0.287244" stroke-miterlimit="2.4142"/>
<path fill-rule="evenodd" clip-rule="evenodd" d="M160 23.8184C235.152 23.8184 296.075 84.7885 296.075 160C296.075 235.211 235.152 296.182 160 296.182C84.8477 296.182 23.9252 235.211 23.9252 160C23.9252 84.7885 84.8477 23.8184 160 23.8184Z" fill="white"/>
<path d="M160 23.8184C235.152 23.8184 296.075 84.7885 296.075 160C296.075 235.211 235.152 296.182 160 296.182C84.8477 296.182 23.9252 235.211 23.9252 160C23.9252 84.7885 84.8477 23.8184 160 23.8184Z" stroke="#231F20" stroke-width="0.287244" stroke-miterlimit="2.4142"/>
<path fill-rule="evenodd" clip-rule="evenodd" d="M160 28.5974C232.583 28.5974 291.423 87.4285 291.423 160C291.423 232.571 232.583 291.403 160 291.403C87.4169 291.403 28.5771 232.571 28.5771 160C28.5771 87.4285 87.4169 28.5974 160 28.5974Z" fill="#231F20"/>
<path d="M160 28.5974C232.583 28.5974 291.423 87.4285 291.423 160C291.423 232.571 232.583 291.403 160 291.403C87.4169 291.403 28.5771 232.571 28.5771 160C28.5771 87.4285 87.4169 28.5974 160 28.5974Z" stroke="#231F20" stroke-width="0.287244" stroke-miterlimit="2.4142"/>
<path fill-rule="evenodd" clip-rule="evenodd" d="M161.954 76.1203C209.173 76.1203 247.452 113.888 247.452 160.475C247.452 207.062 209.173 244.828 161.954 244.828C114.734 244.828 76.4562 207.062 76.4562 160.475C76.4562 113.888 114.734 76.1203 161.954 76.1203Z" fill="white"/>
<path d="M161.954 76.1203C209.173 76.1203 247.452 113.888 247.452 160.475C247.452 207.062 209.173 244.828 161.954 244.828C114.734 244.828 76.4562 207.062 76.4562 160.475C76.4562 113.888 114.734 76.1203 161.954 76.1203Z" stroke="white" stroke-width="0.287244" stroke-miterlimit="2.4142"/>
<path fill-rule="evenodd" clip-rule="evenodd" d="M38.6916 185.828L42.5895 175.728C52.1386 115.134 64.8692 91.8233 116.537 50.9661L123.882 42.8762C94.97 49.7233 73.4322 69.7159 57.9358 92.0271C40.5992 119.985 34.8952 147.634 38.6916 185.828Z" fill="#231F20"/>
<path d="M38.6916 185.828L42.5895 175.728C52.1386 115.134 64.8692 91.8233 116.537 50.9661L123.882 42.8762C94.97 49.7233 73.4322 69.7159 57.9358 92.0271C40.5992 119.985 34.8952 147.634 38.6916 185.828Z" stroke="#231F20" stroke-width="0.287244" stroke-miterlimit="2.4142"/>
<path fill-rule="evenodd" clip-rule="evenodd" d="M60.649 87.9315L53.7549 96.5404C50.6502 103.065 51.7369 106.417 55.0594 109.68C57.9165 112.128 61.7978 112.58 66.8907 109.861L71.5479 106.327C73.4774 105.245 75.19 104.97 76.2865 105.624C77.1996 106.159 77.7531 108.633 76.9515 110.314C76.3988 112.218 73.0667 115.632 70.0581 117.096C71.737 118.383 73.4168 119.671 75.096 120.957C77.6832 118.623 80.0128 116.163 81.889 113.577C84.5595 109.891 85.4603 103.397 81.7028 100.165C79.099 97.486 75.2198 95.532 70.3798 97.8371C68.1626 99.1894 66.3981 100.729 64.5044 102.459C63.0641 103.63 61.145 103.371 60.334 102.599C59.5002 101.576 59.4603 99.8225 60.4484 98.1514C61.2057 96.658 63.1721 94.0054 66.2326 92.3387L60.649 87.9315Z" fill="white"/>
<path d="M60.649 87.9315L53.7549 96.5404C50.6502 103.065 51.7369 106.417 55.0594 109.68C57.9165 112.128 61.7978 112.58 66.8907 109.861L71.5479 106.327C73.4774 105.245 75.19 104.97 76.2865 105.624C77.1996 106.159 77.7531 108.633 76.9515 110.314C76.3988 112.218 73.0667 115.632 70.0581 117.096C71.737 118.383 73.4168 119.671 75.096 120.957C77.6832 118.623 80.0128 116.163 81.889 113.577C84.5595 109.891 85.4603 103.397 81.7028 100.165C79.099 97.486 75.2198 95.532 70.3798 97.8371C68.1626 99.1894 66.3981 100.729 64.5044 102.459C63.0641 103.63 61.145 103.371 60.334 102.599C59.5002 101.576 59.4603 99.8225 60.4484 98.1514C61.2057 96.658 63.1721 94.0054 66.2326 92.3387L60.649 87.9315Z" stroke="white" stroke-width="0.288" stroke-miterlimit="2.4142"/>
<path fill-rule="evenodd" clip-rule="evenodd" d="M47.5378 96.6041L52.804 95.7879L55.3386 92.9152L54.9689 86.8233L53.1032 89.0189L53.3386 93.4648L49.2419 94.4822L47.5378 96.6041Z" fill="white"/>
<path d="M47.5378 96.6041L52.804 95.7879L55.3386 92.9152L54.9689 86.8233L53.1032 89.0189L53.3386 93.4648L49.2419 94.4822L47.5378 96.6041Z" stroke="white" stroke-width="0.288" stroke-miterlimit="2.4142"/>
<path fill-rule="evenodd" clip-rule="evenodd" d="M84.985 64.5031L102.592 89.52L109.021 85.286L101.108 73.9319L102.592 73.6437L117.528 79.6089L125.936 74.3172L106.053 67.8706L107.834 49.3964L99.5252 54.6882L99.3274 70.3723L92.0078 59.98L84.985 64.5031Z" fill="white"/>
<path d="M84.985 64.5031L102.592 89.52L109.021 85.286L101.108 73.9319L102.592 73.6437L117.528 79.6089L125.936 74.3172L106.053 67.8706L107.834 49.3964L99.5252 54.6882L99.3274 70.3723L92.0078 59.98L84.985 64.5031Z" stroke="white" stroke-width="0.287244" stroke-miterlimit="2.4142"/>
<path fill-rule="evenodd" clip-rule="evenodd" d="M156.006 38.2354C145.751 38.3315 140.345 44.0076 140.179 54.0147C140.542 66.7804 150.204 70.5968 155.908 70.1793C161.777 70.2753 171.206 67.1001 170.942 54.7843C171.306 43.2066 164.348 38.3629 156.006 38.2354Z" fill="white"/>
<path d="M156.006 38.2354C145.751 38.3315 140.345 44.0076 140.179 54.0147C140.542 66.7804 150.204 70.5968 155.908 70.1793C161.777 70.2753 171.206 67.1001 170.942 54.7843C171.306 43.2066 164.348 38.3629 156.006 38.2354Z" stroke="white" stroke-width="0.287244" stroke-miterlimit="2.4142"/>
<path fill-rule="evenodd" clip-rule="evenodd" d="M155.66 44.1046C159.621 44.1046 162.832 48.5838 162.832 54.1108C162.832 59.6379 159.621 64.1179 155.66 64.1179C151.7 64.1179 148.488 59.6379 148.488 54.1108C148.488 48.5838 151.7 44.1046 155.66 44.1046Z" fill="#231F20"/>
<path d="M155.66 44.1046C159.621 44.1046 162.832 48.5838 162.832 54.1108C162.832 59.6379 159.621 64.1179 155.66 64.1179C151.7 64.1179 148.488 59.6379 148.488 54.1108C148.488 48.5838 151.7 44.1046 155.66 44.1046Z" stroke="#231F20" stroke-width="0.287244" stroke-miterlimit="2.4142"/>
<path fill-rule="evenodd" clip-rule="evenodd" d="M192.827 73.58L207.009 46.7645L219.613 53.1716C231.109 59.0884 228.352 69.3756 226.215 72.9568C220.783 82.6038 213.026 83.2099 205.27 79.9736L192.827 73.58Z" fill="white"/>
<path d="M192.827 73.58L207.009 46.7645L219.613 53.1716C231.109 59.0884 228.352 69.3756 226.215 72.9568C220.783 82.6038 213.026 83.2099 205.27 79.9736L192.827 73.58Z" stroke="white" stroke-width="0.287244" stroke-miterlimit="2.4142"/>
<path fill-rule="evenodd" clip-rule="evenodd" d="M203.033 71.9914L211.478 55.835L215.559 58.1554C221.518 61.8299 220.274 65.8807 218.411 70.0069C215.738 74.7006 211.285 75.9273 206.6 73.7649L203.033 71.9914Z" fill="#231F20"/>
<path d="M203.033 71.9914L211.478 55.835L215.559 58.1554C221.518 61.8299 220.274 65.8807 218.411 70.0069C215.738 74.7006 211.285 75.9273 206.6 73.7649L203.033 71.9914Z" stroke="#231F20" stroke-width="0.287244" stroke-miterlimit="2.4142"/>
<path fill-rule="evenodd" clip-rule="evenodd" d="M231.924 97.5381L264.315 91.7246L269.386 99.9294L249.041 124.773L244.967 118.008L249.391 113.046L243.106 102.771L236.162 103.921L231.924 97.5381Z" fill="white"/>
<path d="M231.924 97.5381L264.315 91.7246L269.386 99.9294L249.041 124.773L244.967 118.008L249.391 113.046L243.106 102.771L236.162 103.921L231.924 97.5381Z" stroke="white" stroke-width="0.287244" stroke-miterlimit="2.4142"/>
<path fill-rule="evenodd" clip-rule="evenodd" d="M249.308 101.46L260.931 99.1284L253.36 107.883L249.308 101.46Z" fill="#231F20"/>
<path d="M249.308 101.46L260.931 99.1284L253.36 107.883L249.308 101.46Z" stroke="#231F20" stroke-width="0.287244" stroke-miterlimit="2.4142"/>
<path fill-rule="evenodd" clip-rule="evenodd" d="M197.103 191.22C207.046 159.124 210.043 117.765 178.558 91.2199C170.724 85.788 166.415 84.1429 154.742 85.6695L143.33 87.8408C141.219 88.6678 136.95 89.4939 139.993 92.5713L158.772 110.977C159.578 112.181 157.807 113.794 156.246 112.952L136.078 94.8199C131.958 91.5135 128.008 93.3104 124.4 95.1485C116.816 99.1248 110.248 105.288 104.631 112.937C103.573 114.008 102.13 115.701 103.418 116.689L128.252 128.849C129.399 129.906 128.328 131.878 127.086 131.608L105.725 122.341C101.642 120.764 98.0025 120.648 93.4501 126.457C89.8537 131.645 86.4214 137.55 85.7727 147.121C85.7033 149.397 84.1262 153.5 89.0437 153.044C89.9958 153.133 90.979 153.039 91.9113 153.125C121.38 155.851 132.628 166.561 137.377 189.766C137.851 191.361 138.128 192.815 137.026 193.285C135.929 193.776 134.636 193.009 133.265 193.042C120.496 183.183 109.214 180.711 91.979 182.192C89.9003 182.27 89.3479 183.784 90.9123 184.812C102.377 190.858 110.59 194.572 109.64 210.611C109.613 212.298 110.067 213.84 111.848 213.196C117.908 213.431 120.945 211.987 124.197 209.842C127.836 207.823 130.035 203.591 134.897 203.534L203.818 203.429L204.534 209.272C205.843 211.764 206.445 211.624 209.059 211.22C215.811 210.174 229.387 204.323 229.514 198.227C230.235 191.38 215.999 186.592 208.32 183.2C206.157 182.292 205.132 182.846 204.835 184.529L203.918 191.231L197.103 191.22Z" fill="#00A650"/>
<path fill-rule="evenodd" clip-rule="evenodd" d="M181.141 162.752C186.936 162.752 191.635 167.024 191.635 172.294C191.635 177.564 186.936 181.836 181.141 181.836C175.345 181.836 170.646 177.564 170.646 172.294C170.646 167.024 175.345 162.752 181.141 162.752Z" fill="white"/>
<path d="M181.141 162.752C186.936 162.752 191.635 167.024 191.635 172.294C191.635 177.564 186.936 181.836 181.141 181.836C175.345 181.836 170.646 177.564 170.646 172.294C170.646 167.024 175.345 162.752 181.141 162.752Z" stroke="#D3D2D2" stroke-width="0.287244" stroke-miterlimit="2.4142"/>
<path fill-rule="evenodd" clip-rule="evenodd" d="M89.1739 252.993L108.872 239.157L115.158 242.943L110.048 266.556L104.77 263.533L105.609 258.194L98.5266 253.238L93.596 256.124L89.1739 252.993Z" fill="white"/>
<path d="M89.1739 252.993L108.872 239.157L115.158 242.943L110.048 266.556L104.77 263.533L105.609 258.194L98.5266 253.238L93.596 256.124L89.1739 252.993Z" stroke="white" stroke-width="0.287244" stroke-miterlimit="2.4142"/>
<path fill-rule="evenodd" clip-rule="evenodd" d="M102.418 250.568L108.494 245.611L106.73 253.619L102.418 250.568Z" fill="#231F20"/>
<path d="M102.418 250.568L108.494 245.611L106.73 253.619L102.418 250.568Z" stroke="#231F20" stroke-width="0.287244" stroke-miterlimit="2.4142"/>
<path fill-rule="evenodd" clip-rule="evenodd" d="M134.254 251.809L132.001 266.405C131.185 273.185 136.823 276.279 141.127 276.441C146.381 276.718 150.793 275.017 151.628 270.653L154.065 254.831L148.519 253.932L146.085 269.321C145.408 270.829 143.541 272.065 141.814 271.731C139.88 271.729 137.948 270.294 137.978 268.381L140.12 252.557L134.254 251.809Z" fill="white"/>
<path d="M134.254 251.809L132.001 266.405C131.185 273.185 136.823 276.279 141.127 276.441C146.381 276.718 150.793 275.017 151.628 270.653L154.065 254.831L148.519 253.932L146.085 269.321C145.408 270.829 143.541 272.065 141.814 271.731C139.88 271.729 137.948 270.294 137.978 268.381L140.12 252.557L134.254 251.809Z" stroke="white" stroke-width="0.287244" stroke-miterlimit="2.4142"/>
<path fill-rule="evenodd" clip-rule="evenodd" d="M170.655 254.479L187.412 252.068L188.07 255.853L182.78 256.602L185.381 275.314L180.119 275.775L177.332 257.649L171.312 258.399L170.655 254.479Z" fill="white"/>
<path d="M170.655 254.479L187.412 252.068L188.07 255.853L182.78 256.602L185.381 275.314L180.119 275.775L177.332 257.649L171.312 258.399L170.655 254.479Z" stroke="white" stroke-width="0.287244" stroke-miterlimit="2.4142"/>
<path fill-rule="evenodd" clip-rule="evenodd" d="M209.826 241.057C205.89 244.218 201.884 250.789 208.749 258.111C213.48 263.386 219.053 263.543 223.643 260.767C229.994 256.243 230.245 251.377 227.2 245.421C225.172 240.419 218.657 235.963 209.826 241.057Z" fill="white"/>
<path d="M209.826 241.057C205.89 244.218 201.884 250.789 208.749 258.111C213.48 263.386 219.053 263.543 223.643 260.767C229.994 256.243 230.245 251.377 227.2 245.421C225.172 240.419 218.657 235.963 209.826 241.057Z" stroke="white" stroke-width="0.287244" stroke-miterlimit="2.4142"/>
<path fill-rule="evenodd" clip-rule="evenodd" d="M213.174 244.416C215.649 242.879 219.455 244.373 221.673 247.752C223.892 251.132 223.683 255.118 221.209 256.655C218.734 258.193 214.928 256.698 212.709 253.319C210.491 249.939 210.7 245.953 213.174 244.416Z" fill="#231F20"/>
<path d="M213.174 244.416C215.649 242.879 219.455 244.373 221.673 247.752C223.892 251.132 223.683 255.118 221.209 256.655C218.734 258.193 214.928 256.698 212.709 253.319C210.491 249.939 210.7 245.953 213.174 244.416Z" stroke="#231F20" stroke-width="0.287244" stroke-miterlimit="2.4142"/>
</svg>
