<svg width="320" height="320" viewBox="0 0 320 320" fill="none" xmlns="http://www.w3.org/2000/svg">
<path d="M143.425 181.677L148.18 180.854C148.18 180.854 148.141 184.13 150.691 185.459C150.691 185.459 146.772 187.667 143.322 188.11" fill="#3DB94D"/>
<path d="M36.727 123.772C36.727 123.772 34.3689 121.363 34.8991 116.924C35.4846 112.026 39.8526 106.783 47.4838 106.953C55.1165 107.123 58.6015 112.575 61.2791 119.863C63.8129 126.76 66.3057 135.986 67.4466 138.732C68.5875 141.481 70.8554 152.722 79.9079 156.876C88.9604 161.023 96.2007 158.277 102.629 154.582C107.591 151.725 114.623 145.822 122.259 141.623C132.405 136.041 144.528 139.645 156.426 150.419C167.607 160.543 177.09 153.323 177.09 153.323C177.09 153.323 170.986 155.665 158.392 143.139C140.143 124.982 130.616 131.357 121.541 138.202C111.297 145.936 104.484 152.417 90.5984 151.479C79.4886 150.728 68.6397 139.51 65.4448 122.51C60.1398 94.277 40.9984 95.6063 32.8101 105.664C23.7292 116.813 35.4561 128.105 36.727 123.772Z" fill="#EE2049"/>
<path d="M49.1297 183.173C49.1297 183.173 42.1631 181.479 42.9386 173.155C43.7141 164.824 50.5113 159.899 60.8695 159.063C75.2869 157.9 100.679 167.877 113.704 168.446C126.676 169.024 144.06 166.152 154.085 139.009C154.085 139.009 136.424 169.111 106.363 163.658C80.3192 158.929 74.0917 153.445 59.035 152.579C46.2209 151.839 35.5986 159.931 35.2504 170.512C34.8041 184.185 47.3176 186.504 49.1297 183.173Z" fill="#3DB94D"/>
<path d="M163.992 136.366L163.152 139.578L160.394 141.062L163.036 142.486L163.179 145.498L165.466 143.1L169.348 143.19L167.943 140.531L169.617 138.086L166.309 138.653" fill="#EE2049"/>
<path fill-rule="evenodd" clip-rule="evenodd" d="M104.932 139.523C111.436 140.275 110.264 148.544 104.647 147.855C99.0286 147.159 98.4225 138.771 104.932 139.523Z" fill="#3DB94D"/>
<path d="M50.0871 174.611L48.7578 170.607L52.6937 171.912L56.7022 168.858L57.3638 172.593L60.8249 174.097L57.0267 177.404L56.2577 181.828L52.825 178.251L46.8318 178.409" fill="#2B3898"/>
<path d="M70.9061 120.326L78.1829 116.821C78.1829 116.821 79.2622 120.01 82.6487 121.853L73.9208 127.092" fill="#EE2049"/>
<path d="M60.1572 90.5894L59.904 85.7625L63.5787 88.5276L68.9658 85.5093L65.918 91.8903L70.1861 94.9447L65.0489 95.3802L62.4062 99.6184L61.0623 94.918L55.7671 94.3909" fill="#3DB94D"/>
<path d="M146.491 157.478C146.491 157.478 144.327 165.512 151.716 164.686C151.716 164.686 146.498 168.818 143.653 164.117C141.64 160.793 144.944 157.486 146.491 157.478Z" fill="#EE2049"/>
<path d="M48.0614 132.441L38.4947 128.1L39.6611 139.954" fill="#2B3898"/>
<path d="M111.89 108.998L116.489 114.672L120.671 105.865" fill="#2B3898"/>
<path d="M133.722 142.206L141.432 140.75L138.805 147.033C138.805 147.033 135.537 146.716 133.727 148.109" fill="#2B3898"/>
<path d="M17.9733 125.892C17.9733 125.892 9.63306 131.716 17.2042 136.746C17.2042 136.746 8.99369 136.35 10.1031 129.877C10.8358 125.592 16.5205 124.682 17.9733 125.892Z" fill="#EE2049"/>
<path fill-rule="evenodd" clip-rule="evenodd" d="M97.4696 172.854C102.946 173.107 101.706 183.354 95.745 182.539C89.7865 181.732 91.9941 172.601 97.4696 172.854Z" fill="#EE2049"/>
<path d="M265.933 126.66L267.867 131.503C268.236 133.454 269.335 134.325 270.035 136.912" stroke="#2B3898" stroke-width="0.801097" stroke-miterlimit="3.8637"/>
<path d="M281.105 135.578C285.75 137.482 288.271 143.345 287.417 148.686C286.293 155.729 278.454 158.221 271.701 156.911C265.648 155.74 262.151 149.058 263.159 142.744C264.148 136.551 274.015 132.666 281.105 135.578Z" fill="white"/>
<path d="M281.105 135.578C285.75 137.482 288.271 143.345 287.417 148.686C286.293 155.729 278.454 158.221 271.701 156.911C265.648 155.74 262.151 149.058 263.159 142.744C264.148 136.551 274.015 132.666 281.105 135.578Z" stroke="#2B3898" stroke-width="0.600767" stroke-miterlimit="3.8637"/>
<path d="M265.604 139.518C268.244 141.778 270.811 144.263 274.194 146.835C273.166 142.475 273.074 139.159 272.414 136.148" stroke="#2B3898" stroke-width="0.400436" stroke-miterlimit="3.8637" stroke-linecap="round" stroke-linejoin="round"/>
<path d="M275.535 147.737C278.95 150.396 278.534 153.023 281.585 154.985" stroke="#2B3898" stroke-width="0.400436" stroke-miterlimit="3.8637" stroke-linecap="round" stroke-linejoin="round"/>
<path d="M285.691 140.594C283.128 143.108 279.46 144.398 276.413 146.181L287.504 148.389" stroke="#2B3898" stroke-width="0.400436" stroke-miterlimit="3.8637" stroke-linecap="round" stroke-linejoin="round"/>
<path d="M275.424 146.368C276.84 142.76 278.277 139.784 279.496 135.891" stroke="#2B3898" stroke-width="0.400436" stroke-miterlimit="3.8637" stroke-linecap="round" stroke-linejoin="round"/>
<path d="M277.383 145.54L277.51 147.495C276.516 148.694 275.508 149.304 274.411 148.31C273.739 147.7 274 145.857 274 145.857C275.294 145.271 275.808 144.136 277.383 145.54Z" fill="#2B3898"/>
<path d="M277.383 145.54L277.51 147.495C276.516 148.694 275.508 149.304 274.411 148.31C273.739 147.7 274 145.857 274 145.857C275.294 145.271 275.808 144.136 277.383 145.54Z" stroke="#2B3898" stroke-width="0.109095" stroke-miterlimit="3.8637"/>
<path d="M253.537 103.218L226.237 110.285L218.234 122.661L229.647 124.144" fill="#EE2049"/>
<path d="M255.024 102.206L225.612 110.071C224.026 115.914 220.007 117.367 218.06 122.803C224.96 121.714 225.316 123.51 229.402 124.183L255.024 102.206Z" stroke="#2B3898" stroke-width="0.801097" stroke-miterlimit="3.8637" stroke-linecap="round" stroke-linejoin="round"/>
<path d="M186.182 140.484L197.708 131.329L196.03 142.423" fill="#EE2049"/>
<path d="M195.334 141.715C196.663 138.209 197.505 135.717 197.439 131.7C192.976 135.29 188.062 136.223 185.72 141.137L195.334 141.715Z" stroke="#2B3898" stroke-width="0.801097" stroke-miterlimit="3.8637" stroke-linecap="round" stroke-linejoin="round"/>
<path d="M264.077 143.443C269.138 143.1 273.807 147.033 275.144 152.018C276.908 158.585 271.966 165.011 265.189 166.824C259.12 168.446 251.896 163.328 250.313 157.441C248.762 151.669 251.935 144.271 264.077 143.443Z" fill="white"/>
<path d="M264.077 143.443C269.138 143.1 273.807 147.033 275.144 152.018C276.908 158.585 271.966 165.011 265.189 166.824C259.12 168.446 251.896 163.328 250.313 157.441C248.762 151.669 251.935 144.271 264.077 143.443Z" stroke="#2B3898" stroke-width="0.600767" stroke-miterlimit="3.8637"/>
<path d="M251.729 152.82C255.072 153.624 258.598 154.74 262.36 155.677C260.513 152.532 256.509 149.13 254.325 147.527" stroke="#2B3898" stroke-width="0.400436" stroke-miterlimit="3.8637" stroke-linecap="round" stroke-linejoin="round"/>
<path d="M261.268 156.283L258.079 157.465C252.909 159.005 254.111 159.34 251.282 159.369" stroke="#2B3898" stroke-width="0.400436" stroke-miterlimit="3.8637" stroke-linecap="round" stroke-linejoin="round"/>
<path d="M262.404 157.243C259.357 159.879 258.696 162.339 257.142 164.94" stroke="#2B3898" stroke-width="0.400436" stroke-miterlimit="3.8637" stroke-linecap="round" stroke-linejoin="round"/>
<path d="M263.57 156.932L263.467 156.552L265.87 166.176" stroke="#2B3898" stroke-width="0.400436" stroke-miterlimit="3.8637" stroke-linecap="round" stroke-linejoin="round"/>
<path d="M263.852 155.642C267.59 157.114 269.676 159.886 273.15 161.134" stroke="#2B3898" stroke-width="0.400436" stroke-miterlimit="3.8637" stroke-linecap="round" stroke-linejoin="round"/>
<path d="M269.85 146.621C268.476 149.905 266.221 152.326 264.116 155.199L274.74 152.595" stroke="#2B3898" stroke-width="0.400436" stroke-miterlimit="3.8637" stroke-linecap="round" stroke-linejoin="round"/>
<path d="M262.937 155.658C262.807 151.926 264.631 147.768 265.113 144.013" stroke="#2B3898" stroke-width="0.400436" stroke-miterlimit="3.8637" stroke-linecap="round" stroke-linejoin="round"/>
<path d="M263.892 154.423C263.892 154.423 264.92 155.471 264.865 156.286C264.778 157.592 263.309 158.071 261.972 157.963C261.13 157.9 260.837 155.851 260.837 155.851C260.79 154.867 262.154 154.138 263.892 154.423Z" fill="#2B3898"/>
<path d="M263.892 154.423C263.892 154.423 264.92 155.471 264.865 156.286C264.778 157.592 263.309 158.071 261.972 157.963C261.13 157.9 260.837 155.851 260.837 155.851C260.79 154.867 262.154 154.138 263.892 154.423Z" stroke="#2B3898" stroke-width="0.098248" stroke-miterlimit="3.8637"/>
<path d="M256.449 133.644L257.87 138.938C260.196 145.094 261.679 152.492 262.376 155.083" stroke="#2B3898" stroke-width="0.801097" stroke-miterlimit="3.8637"/>
<path d="M289.181 92.0406C282.36 93.8654 274.775 89.5924 267.598 91.5075C265.482 92.0771 260.885 97.9723 258.431 99.6294C247.428 107.492 239.789 113.319 231.045 122.083C225.177 127.939 217.105 137.786 206.99 140.492C200.749 142.158 193.193 142.668 188.39 141.684C186.253 141.248 182.46 138.858 180.223 139.455C178.696 139.864 175.069 143.733 175.449 145.141C177.248 151.847 190.004 166.468 197.652 164.421C206.004 162.186 211.603 157.668 218.313 154.482C231.852 148.088 243.65 141.782 255.356 135.123C271.452 126.027 285.984 120.504 289.557 105.181C290.21 101.976 294.241 99.1355 293.386 95.9576C293.165 95.1347 289.419 91.9774 289.181 92.0406Z" fill="#EE2049"/>
<path d="M289.181 92.0406C282.36 93.8654 274.775 89.5924 267.598 91.5075C265.482 92.0771 260.885 97.9723 258.431 99.6294C247.428 107.492 239.789 113.319 231.045 122.083C225.177 127.939 217.105 137.786 206.99 140.492C200.749 142.158 193.193 142.668 188.39 141.684C186.253 141.248 182.46 138.858 180.223 139.455C178.696 139.864 175.069 143.733 175.449 145.141C177.248 151.847 190.004 166.468 197.652 164.421C206.004 162.186 211.603 157.668 218.313 154.482C231.852 148.088 243.65 141.782 255.356 135.123C271.452 126.027 285.984 120.504 289.557 105.181C290.21 101.976 294.241 99.1355 293.386 95.9576C293.165 95.1347 289.419 91.9774 289.181 92.0406Z" stroke="#2B3898" stroke-width="0.801097" stroke-miterlimit="3.8637" stroke-linecap="round" stroke-linejoin="round"/>
<path d="M268.476 99.4678C272.48 100.291 274.851 100.663 277.913 101.734C274.49 105.427 270.075 106.352 267.239 109.884C265.833 108.876 264.493 108.096 264.018 106.332C263.638 104.92 268.149 101.07 268.476 99.4678Z" fill="#2B3898"/>
<path d="M268.476 99.4678C272.48 100.291 274.851 100.663 277.913 101.734C274.49 105.427 270.075 106.352 267.239 109.884C265.833 108.876 264.493 108.096 264.018 106.332C263.638 104.92 268.149 101.07 268.476 99.4678Z" stroke="#2B3898" stroke-width="0.801097" stroke-miterlimit="3.8637"/>
<path d="M250.455 116.892C252.674 115.289 255.578 113.885 258.812 112.77C259.772 117.304 257.633 118.253 253.917 120.382C252.373 118.396 252.397 118.011 250.455 116.892Z" fill="#2B3898"/>
<path d="M250.455 116.892C252.674 115.289 255.578 113.885 258.812 112.77C259.772 117.304 257.633 118.253 253.917 120.382C252.373 118.396 252.397 118.011 250.455 116.892Z" stroke="#2B3898" stroke-width="0.801097" stroke-miterlimit="3.8637"/>
<path d="M238.937 125.647C241.2 126.554 242.804 126.882 245.122 127.523C241.126 129.094 239.639 130.123 236.722 129.137C237.146 127.891 238.937 125.647 238.937 125.647Z" fill="#2B3898"/>
<path d="M238.937 125.647C241.2 126.554 242.804 126.882 245.122 127.523C241.126 129.094 239.639 130.123 236.722 129.137C237.146 127.891 238.937 125.647 238.937 125.647Z" stroke="#2B3898" stroke-width="0.801097" stroke-miterlimit="3.8637"/>
<path d="M226.828 134.557C227.788 135.309 228.833 135.91 229.914 136.635C227.595 139.27 224.722 140.792 222.304 141.185C221.914 137.382 224.588 136.543 226.828 134.557Z" fill="#2B3898"/>
<path d="M226.828 134.557C227.788 135.309 228.833 135.91 229.914 136.635C227.595 139.27 224.722 140.792 222.304 141.185C221.914 137.382 224.588 136.543 226.828 134.557Z" stroke="#2B3898" stroke-width="0.801097" stroke-miterlimit="3.8637"/>
<path d="M174.705 170.552L187.06 167.252C189.466 161.189 192.636 154.668 193.166 147.716C181.004 153.619 180.2 161.901 174.705 170.552Z" fill="#EE2049"/>
<path d="M174.705 170.552L187.06 167.252C189.466 161.189 192.636 154.668 193.166 147.716C181.004 153.619 180.2 161.901 174.705 170.552Z" stroke="#2B3898" stroke-width="0.801097" stroke-miterlimit="3.8637" stroke-linecap="round" stroke-linejoin="round"/>
<path d="M238.712 131.716L236.347 160.999L249.066 156.413C249.066 156.413 264.002 116.041 263.409 116.188C262.818 116.333 238.712 131.716 238.712 131.716Z" fill="#EE2049"/>
<path d="M263.602 116.532C261.805 125.33 257.601 131.748 254.697 139.713C252.386 146.13 252.948 152.912 247.472 157.402C244.964 159.332 238.003 160.184 235.864 161.134C236.291 153.331 240.168 141.703 238.934 131.946L238.325 132.742L238.34 132.971" stroke="#2B3898" stroke-width="0.801097" stroke-miterlimit="3.8637" stroke-linecap="round" stroke-linejoin="round"/>
<path fill-rule="evenodd" clip-rule="evenodd" d="M290.392 95.0683C292.228 93.4384 293.636 91.7323 295.064 90.4662C290.202 82.6924 281.636 81.3266 276.318 74.6766L279.847 73.7351C284.18 78.1268 290.791 82.5344 293.529 87.0999C297.786 94.027 302.106 104.469 310 104.754C308.71 98.542 298.883 92.4729 293.885 90.7794" fill="white"/>
<path d="M290.392 95.0683C292.228 93.4384 293.636 91.7323 295.064 90.4662C290.202 82.6924 281.636 81.3266 276.318 74.6766L279.847 73.7351C284.18 78.1268 290.791 82.5344 293.529 87.0999C297.786 94.027 302.106 104.469 310 104.754C308.71 98.542 298.883 92.4729 293.885 90.7794L290.392 95.0683Z" stroke="#2B3898" stroke-width="0.801097" stroke-miterlimit="3.8637" stroke-linecap="round" stroke-linejoin="round"/>
<path d="M68.0069 197.044C71.9457 196.434 75.9355 196.126 79.9237 195.825C79.8208 199.149 79.8982 202.48 79.9489 205.811C79.8715 208.858 79.8982 211.904 79.9489 214.959C79.8476 218.258 79.8982 221.566 79.9489 224.866C79.8476 228.165 79.8982 231.473 79.9489 234.781C79.8715 237.875 79.8476 240.953 79.9489 244.055V244.308C75.9594 244.688 71.9712 245.067 67.9546 245.4C67.9546 245.273 67.983 245.044 67.983 244.941C68.363 234.749 68.0575 224.565 68.1588 214.373C68.1333 208.652 68.2601 202.963 68.0069 197.242" fill="white"/>
<path d="M68.0069 197.044C71.9457 196.434 75.9355 196.126 79.9237 195.825C79.8208 199.149 79.8982 202.48 79.9489 205.811C79.8715 208.858 79.8982 211.904 79.9489 214.959C79.8476 218.258 79.8982 221.566 79.9489 224.866C79.8476 228.165 79.8982 231.473 79.9489 234.781C79.8715 237.875 79.8476 240.953 79.9489 244.055V244.308C75.9594 244.688 71.9712 245.067 67.9546 245.4C67.9546 245.273 67.983 245.044 67.983 244.941C68.363 234.749 68.0575 224.565 68.1588 214.373C68.1333 208.652 68.2601 202.963 68.0069 197.242" stroke="#2B3898" stroke-width="0.843141"/>
<path d="M120.758 196.886C124.746 196.537 128.71 196.158 132.698 195.802C132.698 211.983 132.698 228.165 132.698 244.355C128.71 244.609 124.746 245.067 120.758 245.4C120.758 229.234 120.758 213.052 120.758 196.886Z" fill="white"/>
<path d="M120.758 196.886C124.746 196.537 128.71 196.158 132.698 195.802C132.698 211.983 132.698 228.165 132.698 244.355C128.71 244.609 124.746 245.067 120.758 245.4C120.758 229.234 120.758 213.052 120.758 196.886Z" stroke="#2B3898" stroke-width="0.843141"/>
<path d="M170.965 243.517C179.376 227.532 188.015 211.683 196.579 195.802C205.141 211.192 213.375 226.797 222.04 242.171V241.61C222.217 236.15 222.167 230.713 222.064 225.246C222.217 215.766 222.115 206.318 222.143 196.838C230.143 197.194 238.507 195.825 246.23 198.437C249.533 199.584 252.658 201.895 253.826 205.305C254.895 208.905 254.744 213.281 252.302 216.328C251.365 217.705 249.889 218.567 248.567 219.556C250.297 220.672 252.176 221.764 253.344 223.544C255.277 225.958 256.014 229.107 255.911 232.162C255.939 236.577 253.169 240.771 249.229 242.733C245.747 244.482 241.735 244.862 237.898 244.862C232.635 244.886 227.405 244.917 222.143 244.759L222.167 244.482C222.27 244.102 222.016 243.619 221.581 243.794C217.849 244.411 214.214 245.4 210.479 245.93C208.628 242.654 207.48 238.99 205.521 235.817C199.452 235.54 193.379 235.794 187.329 235.714C185.755 239.117 184.105 242.504 182.629 245.954C178.693 245.344 174.855 244.308 170.965 243.517ZM234.134 225.451C234.06 228.727 234.06 232.003 234.134 235.287C235.405 235.256 236.679 235.287 237.948 235.256C239.824 235.256 241.862 234.876 243.155 233.356C244.271 231.449 244.172 228.933 242.949 227.105C241.506 225.855 239.57 225.348 237.692 225.42C236.5 225.42 235.305 225.451 234.134 225.451ZM190.304 226.797C194.495 226.844 198.713 226.844 202.93 226.773C200.802 222.935 198.689 219.074 196.552 215.236C194.368 219.018 192.335 222.935 190.304 226.797ZM234.084 206.168V215.948C236.192 215.766 238.507 216.225 240.437 215.133C242.748 213.835 243.231 210.33 241.656 208.328C239.852 206.088 236.623 206.492 234.084 206.168Z" fill="white"/>
<path d="M170.965 243.517C179.376 227.532 188.015 211.683 196.579 195.802C205.141 211.192 213.375 226.797 222.04 242.171V241.61C222.217 236.15 222.167 230.713 222.064 225.246C222.217 215.766 222.115 206.318 222.143 196.838C230.143 197.194 238.507 195.825 246.23 198.437C249.533 199.584 252.658 201.895 253.826 205.305C254.895 208.905 254.744 213.281 252.302 216.328C251.365 217.705 249.889 218.567 248.567 219.556C250.297 220.672 252.176 221.764 253.344 223.544C255.277 225.958 256.014 229.107 255.911 232.162C255.939 236.577 253.169 240.771 249.229 242.733C245.747 244.482 241.735 244.862 237.898 244.862C232.635 244.886 227.405 244.917 222.143 244.759L222.167 244.482C222.27 244.102 222.016 243.619 221.581 243.794C217.849 244.411 214.214 245.4 210.479 245.93C208.628 242.654 207.48 238.99 205.521 235.817C199.452 235.54 193.379 235.794 187.329 235.714C185.755 239.117 184.105 242.504 182.629 245.954C178.693 245.344 174.855 244.308 170.965 243.517ZM234.134 225.451C234.06 228.727 234.06 232.003 234.134 235.287C235.405 235.256 236.679 235.287 237.948 235.256C239.824 235.256 241.862 234.876 243.155 233.356C244.271 231.449 244.172 228.933 242.949 227.105C241.506 225.855 239.57 225.348 237.692 225.42C236.5 225.42 235.305 225.451 234.134 225.451ZM190.304 226.797C194.495 226.844 198.713 226.844 202.93 226.773C200.802 222.935 198.689 219.074 196.552 215.236C194.368 219.018 192.335 222.935 190.304 226.797ZM234.084 206.168V215.948C236.192 215.766 238.507 216.225 240.437 215.133C242.748 213.835 243.231 210.33 241.656 208.328C239.852 206.088 236.623 206.492 234.084 206.168Z" stroke="#2B3898" stroke-width="0.843141"/>
<path d="M265.617 202.33C272.453 195.849 283.202 194.068 291.943 197.424C301.747 200.929 308.916 211.066 308.386 221.534C308.283 221.819 308.318 221.954 308.283 222.429C307.571 231.141 302.336 239.299 294.586 243.137C285.513 247.94 273.493 246.642 265.897 239.679C265.775 239.544 265.617 239.457 265.49 239.331C265.374 239.228 265.287 239.085 265.161 238.99C262.594 237.091 260.916 234.219 259.492 231.402C258.02 228.498 257.261 225.277 257.134 222.049C257.078 221.234 257.105 220.45 257.105 219.659C257.462 213.511 260.054 207.307 264.73 203.216C265.058 202.963 265.34 202.662 265.617 202.33ZM281.015 206.903C273.419 207.845 267.777 216.051 269.378 223.521C270.444 229.21 275.297 234.163 281.094 234.931C288.765 236.023 296.287 229.163 296.338 221.534C296.311 221.155 296.338 220.775 296.338 220.419C296.464 212.64 288.765 205.606 281.015 206.903Z" fill="white"/>
<path d="M265.617 202.33C272.453 195.849 283.202 194.068 291.943 197.424C301.747 200.929 308.916 211.066 308.386 221.534C308.283 221.819 308.318 221.954 308.283 222.429C307.571 231.141 302.336 239.299 294.586 243.137C285.513 247.94 273.493 246.642 265.897 239.679C265.775 239.544 265.617 239.457 265.49 239.331C265.374 239.228 265.287 239.085 265.161 238.99C262.594 237.091 260.916 234.219 259.492 231.402C258.02 228.498 257.261 225.277 257.134 222.049C257.078 221.234 257.105 220.45 257.105 219.659C257.462 213.511 260.054 207.307 264.73 203.216C265.058 202.963 265.34 202.662 265.617 202.33ZM281.015 206.903C273.419 207.845 267.777 216.051 269.378 223.521C270.444 229.21 275.297 234.163 281.094 234.931C288.765 236.023 296.287 229.163 296.338 221.534C296.311 221.155 296.338 220.775 296.338 220.419C296.464 212.64 288.765 205.606 281.015 206.903Z" stroke="#2B3898" stroke-width="0.843141"/>
<path d="M31.8479 196.838C42.7487 196.838 53.675 196.838 64.5996 196.838C64.5996 200.47 64.5996 204.134 64.5996 207.766C60.7378 207.766 56.9003 207.742 53.0385 207.869C52.8124 219.912 52.8615 231.979 52.9879 244.055L53.0134 244.308C49.0506 244.688 45.1099 245.044 41.1487 245.4V245.17C41.2484 232.897 41.3006 220.593 41.1487 208.328C41.1487 208.225 41.1218 207.972 41.1218 207.845C37.0071 207.711 32.8892 207.766 28.7744 207.766C29.8379 204.134 30.7796 200.47 31.8479 196.838Z" fill="white"/>
<path d="M31.8479 196.838C42.7487 196.838 53.675 196.838 64.5996 196.838C64.5996 200.47 64.5996 204.134 64.5996 207.766C60.7378 207.766 56.9003 207.742 53.0385 207.869C52.8124 219.912 52.8615 231.979 52.9879 244.055L53.0134 244.308C49.0506 244.688 45.1099 245.044 41.1487 245.4V245.17C41.2484 232.897 41.3006 220.593 41.1487 208.328C41.1487 208.225 41.1218 207.972 41.1218 207.845C37.0071 207.711 32.8892 207.766 28.7744 207.766C29.8379 204.134 30.7796 200.47 31.8479 196.838Z" stroke="#2B3898" stroke-width="0.843141"/>
<path d="M84.3187 196.886C90.5968 196.941 96.8968 196.506 103.148 197.194C107.01 197.756 110.999 198.896 113.846 201.72C117.529 205.582 117.684 212.063 114.582 216.328C113.692 217.752 112.117 218.512 110.95 219.683C116.893 222.452 119.689 229.898 117.478 235.991C115.674 241.538 109.678 244.284 104.266 244.688C97.6345 245.091 90.9764 244.791 84.3422 244.838V244.561V239.196C84.4719 233.356 84.4451 227.509 84.3187 221.661C84.4212 218.282 84.3961 214.88 84.3187 211.501C84.4451 206.722 84.4719 201.926 84.3187 197.147M96.362 225.531C96.362 226.82 96.3381 228.118 96.313 229.416C96.3381 231.37 96.362 233.325 96.4142 235.287C97.6836 235.256 98.9545 235.287 100.223 235.256C102.819 235.461 106.348 234.061 106.044 230.967C106.021 230.587 106.021 230.175 106.021 229.796C106.119 228.601 105.509 227.485 104.674 226.646C103.148 225.625 101.267 225.499 99.4638 225.451L96.362 225.531ZM96.2874 206.112V206.421C96.313 207.813 96.2874 209.214 96.313 210.615C96.313 212.387 96.362 214.168 96.362 215.948C98.649 215.766 101.217 216.304 103.174 214.832C105.003 213.353 105.233 210.583 104.164 208.605C102.412 206.112 98.9545 206.444 96.2874 206.112Z" fill="white"/>
<path d="M84.3187 196.886C90.5968 196.941 96.8968 196.506 103.148 197.194C107.01 197.756 110.999 198.896 113.846 201.72C117.529 205.582 117.684 212.063 114.582 216.328C113.692 217.752 112.117 218.512 110.95 219.683C116.893 222.452 119.689 229.898 117.478 235.991C115.674 241.538 109.678 244.284 104.266 244.688C97.6345 245.091 90.9764 244.791 84.3422 244.838V244.561V239.196C84.4719 233.356 84.4451 227.509 84.3187 221.661C84.4212 218.282 84.3961 214.88 84.3187 211.501C84.4451 206.722 84.4719 201.926 84.3187 197.147M96.362 225.531C96.362 226.82 96.3381 228.118 96.313 229.416C96.3381 231.37 96.362 233.325 96.4142 235.287C97.6836 235.256 98.9545 235.287 100.223 235.256C102.819 235.461 106.348 234.061 106.044 230.967C106.021 230.587 106.021 230.175 106.021 229.796C106.119 228.601 105.509 227.485 104.674 226.646C103.148 225.625 101.267 225.499 99.4638 225.451L96.362 225.531ZM96.2874 206.112V206.421C96.313 207.813 96.2874 209.214 96.313 210.615C96.313 212.387 96.362 214.168 96.362 215.948C98.649 215.766 101.217 216.304 103.174 214.832C105.003 213.353 105.233 210.583 104.164 208.605C102.412 206.112 98.9545 206.444 96.2874 206.112Z" stroke="#2B3898" stroke-width="0.843141"/>
<path d="M137.324 196.917C142.482 196.791 147.614 196.815 152.773 196.838C157.703 196.759 162.76 197.803 167.001 200.367C171.345 202.884 174.729 206.88 176.809 211.43C178.308 215.283 178.997 219.509 178.59 223.647C178.028 228.324 176.074 232.818 172.999 236.379C168.984 241.079 163.065 244.071 156.915 244.711C150.384 245.068 143.828 244.791 137.272 244.862C137.299 228.886 137.197 212.894 137.324 196.917ZM149.342 206.951C149.315 207.536 149.315 208.122 149.292 208.708V211.35L149.315 211.525C149.368 213.709 149.393 215.924 149.368 218.108C149.368 219.809 149.368 221.487 149.342 223.188C149.368 225.143 149.393 227.081 149.368 229.036C149.393 230.84 149.393 232.613 149.393 234.417V234.702C151.249 234.702 153.103 234.725 154.957 234.543C160.472 233.784 165.098 229.313 166.392 223.956C167.868 217.934 164.639 211.271 159.126 208.557C156.152 206.927 152.647 206.903 149.342 206.951Z" fill="white"/>
<path d="M137.324 196.917C142.482 196.791 147.614 196.815 152.773 196.838C157.703 196.759 162.76 197.803 167.001 200.367C171.345 202.884 174.729 206.88 176.809 211.43C178.308 215.283 178.997 219.509 178.59 223.647C178.028 228.324 176.074 232.818 172.999 236.379C168.984 241.079 163.065 244.071 156.915 244.711C150.384 245.068 143.828 244.791 137.272 244.862C137.299 228.886 137.197 212.894 137.324 196.917ZM149.342 206.951C149.315 207.536 149.315 208.122 149.292 208.708V211.35L149.315 211.525C149.368 213.709 149.393 215.924 149.368 218.108C149.368 219.809 149.368 221.487 149.342 223.188C149.368 225.143 149.393 227.081 149.368 229.036C149.393 230.84 149.393 232.613 149.393 234.417V234.702C151.249 234.702 153.103 234.725 154.957 234.543C160.472 233.784 165.098 229.313 166.392 223.956C167.868 217.934 164.639 211.271 159.126 208.557C156.152 206.927 152.647 206.903 149.342 206.951Z" stroke="#2B3898" stroke-width="0.843141"/>
</svg>
