<svg width="220" height="220" viewBox="0 0 220 220" fill="none" xmlns="http://www.w3.org/2000/svg">
<path d="M151.235 109.119C162.396 103.187 161.564 92.8471 161.564 90.4139C161.564 76.9636 147.505 65 131.209 65C121.805 65 111.189 68.613 105.948 76.388C102.33 81.6429 100.564 87.9755 100.22 91.0531H121.974C122.427 89.1031 123.903 83.2971 131.655 83.1809C137.916 83.1809 140.876 87.2888 140.876 92.6401C140.876 100.629 132.675 101.189 129.609 101.189H123.748V117.043H129.609C132.675 117.043 140.876 117.615 140.876 125.603C140.876 130.969 137.916 135.062 131.655 135.062C123.903 134.951 122.427 129.136 121.974 127.199H100.22C100.564 130.272 101.13 136.658 104.893 142.136C110.351 150.231 121.401 154 131.191 154C148.153 154 162.396 142.251 162.396 127.533C162.396 125.002 162.396 115.056 151.235 109.119Z" fill="#231F20"/>
<path d="M57 80.1034L108.179 109.119L100.047 113.838L57 89.4228V80.1034Z" fill="#EE2426"/>
<path d="M57 95.0824L94.9753 116.605L86.8317 121.321L57 104.398V95.0824Z" fill="#EE2426"/>
<path d="M57 110.058L81.7662 124.152L73.6251 128.874L57 119.377V110.058Z" fill="#EE2426"/>
<path d="M57 125.038L68.5573 131.646L57 138.244V125.038Z" fill="#EE2426"/>
</svg>
