<svg width="320" height="320" viewBox="0 0 320 320" fill="none" xmlns="http://www.w3.org/2000/svg">
<path d="M116.684 136.637L113.253 146.784H120.108L116.684 136.637ZM123.032 155.337L121.466 150.723H111.895L110.334 155.337H105.922L114.376 131.268H119.16L127.614 155.337H123.032Z" fill="#231F20"/>
<path d="M130.467 130.79H135.014V135.172H130.467V130.79ZM129.961 162.705C129.482 162.705 129.006 162.705 128.466 162.64C127.924 162.574 127.311 162.47 126.53 162.264V158.674C127.784 158.805 127.959 158.87 128.604 158.87C129.927 158.87 130.637 158.157 130.637 156.972V137.689H134.911V157.785C134.911 160.807 133.117 162.705 129.961 162.705Z" fill="#231F20"/>
<path d="M150.439 155.337L150.124 153.031C149.281 154.763 147.306 155.783 145.071 155.783C141.302 155.783 138.956 153.231 138.956 149.462V137.689H143.2V148.515C143.2 150.585 144.017 151.878 146.256 151.878C147.242 151.878 147.924 151.501 148.434 150.996C149.449 150.045 149.722 148.449 149.722 147.018V137.689H153.966V155.337H150.439Z" fill="#231F20"/>
<path d="M168.328 155.337V144.511C168.328 142.444 167.653 141.18 165.407 141.18C163.912 141.18 162.926 142.135 162.352 143.419C161.741 144.811 161.78 146.644 161.78 148.143V155.337H157.531V137.689H161.094L161.404 139.958C162.455 138.093 164.559 137.246 166.599 137.246C170.361 137.246 172.57 139.889 172.57 143.56V155.337H168.328Z" fill="#231F20"/>
<path d="M183.235 155.576C179.674 155.576 177.905 153.541 177.905 150.144V141.184H174.681V137.684H177.905V133.205L182.143 132.154V137.684H186.598V141.184H182.143V149.772C182.143 151.134 182.756 151.708 184.117 151.708C185.002 151.708 185.716 151.671 186.869 151.536V155.102C185.677 155.411 184.492 155.576 183.235 155.576Z" fill="#231F20"/>
<path d="M200.581 147.498L196.109 147.836C194.821 147.936 193.564 148.722 193.564 150.144C193.564 151.501 194.745 152.36 196.072 152.36C198.721 152.36 200.581 150.927 200.581 148.311V147.498ZM204.154 155.608C202.321 155.608 201.298 154.455 201.164 153.134C200.346 154.557 198.307 155.777 195.799 155.777C191.596 155.777 189.419 153.134 189.419 150.243C189.419 146.889 192.03 144.952 195.386 144.712L200.581 144.343V143.256C200.581 141.586 200.009 140.47 197.595 140.47C195.631 140.47 194.473 141.352 194.37 142.978H190.263C190.508 139.003 193.667 137.246 197.595 137.246C200.62 137.246 203.203 138.197 204.219 140.845C204.66 141.965 204.726 143.212 204.726 144.409V150.957C204.726 151.773 204.997 152.08 205.714 152.08C205.987 152.08 206.258 152.011 206.258 152.011V155.135C205.546 155.438 205.167 155.608 204.154 155.608Z" fill="#231F20"/>
<path d="M229.96 155.337V144.373C229.96 142.2 229.375 140.946 227.243 140.946C224.827 140.946 223.777 143.485 223.777 145.693V155.337H219.567V144.373C219.567 142.2 218.991 140.946 216.849 140.946C214.444 140.946 213.353 143.485 213.353 145.693V155.337H209.143V137.689H212.677L213.015 140.029C214.003 138.396 215.695 137.246 218.044 137.246C220.514 137.246 222.216 138.331 223.098 140.133C224.152 138.3 226.051 137.246 228.428 137.246C232.197 137.246 234.17 139.754 234.17 143.419V155.337H229.96Z" fill="#231F20"/>
<path d="M248.019 141.658C247.447 141.049 246.565 140.639 245.343 140.639C244.055 140.639 243.003 141.184 242.39 141.993C241.781 142.783 241.508 143.587 241.471 144.745H249.112C249.073 143.426 248.708 142.406 248.019 141.658ZM253.322 147.836H241.508C241.471 149.19 241.942 150.482 242.796 151.301C243.407 151.878 244.254 152.387 245.408 152.387C246.631 152.387 247.372 152.153 247.992 151.539C248.361 151.164 248.671 150.688 248.839 150.045H252.918C252.815 151.095 252.098 152.489 251.423 153.302C249.918 155.071 247.72 155.777 245.474 155.777C243.07 155.777 241.301 154.933 239.91 153.605C238.143 151.915 237.195 149.434 237.195 146.55C237.195 143.729 238.04 141.217 239.741 139.481C241.067 138.13 242.966 137.246 245.371 137.246C247.992 137.246 250.362 138.3 251.827 140.509C253.115 142.438 253.425 144.439 253.349 146.647C253.349 146.647 253.322 147.459 253.322 147.836Z" fill="#231F20"/>
<path d="M267.343 155.337V144.511C267.343 142.444 266.664 141.18 264.422 141.18C262.936 141.18 261.948 142.135 261.365 143.419C260.757 144.811 260.794 146.644 260.794 148.143V155.337H256.547V137.689H260.116L260.415 139.958C261.469 138.093 263.575 137.246 265.614 137.246C269.383 137.246 271.59 139.889 271.59 143.56V155.337H267.343Z" fill="#231F20"/>
<path d="M282.247 155.576C278.685 155.576 276.921 153.541 276.921 150.144V141.184H273.696V137.684H276.921V133.205L281.168 132.154V137.684H285.612V141.184H281.168V149.772C281.168 151.134 281.778 151.708 283.138 151.708C284.013 151.708 284.727 151.671 285.885 151.536V155.102C284.7 155.411 283.508 155.576 282.247 155.576Z" fill="#231F20"/>
<path d="M115.63 174.404C114.31 174.404 113.386 175.015 112.777 175.796C111.898 176.949 111.657 178.548 111.657 180.072C111.657 181.604 111.898 183.228 112.777 184.385C113.386 185.162 114.31 185.777 115.63 185.777C118.954 185.777 119.636 182.624 119.636 180.072C119.636 177.525 118.954 174.404 115.63 174.404ZM120.012 188.933L119.739 186.995C118.685 188.632 116.719 189.346 114.778 189.346C113.018 189.346 111.554 188.736 110.469 187.847C108.363 186.113 107.344 183.467 107.344 180.137C107.344 176.678 108.398 173.991 110.504 172.261C111.592 171.379 113.018 170.839 114.812 170.839C117.056 170.839 118.685 171.586 119.433 172.507V164.423H123.673V188.933H120.012Z" fill="#231F20"/>
<path d="M137.902 175.252C137.327 174.638 136.445 174.235 135.221 174.235C133.933 174.235 132.883 174.78 132.272 175.589C131.663 176.368 131.383 177.184 131.353 178.341H138.99C138.953 177.015 138.581 176.003 137.902 175.252ZM143.2 181.432H131.383C131.353 182.787 131.824 184.078 132.676 184.898C133.285 185.466 134.132 185.984 135.287 185.984C136.509 185.984 137.261 185.741 137.871 185.132C138.243 184.76 138.549 184.285 138.719 183.644H142.791C142.694 184.691 141.977 186.086 141.302 186.899C139.803 188.66 137.598 189.376 135.359 189.376C132.948 189.376 131.181 188.529 129.792 187.202C128.025 185.507 127.074 183.031 127.074 180.141C127.074 177.321 127.922 174.808 129.624 173.077C130.947 171.721 132.844 170.831 135.26 170.831C137.871 170.831 140.244 171.889 141.705 174.097C142.997 176.03 143.303 178.032 143.234 180.24C143.234 180.24 143.2 181.056 143.2 181.432Z" fill="#231F20"/>
<path d="M164.353 178.341H158.82V185.029H164.222C166.252 185.029 168.463 184.28 168.463 181.839C168.463 179.262 166.665 178.341 164.353 178.341ZM164.222 168.634H158.82V174.676H164.325C166.289 174.676 167.953 173.963 167.953 171.689C167.953 169.378 166.185 168.634 164.222 168.634ZM170.464 187.337C168.601 188.763 166.355 188.97 164.053 188.97H154.476V164.864H164.053C165.99 164.864 167.991 165.134 169.617 166.187C171.385 167.342 172.398 169.343 172.398 171.418C172.398 173.384 171.488 175.593 169.448 176.508C171.722 177.564 172.917 179.696 172.917 181.942C172.917 184.085 172.2 186.014 170.464 187.337Z" fill="#231F20"/>
<path d="M186.559 181.088L182.088 181.432C180.79 181.533 179.531 182.318 179.531 183.74C179.531 185.098 180.723 185.948 182.04 185.948C184.699 185.948 186.559 184.515 186.559 181.905V181.088ZM190.133 189.204C188.3 189.204 187.276 188.051 187.142 186.731C186.325 188.153 184.286 189.376 181.778 189.376C177.568 189.376 175.398 186.731 175.398 183.839C175.398 180.474 178.009 178.545 181.364 178.308L186.559 177.932V176.847C186.559 175.183 185.987 174.066 183.573 174.066C181.61 174.066 180.452 174.946 180.349 176.575H176.242C176.486 172.599 179.635 170.842 183.573 170.842C186.598 170.842 189.182 171.793 190.197 174.432C190.638 175.555 190.704 176.809 190.704 178.005V184.553C190.704 185.369 190.976 185.672 191.683 185.672C191.966 185.672 192.227 185.607 192.227 185.607V188.726C191.525 189.035 191.148 189.204 190.133 189.204Z" fill="#231F20"/>
<path d="M204.763 175.048C201.777 175.048 200.216 177.192 200.216 180.036V188.933H195.93V171.283H199.538L199.905 173.926C200.723 171.896 202.827 171.038 204.894 171.038C205.339 171.038 205.78 171.076 206.231 171.142V175.217C205.753 175.117 205.243 175.048 204.763 175.048Z" fill="#231F20"/>
<path d="M222.254 186.527C221.031 188.053 218.888 189.307 216.212 189.307C213.525 189.307 211.285 188.023 210.066 186.527C208.739 184.859 208.13 182.654 208.13 180.072C208.13 177.498 208.739 175.286 210.066 173.626C211.285 172.13 213.525 170.839 216.212 170.839C218.888 170.839 221.031 172.093 222.254 173.626C223.07 174.673 223.539 176.067 223.614 177.459H219.432C219.405 176.816 219.198 176.271 218.926 175.828C218.419 175.048 217.496 174.507 216.212 174.507C215.054 174.507 214.209 174.976 213.628 175.589C212.611 176.715 212.443 178.41 212.443 180.072C212.443 181.735 212.611 183.398 213.628 184.526C214.209 185.135 215.054 185.639 216.212 185.639C217.496 185.639 218.419 185.098 218.926 184.319C219.198 183.878 219.405 183.334 219.432 182.69H223.614C223.539 184.078 223.07 185.47 222.254 186.527Z" fill="#231F20"/>
<path d="M236.988 175.252C236.407 174.638 235.532 174.235 234.312 174.235C233.013 174.235 231.962 174.78 231.349 175.589C230.739 176.368 230.477 177.184 230.44 178.341H238.077C238.04 177.015 237.664 176.003 236.988 175.252ZM242.287 181.432H230.477C230.44 182.787 230.908 184.078 231.763 184.898C232.365 185.466 233.219 185.984 234.377 185.984C235.596 185.984 236.341 185.741 236.951 185.132C237.326 184.76 237.626 184.285 237.805 183.644H241.873C241.77 184.691 241.058 186.086 240.382 186.899C238.897 188.66 236.689 189.376 234.443 189.376C232.027 189.376 230.271 188.529 228.878 187.202C227.112 185.507 226.154 183.031 226.154 180.141C226.154 177.321 227.008 174.808 228.699 173.077C230.026 171.721 231.931 170.831 234.34 170.831C236.951 170.831 239.328 171.889 240.796 174.097C242.08 176.03 242.383 178.032 242.318 180.24C242.318 180.24 242.287 181.056 242.287 181.432Z" fill="#231F20"/>
<path d="M250.332 189.139C247.447 189.139 245.511 187.75 245.511 184.385V164.386H249.787V183.671C249.787 184.694 250.031 185.369 251.489 185.369C251.854 185.369 251.967 185.336 252.202 185.336V188.905C251.358 189.073 251.179 189.139 250.332 189.139Z" fill="#231F20"/>
<path d="M265.575 175.665C265.004 175.052 264.053 174.535 262.899 174.535C261.742 174.535 260.794 175.052 260.208 175.665C259.195 176.781 258.961 178.442 258.961 180.109C258.961 181.772 259.195 183.437 260.208 184.553C260.794 185.162 261.742 185.672 262.899 185.672C264.053 185.672 265.004 185.162 265.575 184.553C266.599 183.437 266.836 181.772 266.836 180.109C266.836 178.442 266.599 176.781 265.575 175.665ZM269.073 186.627C267.849 188.115 265.575 189.376 262.899 189.376C260.208 189.376 257.934 188.115 256.722 186.627C255.389 184.956 254.648 183.095 254.648 180.109C254.648 177.119 255.389 175.252 256.722 173.587C257.934 172.093 260.208 170.842 262.899 170.842C265.575 170.842 267.849 172.093 269.073 173.587C270.396 175.252 271.149 177.119 271.149 180.109C271.149 183.095 270.396 184.956 269.073 186.627Z" fill="#231F20"/>
<path d="M285.34 188.933V178.107C285.34 176.034 284.661 174.769 282.415 174.769C280.924 174.769 279.945 175.731 279.363 177.015C278.753 178.41 278.788 180.243 278.788 181.735V188.933H274.539V171.283H278.113L278.411 173.559C279.466 171.689 281.571 170.839 283.611 170.839C287.38 170.839 289.587 173.485 289.587 177.156V188.933H285.34Z" fill="#231F20"/>
<path d="M304.323 181.088L299.84 181.432C298.551 181.533 297.295 182.318 297.295 183.74C297.295 185.098 298.476 185.948 299.812 185.948C302.451 185.948 304.323 184.515 304.323 181.905V181.088ZM307.885 189.204C306.052 189.204 305.035 188.051 304.895 186.731C304.089 188.153 302.049 189.376 299.537 189.376C295.327 189.376 293.156 186.731 293.156 183.839C293.156 180.474 295.772 178.545 299.123 178.308L304.323 177.932V176.847C304.323 175.183 303.751 174.066 301.335 174.066C299.369 174.066 298.214 174.946 298.11 176.575H294.004C294.238 172.599 297.398 170.842 301.335 170.842C304.36 170.842 306.934 171.793 307.961 174.432C308.402 175.555 308.467 176.809 308.467 178.005V184.553C308.467 185.369 308.739 185.672 309.452 185.672C309.718 185.672 310 185.607 310 185.607V188.726C309.277 189.035 308.908 189.204 307.885 189.204Z" fill="#231F20"/>
<path d="M77.3372 119.169C85.3477 119.169 91.8341 125.659 91.8341 133.666L91.8313 186.51C91.8341 194.516 85.3477 201 77.3372 201H24.4968C16.4905 201.01 10.0041 194.516 10 186.51L10.0041 133.666C10.0041 125.659 16.4905 119.169 24.4968 119.169H77.3372Z" fill="#D41938"/>
<path d="M50.9137 186.866L72.6862 165.096L50.9137 143.316L29.1407 165.096L50.9137 186.866ZM73.0072 165.096C73.0072 165.096 70.5682 169.461 63.0512 176.995C55.4197 184.615 50.9137 187.183 50.9137 187.183C50.9137 187.183 46.5453 184.749 39.0253 177.215C31.3938 169.591 28.8307 165.096 28.8307 165.096C28.8307 165.096 31.2698 160.727 38.7938 153.203C46.4211 145.583 50.9137 143.017 50.9137 143.017C50.9137 143.017 55.293 145.442 62.8099 152.969C70.4373 160.6 73.0072 165.096 73.0072 165.096ZM50.9137 186.866L72.6862 165.096L50.9137 143.316L29.1407 165.096L50.9137 186.866ZM73.0072 165.096C73.0072 165.096 70.5682 169.461 63.0512 176.995C55.4197 184.615 50.9137 187.183 50.9137 187.183C50.9137 187.183 46.5453 184.749 39.0253 177.215C31.3938 169.591 28.8307 165.096 28.8307 165.096C28.8307 165.096 31.2698 160.727 38.7938 153.203C46.4211 145.583 50.9137 143.017 50.9137 143.017C50.9137 143.017 55.293 145.442 62.8099 152.969C70.4373 160.6 73.0072 165.096 73.0072 165.096ZM70.8881 164.789H68.8967V162.787L70.8881 164.789ZM66.6852 160.578V164.789H64.4803V158.371L66.6852 160.578ZM62.2755 156.173V164.789H60.0678V153.964L62.2755 156.173ZM57.8588 151.756V164.789H55.6539V149.549L57.8588 151.756ZM53.4463 147.34V164.789H51.2375V145.142L53.4463 147.34ZM30.957 165.42H32.9579V167.422L30.957 165.42ZM35.1627 169.622V165.42H37.3717V171.831L35.1627 169.622ZM39.5696 174.039V165.42H41.7814V176.247L39.5696 174.039ZM43.9862 178.456V165.42H46.1911V180.653L43.9862 178.456ZM48.3889 182.861V165.42H50.6008V185.06L48.3889 182.861ZM51.2375 165.42H55.6539V170.914H51.2375V165.42ZM70.8881 165.42L55.6539 180.665L51.2375 185.06V173.116H55.6539V180.665L57.8697 178.435V173.116H63.1888L65.3965 170.908H57.8697V165.42H70.8881ZM30.957 164.789L43.9862 151.745V157.087H38.6601L36.4553 159.294H43.9862V164.789H30.957ZM46.1911 149.538L50.6008 145.142V157.087H46.1911V149.538ZM50.6008 164.789H46.1911V159.297H50.6008V164.789ZM74.1167 165.107C74.1167 164.602 74.5164 164.216 75.0124 164.216C75.5045 164.216 75.9109 164.602 75.9109 165.107C75.9109 165.598 75.5045 166.002 75.0124 166.002C74.5164 166.002 74.1167 165.598 74.1167 165.107ZM25.923 165.107C25.923 164.602 26.3337 164.216 26.8229 164.216C27.319 164.216 27.7255 164.602 27.7255 165.107C27.7255 165.598 27.319 166.002 26.8229 166.002C26.3337 166.002 25.923 165.598 25.923 165.107ZM50.0247 189.197C50.0247 188.708 50.4286 188.304 50.9246 188.304C51.4206 188.304 51.8133 188.708 51.8133 189.197C51.8133 189.704 51.4206 190.1 50.9246 190.1C50.4286 190.1 50.0247 189.704 50.0247 189.197ZM45.3808 133.429C45.1121 133.346 44.8433 133.302 44.5581 133.302C43.3179 133.302 42.3326 134.052 42.3326 134.965C42.3326 135.396 42.553 135.792 42.9044 136.095L41.9288 137.073C41.3087 136.522 40.9408 135.782 40.9408 134.972C40.9408 133.28 42.5558 131.92 44.5581 131.92C45.068 131.92 45.5642 132.002 46.0147 132.181C46.6666 131.428 47.7345 130.941 48.9223 130.941C49.6596 130.941 50.3415 131.12 50.9137 131.444C51.4922 131.12 52.1854 130.941 52.9118 130.941C54.1038 130.941 55.1646 131.428 55.8165 132.181C56.267 132.002 56.7606 131.92 57.2869 131.92C59.2783 131.92 60.9014 133.28 60.9014 134.972C60.9014 135.782 60.5088 136.522 59.9024 137.073L58.9308 136.095C59.2893 135.792 59.5097 135.396 59.5097 134.965C59.5097 134.052 58.5135 133.302 57.2869 133.302C56.9906 133.302 56.7218 133.346 56.46 133.429C56.4988 133.611 56.515 133.798 56.515 133.996C56.515 134.597 56.3125 135.172 55.9502 135.65L54.9554 134.648C55.0793 134.437 55.1304 134.221 55.1304 133.996C55.1304 133.059 54.1381 132.323 52.9118 132.323C52.4405 132.323 51.9995 132.439 51.6369 132.622V134.63H50.2494V132.66C49.8843 132.443 49.4183 132.323 48.9128 132.323C47.6957 132.323 46.7009 133.059 46.7009 133.996C46.7009 134.221 46.7696 134.437 46.8801 134.648L45.8768 135.65C45.5159 135.172 45.3187 134.597 45.3187 133.996C45.3187 133.798 45.3395 133.611 45.3808 133.429ZM44.1405 140.743L44.9191 141.903C46.6666 141.093 48.7501 140.553 50.9137 140.553C53.1087 140.553 55.1759 141.093 56.926 141.903L57.7004 140.743C55.7202 139.784 53.412 139.23 50.9384 139.23C48.4718 139.23 46.1385 139.774 44.1405 140.743ZM49.9901 129.053C49.9901 128.534 50.4036 128.109 50.9275 128.109C51.4439 128.109 51.8687 128.534 51.8687 129.053C51.8687 129.567 51.4439 129.99 50.9275 129.99C50.4036 129.99 49.9901 129.567 49.9901 129.053ZM44.1543 139.605C43.8029 139.568 43.5177 139.313 43.3385 138.938C43.5866 138.61 43.9242 138.42 44.2714 138.458C44.6201 138.5 44.9122 138.751 45.0914 139.127C44.8406 139.453 44.4988 139.63 44.1543 139.605ZM43.5039 137.9C43.3661 137.587 43.0381 137.386 42.6178 137.331C42.3877 137.676 42.3119 138.056 42.4593 138.373C42.6013 138.686 42.921 138.886 43.3385 138.938C43.5728 138.599 43.6513 138.227 43.5039 137.9ZM47.6932 138.582C47.3556 138.472 47.1309 138.166 47.0275 137.762C47.3419 137.496 47.7137 137.386 48.0446 137.483C48.3751 137.593 48.6055 137.9 48.6951 138.304C48.385 138.571 48.0238 138.686 47.6932 138.582ZM46.7587 138.789C47.0109 138.544 47.1006 138.166 47.0275 137.762C46.6349 137.645 46.249 137.694 45.9911 137.924C45.7254 138.158 45.6468 138.534 45.7226 138.938C46.111 139.062 46.4941 139.003 46.7587 138.789ZM47.4036 136.788C47.3348 136.439 47.0621 136.173 46.6666 136.04C46.3633 136.325 46.2144 136.684 46.2874 137.023C46.359 137.359 46.6388 137.625 47.0342 137.762C47.3306 137.477 47.4794 137.125 47.4036 136.788ZM57.6453 139.605C58.0034 139.568 58.286 139.313 58.4652 138.938C58.2172 138.61 57.8725 138.42 57.5254 138.458C57.1807 138.5 56.8943 138.751 56.7218 139.127C56.974 139.453 57.3077 139.63 57.6453 139.605ZM58.2969 137.9C58.4486 137.587 58.7724 137.386 59.1788 137.331C59.4159 137.676 59.4889 138.056 59.3443 138.373C59.1997 138.686 58.8688 138.886 58.4652 138.938C58.2348 138.599 58.1523 138.227 58.2969 137.9ZM54.1148 138.582C54.4524 138.472 54.6824 138.166 54.7762 137.762C54.4619 137.496 54.0968 137.386 53.7701 137.483C53.4216 137.593 53.2011 137.9 53.0977 138.304C53.4216 138.571 53.7867 138.686 54.1148 138.582ZM55.0475 138.789C54.79 138.544 54.7032 138.166 54.7762 137.762C55.1784 137.645 55.5576 137.694 55.8165 137.924C56.0674 138.158 56.157 138.534 56.0783 138.938C55.6885 139.062 55.3068 139.003 55.0475 138.789ZM54.404 136.788C54.4757 136.439 54.7554 136.173 55.148 136.04C55.4405 136.325 55.5823 136.684 55.5135 137.023C55.4405 137.359 55.1689 137.625 54.7762 137.762C54.4799 137.477 54.3215 137.125 54.404 136.788ZM50.4699 138.29C50.7729 138.121 50.9275 137.762 50.9412 137.359C50.58 137.163 50.1969 137.125 49.9005 137.303C49.5975 137.477 49.4391 137.822 49.4183 138.241C49.7834 138.428 50.1693 138.472 50.4699 138.29ZM51.4206 138.29C51.1204 138.121 50.9588 137.762 50.9412 137.359C51.3106 137.163 51.6852 137.125 51.9995 137.303C52.2959 137.477 52.4571 137.822 52.4747 138.241C52.1029 138.428 51.717 138.472 51.4206 138.29ZM50.3732 136.481C50.3732 136.129 50.5937 135.824 50.9412 135.603C51.2968 135.824 51.5198 136.129 51.5198 136.481C51.5198 136.83 51.2968 137.136 50.9412 137.359C50.5937 137.136 50.3732 136.83 50.3732 136.481Z" fill="white"/>
</svg>
