<svg width="320" height="320" viewBox="0 0 320 320" fill="none" xmlns="http://www.w3.org/2000/svg">
<path d="M186.452 148.844C184.529 150.673 183.54 153.265 183.128 155.842C182.607 159.159 183.167 162.544 184.132 165.729C183.043 166.048 181.991 166.492 180.909 166.834C180.847 164.273 180.909 161.719 180.948 159.166C179.103 159.135 177.259 159.112 175.413 159.088C174.588 160.887 173.413 162.591 171.747 163.704C170.953 164.28 170.003 164.67 169.014 164.639C168.766 163.3 169.217 161.836 170.314 160.996C172.891 158.878 176.339 158.341 179.562 158.115C179.632 156.146 179.632 154.168 179.632 152.191C177.741 152.347 175.841 152.534 174.004 153.001C171.404 153.701 168.866 154.807 166.772 156.527C165.068 157.913 163.674 159.711 162.904 161.774C162.296 163.502 162.413 165.433 163.059 167.13C163.721 168.788 165.355 169.987 167.13 170.166C169.754 170.453 172.385 169.535 174.534 168.056C174.526 168.656 174.518 169.255 174.51 169.862C172.626 170.555 170.86 171.645 169.544 173.179C167.987 174.961 167.092 177.429 167.551 179.803C167.847 181.515 168.999 183.042 170.556 183.812C171.941 184.513 173.545 184.63 175.063 184.458C176.806 184.24 178.426 183.205 179.329 181.687C180.769 179.398 180.839 176.573 180.715 173.949C182.894 172.54 184.98 170.984 187.168 169.582C188.226 171.224 190.118 172.096 191.995 172.407C194.828 172.852 197.77 172.649 200.511 171.777C201.468 171.528 202.363 171.022 203.305 170.766C205.633 171.824 208.404 171.676 210.701 170.617C215.153 167.987 219.59 165.332 224.036 162.685C225.016 162.108 226.06 161.423 227.25 161.501C228.551 161.595 229.29 163.129 228.893 164.289C228.706 164.989 228.091 165.41 227.546 165.822C225.842 167.068 223.81 167.737 221.832 168.406C221.817 170.376 221.801 172.354 221.786 174.33C223.054 174.23 224.324 174.05 225.561 173.731C228.551 172.991 231.298 171.233 233.144 168.749C234.739 166.608 235.744 163.922 235.479 161.222C235.354 159.509 234.552 157.804 233.128 156.792C231.548 155.671 229.5 155.43 227.617 155.64C224.518 156.076 221.786 157.703 219.1 159.19C215.683 161.144 212.46 163.502 208.731 164.849C209.424 162.965 209.953 160.863 209.292 158.894C208.724 156.979 207.011 155.585 205.119 155.111C203.726 154.753 202.247 154.822 200.876 155.227C198.549 155.982 196.743 158.092 196.307 160.497C195.824 162.708 196.284 164.965 196.837 167.114C195.147 167.714 192.882 167.659 191.784 166.025C192.578 164.74 193.442 163.494 194.112 162.132C195.552 159.384 196.447 156.27 196.182 153.149C196.042 151.32 195.147 149.49 193.606 148.447C192.384 147.669 190.928 147.155 189.472 147.295C188.312 147.388 187.293 148.073 186.452 148.844ZM102.963 149.692C102.823 152.067 102.504 154.433 102.48 156.823C101.958 156.847 101.437 156.847 100.915 156.816C100.775 157.065 100.573 157.305 100.612 157.61C100.589 159.065 100.596 160.513 100.565 161.969C100.939 162.179 101.375 162.163 101.787 162.195C101.772 165.021 101.647 167.846 101.725 170.68C103.407 170.656 105.088 170.672 106.769 170.703C106.824 168.376 106.894 166.048 106.996 163.728C107.439 163.76 108.015 163.673 108.311 164.094C109.253 165.363 109.447 167.036 110.475 168.258C113.316 172.423 119.816 173.365 123.709 170.142C123.747 168.149 123.779 166.149 123.779 164.156C122.191 165.121 120.478 166.18 118.547 166.056C117.294 166.056 116.329 165.145 115.472 164.343C116.492 163.697 117.629 163.246 118.641 162.576C120.672 161.276 122.58 159.415 123.101 156.971C123.631 154.706 122.346 152.238 120.283 151.218C118.322 150.183 115.877 150.541 114.024 151.654C111.767 153.047 110.086 155.22 108.934 157.578C108.381 157.586 107.821 157.578 107.267 157.57C107.758 153.514 108.054 149.436 108.505 145.38C106.793 145.365 105.08 145.38 103.367 145.341C103.149 146.781 103.071 148.237 102.963 149.692ZM208.746 152.199C209.883 153.686 211.059 155.142 212.172 156.652C213.122 156.317 213.931 155.71 214.788 155.204C217.769 153.343 220.766 151.498 223.755 149.661C222.876 147.956 221.864 146.314 220.914 144.64C216.842 147.131 212.802 149.677 208.746 152.199ZM63.1139 140.343C59.6573 140.927 56.3957 142.726 54.1383 145.427C49.8334 150.635 49.3118 158.372 52.2232 164.367C53.5544 167.091 55.7652 169.45 58.5754 170.656C61.2844 171.855 64.3983 171.84 67.2397 171.162C69.8318 170.539 72.2447 169.341 74.5105 167.971C75.1721 168.235 75.7949 168.663 76.4875 168.889C78.6051 169.699 81.049 169.808 83.1514 168.874C85.8057 167.76 88.0088 165.308 88.3668 162.389C89.4098 162.413 90.4375 162.825 91.1535 163.588C91.3873 165.69 91.208 167.799 91.2314 169.901C92.7807 169.909 94.3375 169.924 95.8867 169.963C95.9336 167.885 95.926 165.807 96.1123 163.728C96.0971 163.362 96.4082 163.121 96.6338 162.88C97.2725 162.272 98.1361 162 98.9928 161.883C99.0162 160.085 99.0783 158.295 98.9928 156.504C97.4518 156.434 95.8088 157.025 94.9369 158.357C93.6057 156.317 91.068 155.531 88.7482 155.422C88.0322 153.896 87.059 152.417 85.6264 151.467C84.3736 150.604 82.6762 150.502 81.2828 151.063C78.6906 152.137 77.2738 155.103 77.5305 157.828C77.1725 157.267 76.5889 156.839 75.9115 156.769C74.4479 156.605 73.0082 157.399 72.1281 158.528C71.2018 159.742 71.0775 161.346 71.2328 162.817C69.9174 163.728 68.5397 164.585 67.0138 165.098C65.3946 165.674 63.581 165.783 61.9386 165.254C60.0002 164.592 58.4898 163.02 57.5557 161.229C56.1 158.349 55.843 154.869 56.9329 151.825C57.7113 149.545 59.3927 147.575 61.6115 146.595C64.5382 145.216 67.9091 145.559 70.9686 146.259C70.9762 144.267 71.0541 142.274 70.9996 140.281C68.3761 140.009 65.714 139.814 63.1139 140.343ZM20.5558 140.826C18.5707 142.352 17.1381 144.555 16.5858 146.999C15.6671 150.627 16.679 154.418 18.1425 157.757C18.3372 158.31 18.812 158.824 18.6252 159.446C18.2283 161.946 18.4696 164.654 19.8941 166.811C21.342 169.021 23.7943 170.453 26.3708 170.913C30.4112 171.699 34.6536 170.594 38.0632 168.376C39.1062 169.216 40.2973 169.956 41.6441 170.174C43.7225 170.563 45.8944 170.08 47.7394 169.092C48.0354 167.371 47.8717 165.619 47.9495 163.884C46.4393 164.849 44.5012 165.441 42.7651 164.716C43.1545 163.315 43.8859 162.047 44.3609 160.676C45.7076 157.143 46.6339 153.328 46.1514 149.529C45.9102 147.847 45.1626 146.143 43.7381 145.147C42.4149 144.29 40.6011 144.477 39.3321 145.365C37.4638 146.633 36.304 148.688 35.611 150.782C34.3345 154.776 34.459 159.042 35.0117 163.144C32.863 164.234 30.4732 165.324 27.9979 164.849C26.8146 164.693 25.865 163.876 25.1177 162.988C26.8693 162.926 28.7141 162.934 30.302 162.086C31.633 161.432 32.6685 160.186 32.941 158.715C33.556 155.788 31.633 152.503 28.6905 151.794C26.6823 151.234 24.6739 152.191 22.9845 153.203C22.7668 151.919 22.5643 150.588 22.9925 149.327C23.5997 147.139 25.5145 145.419 27.7175 144.936C29.8507 144.399 32.0615 144.944 34.0541 145.761C34.0775 143.511 34.1399 141.262 34.0775 139.012C29.6559 137.307 24.3156 137.852 20.5558 140.826ZM133.642 132.465C133.969 138.335 134.389 144.196 134.731 150.066C134.833 151.553 135.004 153.047 134.926 154.542C132.559 157.018 131.003 160.147 129.967 163.386C128.621 167.737 128.052 172.361 128.605 176.892C128.932 179.242 129.57 181.687 131.205 183.485C132.241 184.653 133.914 185.268 135.447 184.879C137.16 184.458 138.468 183.111 139.278 181.593C140.632 179.04 141.084 176.129 141.325 173.28C141.582 168.889 141.418 164.475 140.819 160.116C140.695 159.423 141.13 158.458 141.955 158.582C143.645 158.808 144.929 160.443 144.96 162.108C145.054 165.301 145.233 168.492 145.311 171.684C147.187 171.707 149.071 171.738 150.954 171.722C150.985 168.819 150.939 165.915 151.134 163.028C151.165 162.171 151.655 161.307 152.457 160.956C153.165 160.669 154.068 160.809 154.605 161.377C155.112 161.907 155.352 162.654 155.352 163.386C155.376 165.729 155.283 168.071 155.298 170.415C157.275 170.43 159.261 170.438 161.238 170.453C161.261 168.22 161.293 165.985 161.3 163.751C161.144 161.252 160.623 158.606 158.941 156.66C157.836 155.336 156.1 154.573 154.38 154.675C152.472 154.675 150.705 155.624 149.335 156.893C148.658 155.367 147.599 153.974 146.167 153.079C144.462 151.973 142.368 151.67 140.375 151.802C139.939 145.341 139.55 138.872 139.076 132.411C137.262 132.458 135.447 132.489 133.642 132.465ZM10 75H10.1089C15.7527 76.6816 21.4432 78.2385 27.1103 79.8727C119.466 106.177 211.814 132.473 304.169 158.769C306.108 159.353 308.085 159.804 310 160.49C242.049 179.468 174.089 198.408 106.139 217.371C74.7361 226.113 43.349 234.925 11.9306 243.628C11.3078 243.807 10.6695 243.932 10.0856 244.22H10V75Z" fill="#2C8D44"/>
<path d="M40.1573 152.752C40.3051 152.3 40.8267 152.331 41.208 152.246C41.7686 154.005 41.5898 155.928 41.0135 157.664C40.819 158.208 40.5697 158.746 40.1573 159.159C39.5967 159.283 39.3864 158.575 39.3166 158.155C39.0517 156.333 39.3475 154.41 40.1573 152.752Z" fill="#2C8D44"/>
<path d="M188.834 154.807C189.029 154.27 189.48 153.881 189.893 153.507C190.671 154.807 190.516 156.403 190.188 157.819C190.04 158.645 189.659 159.407 189.254 160.131C189.013 160.163 188.771 160.194 188.53 160.225C187.884 158.466 188.196 156.52 188.834 154.807Z" fill="#2C8D44"/>
<path d="M82.5519 155.617C83.0658 155.181 83.8984 155.406 84.1322 156.029C84.2178 156.465 83.984 156.878 83.8521 157.274C83.3846 157.228 82.8162 157.376 82.4353 157.025C82.1394 156.613 82.0768 155.936 82.5519 155.617Z" fill="#2C8D44"/>
<path d="M114.484 159.353C114.289 157.719 115.512 155.655 117.364 155.944C117.488 157.578 116.282 159.478 114.484 159.353Z" fill="#2C8D44"/>
<path d="M25.5846 158.45C24.7283 157.601 25.7791 155.975 26.9002 156.317C27.5619 156.434 27.8111 157.143 28.091 157.664C27.8423 158.084 27.593 158.504 27.3206 158.902C26.729 158.871 25.9817 159.018 25.5846 158.45Z" fill="#2C8D44"/>
<path d="M77.7643 158.31C78.4105 159.804 79.757 160.918 81.2904 161.416C81.8435 161.618 82.5982 161.657 82.8244 162.304C83.0348 162.732 82.7541 163.16 82.4816 163.479C81.509 164.678 79.3059 164.693 78.4803 163.315C77.6863 161.782 77.8809 159.991 77.7643 158.31Z" fill="#2C8D44"/>
<path d="M202.83 160.015C203.539 159.719 204.239 160.404 204.411 161.058C204.668 162.039 204.668 163.323 203.757 163.978C203.383 164.335 202.83 164.125 202.418 163.961C201.569 162.81 201.491 160.825 202.83 160.015Z" fill="#2C8D44"/>
<path d="M135.027 164.568C135.23 164.529 135.432 164.491 135.642 164.452C136.203 166.009 136.21 167.698 136.187 169.332C136.125 171.653 136.001 174.035 135.098 176.214C134.879 176.183 134.669 176.152 134.459 176.129C133.984 174.323 134.007 172.447 134.047 170.594C134.109 168.554 134.334 166.499 135.027 164.568Z" fill="#2C8D44"/>
<path d="M173.14 176.378C173.514 175.654 174.698 175.615 175.087 176.347C175.514 176.97 175.242 177.772 174.962 178.402C174.463 178.713 173.833 178.62 173.281 178.542C172.969 177.88 172.65 177.032 173.14 176.378Z" fill="#2C8D44"/>
<path d="M135.027 164.568C134.334 166.499 134.109 168.554 134.046 170.594C134.007 172.439 133.984 174.323 134.459 176.129C134.669 176.152 134.887 176.183 135.098 176.214C135.992 174.042 136.125 171.66 136.187 169.332C136.21 167.691 136.21 166.009 135.642 164.452C135.44 164.491 135.229 164.53 135.027 164.568ZM133.642 132.465C135.447 132.489 137.262 132.45 139.067 132.403C139.542 138.864 139.932 145.325 140.368 151.794C142.36 151.662 144.454 151.966 146.159 153.071C147.592 153.966 148.642 155.36 149.327 156.885C150.698 155.617 152.465 154.659 154.372 154.667C156.1 154.566 157.828 155.329 158.934 156.652C160.615 158.598 161.144 161.245 161.293 163.743C161.284 165.978 161.246 168.212 161.23 170.446C159.253 170.43 157.268 170.423 155.29 170.407C155.275 168.064 155.368 165.721 155.345 163.378C155.337 162.654 155.103 161.907 154.598 161.37C154.06 160.801 153.157 160.661 152.449 160.949C151.655 161.307 151.165 162.171 151.126 163.02C150.931 165.915 150.978 168.819 150.947 171.715C149.063 171.731 147.187 171.699 145.303 171.676C145.225 168.485 145.046 165.293 144.953 162.101C144.921 160.427 143.637 158.793 141.947 158.575C141.13 158.458 140.687 159.423 140.811 160.108C141.411 164.468 141.574 168.881 141.317 173.272C141.076 176.121 140.624 179.033 139.27 181.586C138.46 183.104 137.153 184.45 135.44 184.871C133.906 185.26 132.232 184.645 131.197 183.478C129.562 181.679 128.924 179.235 128.597 176.884C128.044 172.354 128.613 167.721 129.96 163.378C130.995 160.139 132.552 157.01 134.918 154.535C134.996 153.04 134.825 151.553 134.724 150.059C134.389 144.205 133.969 138.335 133.642 132.465Z" fill="white"/>
<path d="M25.5846 158.45C25.9739 159.018 26.729 158.878 27.3206 158.902C27.593 158.497 27.8423 158.084 28.091 157.664C27.8111 157.143 27.5696 156.442 26.9002 156.317C25.7791 155.975 24.7358 157.601 25.5846 158.45ZM40.1573 152.752C39.3474 154.41 39.0519 156.325 39.3166 158.155C39.3863 158.575 39.5967 159.283 40.1573 159.159C40.5621 158.746 40.819 158.201 41.0135 157.664C41.5898 155.936 41.7686 154.005 41.208 152.246C40.8345 152.331 40.3051 152.3 40.1573 152.752ZM20.5558 140.826C24.3156 137.86 29.6559 137.307 34.0699 139.012C34.1241 141.262 34.0621 143.511 34.0463 145.761C32.0615 144.944 29.8426 144.399 27.7097 144.936C25.5067 145.419 23.5919 147.139 22.9845 149.327C22.5565 150.588 22.7588 151.927 22.9767 153.203C24.6658 152.199 26.6742 151.234 28.6827 151.794C31.633 152.503 33.556 155.788 32.9331 158.715C32.6531 160.186 31.6254 161.432 30.2941 162.086C28.7063 162.933 26.8613 162.926 25.1096 162.988C25.8491 163.876 26.799 164.693 27.9901 164.849C30.4654 165.316 32.8477 164.234 35.0039 163.144C34.4434 159.042 34.3267 154.768 35.6034 150.782C36.2962 148.68 37.4562 146.625 39.3243 145.365C40.5933 144.485 42.4067 144.29 43.7303 145.147C45.1549 146.143 45.9021 147.855 46.1437 149.529C46.6264 153.328 45.6998 157.134 44.3531 160.676C43.8782 162.047 43.1464 163.315 42.7574 164.716C44.4854 165.433 46.4314 164.849 47.9417 163.884C47.8639 165.619 48.0273 167.371 47.7314 169.092C45.8866 170.08 43.715 170.571 41.6363 170.174C40.2897 169.956 39.0986 169.224 38.0554 168.376C34.6458 170.602 30.4032 171.699 26.363 170.913C23.7865 170.446 21.3342 169.021 19.8863 166.811C18.4617 164.654 18.2203 161.946 18.6174 159.447C18.812 158.824 18.3372 158.31 18.1347 157.757C16.6714 154.417 15.6518 150.627 16.5778 146.999C17.1381 144.555 18.5707 142.352 20.5558 140.826Z" fill="white"/>
<path d="M77.7643 158.31C77.8732 159.984 77.6863 161.774 78.4885 163.315C79.3059 164.693 81.509 164.678 82.4893 163.479C82.7617 163.16 83.0424 162.732 82.832 162.304C82.5982 161.657 81.8512 161.611 81.2986 161.416C79.757 160.918 78.4105 159.812 77.7643 158.31ZM82.5519 155.617C82.0768 155.936 82.1395 156.613 82.4353 157.034C82.8162 157.383 83.3846 157.236 83.8521 157.282C83.984 156.878 84.2178 156.465 84.1322 156.037C83.8984 155.406 83.0658 155.173 82.5519 155.617ZM63.1139 140.343C65.714 139.822 68.3841 140.009 70.9996 140.281C71.0541 142.274 70.9762 144.267 70.9686 146.259C67.9091 145.567 64.5382 145.216 61.6115 146.595C59.3927 147.575 57.7113 149.545 56.9329 151.825C55.843 154.869 56.1 158.349 57.5557 161.229C58.4898 163.012 60.0002 164.592 61.9386 165.254C63.581 165.783 65.3946 165.667 67.0138 165.098C68.5397 164.585 69.9174 163.728 71.2328 162.817C71.0775 161.354 71.2018 159.742 72.1281 158.528C73.0082 157.399 74.4479 156.605 75.9115 156.769C76.5889 156.831 77.1725 157.259 77.5305 157.828C77.2738 155.111 78.6906 152.137 81.2828 151.063C82.6838 150.502 84.3736 150.604 85.6264 151.467C87.059 152.409 88.0322 153.888 88.7482 155.422C91.068 155.531 93.6057 156.309 94.9369 158.357C95.8012 157.025 97.4518 156.442 98.9928 156.504C99.0783 158.295 99.0162 160.093 98.9928 161.883C98.1361 162 97.2725 162.272 96.6338 162.88C96.4006 163.113 96.0889 163.362 96.1123 163.728C95.926 165.799 95.9336 167.877 95.8867 169.964C94.3375 169.924 92.7807 169.909 91.2314 169.901C91.208 167.799 91.3873 165.682 91.1535 163.588C90.4375 162.817 89.4098 162.404 88.3668 162.389C88.0088 165.308 85.8133 167.76 83.1514 168.874C81.049 169.808 78.6051 169.699 76.4875 168.889C75.7949 168.663 75.1721 168.235 74.5105 167.971C72.2447 169.341 69.8318 170.548 67.2397 171.162C64.3904 171.84 61.2844 171.855 58.5754 170.656C55.7652 169.45 53.5544 167.091 52.2232 164.367C49.3118 158.372 49.8334 150.635 54.1383 145.427C56.3881 142.718 59.6497 140.927 63.1139 140.343Z" fill="white"/>
<path d="M208.746 152.199C212.802 149.677 216.842 147.131 220.914 144.633C221.864 146.306 222.876 147.941 223.755 149.654C220.758 151.498 217.769 153.336 214.787 155.196C213.931 155.71 213.122 156.317 212.172 156.644C211.059 155.142 209.883 153.686 208.746 152.199Z" fill="white"/>
<path d="M114.484 159.353C116.282 159.478 117.488 157.578 117.364 155.944C115.512 155.655 114.289 157.71 114.484 159.353ZM102.962 149.692C103.071 148.237 103.149 146.781 103.36 145.341C105.072 145.38 106.785 145.365 108.498 145.38C108.046 149.443 107.75 153.514 107.26 157.57C107.813 157.578 108.373 157.586 108.926 157.578C110.078 155.22 111.759 153.047 114.017 151.654C115.862 150.541 118.313 150.19 120.276 151.218C122.338 152.238 123.623 154.698 123.094 156.971C122.58 159.415 120.665 161.268 118.633 162.576C117.621 163.246 116.484 163.689 115.465 164.343C116.329 165.145 117.286 166.056 118.54 166.056C120.478 166.18 122.191 165.129 123.771 164.156C123.771 166.149 123.74 168.15 123.701 170.142C119.808 173.365 113.308 172.423 110.467 168.258C109.439 167.036 109.245 165.363 108.303 164.094C108.007 163.673 107.431 163.76 106.987 163.728C106.887 166.056 106.816 168.376 106.762 170.703C105.08 170.672 103.398 170.656 101.717 170.679C101.647 167.854 101.764 165.021 101.779 162.195C101.359 162.163 100.931 162.179 100.557 161.969C100.589 160.513 100.581 159.065 100.604 157.61C100.573 157.305 100.775 157.056 100.908 156.816C101.429 156.847 101.951 156.847 102.472 156.823C102.504 154.433 102.815 152.067 102.962 149.692Z" fill="white"/>
<path d="M173.14 176.378C172.65 177.032 172.969 177.872 173.273 178.534C173.825 178.62 174.456 178.705 174.954 178.394C175.234 177.763 175.507 176.97 175.079 176.338C174.698 175.615 173.506 175.654 173.14 176.378ZM202.83 160.015C201.491 160.825 201.569 162.81 202.418 163.961C202.823 164.125 203.383 164.335 203.757 163.978C204.668 163.323 204.668 162.039 204.411 161.058C204.239 160.404 203.539 159.719 202.83 160.015ZM188.834 154.807C188.188 156.52 187.877 158.466 188.53 160.225C188.771 160.194 189.013 160.163 189.254 160.131C189.667 159.407 190.04 158.645 190.188 157.819C190.507 156.403 190.671 154.807 189.893 153.507C189.48 153.881 189.036 154.27 188.834 154.807ZM186.452 148.844C187.293 148.073 188.312 147.388 189.48 147.295C190.943 147.155 192.399 147.661 193.613 148.447C195.155 149.49 196.05 151.311 196.19 153.149C196.455 156.27 195.56 159.392 194.12 162.132C193.458 163.494 192.586 164.732 191.792 166.025C192.889 167.659 195.155 167.714 196.844 167.114C196.291 164.965 195.832 162.708 196.315 160.497C196.751 158.099 198.556 155.982 200.884 155.227C202.254 154.822 203.741 154.76 205.127 155.111C207.026 155.585 208.731 156.979 209.307 158.894C209.976 160.863 209.439 162.965 208.746 164.849C212.475 163.502 215.69 161.136 219.116 159.19C221.801 157.703 224.533 156.076 227.632 155.64C229.516 155.43 231.563 155.663 233.144 156.792C234.561 157.796 235.37 159.509 235.494 161.222C235.759 163.922 234.755 166.6 233.159 168.749C231.314 171.224 228.566 172.984 225.577 173.731C224.339 174.05 223.07 174.23 221.801 174.33C221.817 172.354 221.832 170.384 221.848 168.406C223.825 167.737 225.857 167.068 227.562 165.822C228.099 165.41 228.722 164.982 228.909 164.289C229.306 163.129 228.566 161.595 227.266 161.501C226.075 161.423 225.032 162.108 224.051 162.685C219.606 165.324 215.169 167.987 210.716 170.617C208.412 171.676 205.649 171.824 203.321 170.766C202.379 171.022 201.483 171.528 200.526 171.777C197.786 172.649 194.843 172.852 192.01 172.407C190.134 172.096 188.242 171.224 187.183 169.582C184.996 170.991 182.91 172.54 180.73 173.949C180.855 176.573 180.784 179.398 179.344 181.687C178.441 183.205 176.822 184.24 175.079 184.458C173.56 184.63 171.957 184.513 170.571 183.812C169.014 183.049 167.862 181.515 167.567 179.803C167.107 177.437 168.003 174.969 169.56 173.179C170.875 171.645 172.642 170.555 174.526 169.862C174.534 169.263 174.542 168.656 174.549 168.056C172.401 169.535 169.778 170.453 167.146 170.166C165.372 169.987 163.737 168.788 163.075 167.13C162.429 165.433 162.312 163.494 162.919 161.774C163.69 159.711 165.083 157.913 166.788 156.527C168.882 154.799 171.42 153.694 174.02 153.001C175.865 152.534 177.764 152.347 179.648 152.191C179.648 154.168 179.648 156.138 179.578 158.115C176.348 158.349 172.907 158.886 170.33 160.996C169.232 161.836 168.781 163.3 169.03 164.639C170.018 164.67 170.976 164.28 171.763 163.705C173.429 162.591 174.603 160.894 175.429 159.088C177.274 159.12 179.119 159.135 180.964 159.166C180.933 161.719 180.862 164.28 180.924 166.834C182.007 166.492 183.058 166.056 184.147 165.729C183.174 162.544 182.622 159.159 183.143 155.842C183.54 153.265 184.529 150.673 186.452 148.844Z" fill="white"/>
</svg>
