<svg width="320" height="320" viewBox="0 0 320 320" fill="none" xmlns="http://www.w3.org/2000/svg">
<path fill-rule="evenodd" clip-rule="evenodd" d="M41.5333 128C58.9446 128 73.0626 142.119 73.0626 159.529C73.0626 176.945 58.9446 191.063 41.5333 191.063C24.122 191.063 10 176.945 10 159.529C10 142.119 24.122 128 41.5333 128Z" fill="#EE2722"/>
<path fill-rule="evenodd" clip-rule="evenodd" d="M41.5333 131.004C25.7756 131.004 13.0041 143.776 13.0041 159.529C13.0041 175.284 25.7756 188.059 41.5333 188.059C57.2869 188.059 70.0584 175.284 70.0584 159.529C70.0584 143.776 57.2869 131.004 41.5333 131.004Z" fill="white"/>
<path fill-rule="evenodd" clip-rule="evenodd" d="M48.0196 148.006C48.7156 148.296 49.2021 148.985 49.2021 149.787C49.2021 150.208 49.0712 150.6 48.8398 150.917L42.3946 162.018C42.2361 162.335 41.9082 162.551 41.5292 162.551C41.1475 162.551 40.8127 162.324 40.6611 161.996L34.216 150.9C33.9955 150.586 33.8674 150.208 33.8674 149.798C33.8674 149.023 34.3263 148.358 34.9808 148.047C35.0222 148.017 35.0773 147.99 35.1462 147.962C37.1402 147.241 39.2899 146.849 41.5333 146.849C43.7864 146.849 45.9459 147.246 47.9479 147.976C47.9755 147.986 47.9963 147.992 48.0196 148.006ZM29.0622 151.644C29.5542 151.275 30.2336 151.21 30.7985 151.537C31.0976 151.71 31.3153 151.961 31.4462 152.253L36.6441 161.307C36.7998 161.545 36.8233 161.862 36.6689 162.128C36.5132 162.4 36.2169 162.544 35.9248 162.52L25.489 162.544C25.1789 162.572 24.8593 162.506 24.5726 162.34C24.0255 162.024 23.743 161.435 23.7913 160.847C23.7844 160.805 23.7913 160.753 23.8009 160.695C24.1014 158.996 24.7008 157.322 25.6103 155.744C26.5294 154.155 27.6869 152.799 29.014 151.683C29.0305 151.669 29.0484 151.658 29.0622 151.644ZM53.9977 151.644C53.5084 151.275 52.8261 151.21 52.2613 151.537C51.965 151.71 51.7445 151.961 51.6136 152.253L46.4183 161.307C46.2599 161.545 46.2395 161.862 46.3908 162.128C46.5492 162.4 46.8416 162.544 47.1351 162.52L57.5734 162.544C57.8835 162.572 58.2006 162.506 58.4899 162.34C59.0342 162.024 59.3196 161.435 59.2713 160.847C59.2755 160.805 59.2755 160.753 59.2618 160.695C58.9584 158.996 58.3618 157.322 57.4496 155.744C56.5331 154.155 55.3756 152.799 54.0485 151.683C54.0319 151.669 54.0142 151.658 53.9977 151.644ZM43.0767 165.645V175.308H39.9858V165.645C38.5086 165.642 36.5794 165.638 35.849 165.611L25.5896 165.638C24.7215 165.679 23.8326 165.482 23.0265 165.018C21.4652 164.118 20.6287 162.455 20.6976 160.787C20.6976 160.539 20.7252 160.323 20.7527 160.149C21.1179 158.107 21.8414 156.093 22.9369 154.196C24.0324 152.295 25.4243 150.659 27.0227 149.315C28.0976 148.523 29.5997 148.128 30.9846 148.367C31.3704 147.048 32.2868 145.96 33.4815 145.336C33.7062 145.209 33.9198 145.119 34.092 145.055C36.4209 144.214 38.9248 143.755 41.5333 143.755C44.1516 143.755 46.6667 144.217 49.0024 145.068C50.3457 145.652 51.5448 146.873 52.0475 148.33C53.3704 148.027 54.735 148.323 55.8095 149.139C57.4083 150.48 59.03 152.295 60.1299 154.196C61.2253 156.093 61.9418 158.107 62.3069 160.149C62.3372 160.323 62.3651 160.539 62.369 160.787C62.4339 162.455 61.5975 164.118 60.0361 165.018C59.2342 165.482 58.3382 165.679 57.4704 165.638L47.2106 165.611C46.4875 165.638 44.5581 165.642 43.0767 165.645Z" fill="#EE2722"/>
<path fill-rule="evenodd" clip-rule="evenodd" d="M100.471 143.018L108.17 158.785L115.871 143.018H127.515V174.55H115.871V158.785L108.17 174.55L100.471 158.785V174.55H88.8271V143.018H100.471Z" fill="#EE2722"/>
<path fill-rule="evenodd" clip-rule="evenodd" d="M131.25 174.554L140.306 143.018H160.877L169.938 174.554H158.293L156.805 169.377H144.378L142.894 174.554H131.25ZM150.59 147.742L145.864 164.201H155.32L150.59 147.742Z" fill="#EE2722"/>
<path fill-rule="evenodd" clip-rule="evenodd" d="M195.438 143.038C200.516 143.038 204.63 147.149 204.63 152.226C204.63 157.305 200.516 161.417 195.438 161.417H185.289V174.554H173.647V143.038H195.438ZM188.011 146.645C190.636 146.645 193.185 148.05 193.185 150.907C193.185 153.766 190.935 156.081 188.011 156.081H185.484V146.645H188.011Z" fill="#EE2722"/>
<path fill-rule="evenodd" clip-rule="evenodd" d="M208.667 143.018H239.62V148.196H220.307V156.212H239.62V161.387H220.307V174.554H208.667V143.018Z" fill="#EE2722"/>
<path fill-rule="evenodd" clip-rule="evenodd" d="M290.687 169.377H310V174.55H279.043V143.018H310V148.196H290.687V156.212H310V161.387H290.687V169.377Z" fill="#EE2722"/>
<path fill-rule="evenodd" clip-rule="evenodd" d="M274.675 166.672V174.55H263.223V166.924C263.23 166.841 263.23 166.754 263.23 166.672C263.23 163.815 260.908 161.497 258.055 161.497H255.53V174.55L243.696 174.554V143.029H266.792C271.147 143.029 274.675 146.559 274.675 150.911C274.675 155.262 271.147 158.789 266.792 158.789C271.06 158.789 274.537 162.179 274.675 166.414C274.677 166.497 274.675 166.585 274.675 166.672ZM274.675 166.414V166.672C274.675 166.585 274.677 166.497 274.675 166.414ZM258.055 146.649C260.614 146.649 263.23 148.054 263.23 150.911C263.23 153.766 260.915 156.084 258.055 156.084H255.53V146.649H258.055Z" fill="#EE2722"/>
</svg>
