<svg width="247" height="41" viewBox="0 0 247 41" fill="none" xmlns="http://www.w3.org/2000/svg">
<path d="M11.34 6.52C11.34 5.8 11.24 5.20667 11.04 4.74C10.84 4.26 10.5533 3.90667 10.18 3.68C9.82 3.44 9.38667 3.32667 8.88 3.34H7.92V12.72C7.92 13.08 7.91333 13.4267 7.9 13.76C7.88667 14.0933 7.86667 14.3467 7.84 14.52C8.06667 14.4933 8.35333 14.48 8.7 14.48C9.06 14.4667 9.30667 14.46 9.44 14.46V16H3.6V14.68C3.90667 14.6667 4.16 14.6267 4.36 14.56C4.57333 14.4933 4.73333 14.34 4.84 14.1C4.96 13.86 5.02 13.4733 5.02 12.94V3.36H4.1C3.34 3.37333 2.74 3.63333 2.3 4.14C1.86 4.64667 1.64 5.44 1.64 6.52H0.32L0.42 2H12.54L12.66 6.52H11.34ZM17.7122 16.32C16.7522 16.32 15.8855 16.1133 15.1122 15.7C14.3389 15.2867 13.7255 14.7 13.2722 13.94C12.8322 13.1667 12.6122 12.26 12.6122 11.22C12.6122 10.1133 12.8389 9.14667 13.2922 8.32C13.7589 7.48 14.3722 6.83333 15.1322 6.38C15.9055 5.91333 16.7455 5.68 17.6522 5.68C18.6122 5.68 19.4722 5.88667 20.2322 6.3C20.9922 6.71333 21.5922 7.30667 22.0322 8.08C22.4722 8.84 22.6922 9.75333 22.6922 10.82C22.6922 11.94 22.4789 12.9133 22.0522 13.74C21.6255 14.5667 21.0389 15.2067 20.2922 15.66C19.5455 16.1 18.6855 16.32 17.7122 16.32ZM17.7922 14.9C18.3255 14.8867 18.7255 14.7 18.9922 14.34C19.2722 13.98 19.4655 13.5267 19.5722 12.98C19.6789 12.4333 19.7322 11.88 19.7322 11.32C19.7322 10.8267 19.6922 10.3267 19.6122 9.82C19.5455 9.31333 19.4322 8.85333 19.2722 8.44C19.1122 8.02667 18.8922 7.69333 18.6122 7.44C18.3455 7.18667 18.0122 7.06667 17.6122 7.08C17.0922 7.09333 16.6789 7.28 16.3722 7.64C16.0789 8 15.8655 8.45333 15.7322 9C15.6122 9.53333 15.5522 10.0933 15.5522 10.68C15.5522 11.36 15.6255 12.0267 15.7722 12.68C15.9189 13.3333 16.1522 13.8733 16.4722 14.3C16.8055 14.7133 17.2455 14.9133 17.7922 14.9ZM24.1403 16V14.7C24.5136 14.7 24.7803 14.6267 24.9403 14.48C25.1003 14.3333 25.2003 14.1267 25.2403 13.86C25.2936 13.58 25.3203 13.2667 25.3203 12.92V9.56C25.3203 9.32 25.327 9.05333 25.3403 8.76C25.3536 8.45333 25.3736 8.15333 25.4003 7.86C25.187 7.87333 24.9336 7.88667 24.6403 7.9C24.3603 7.9 24.147 7.90667 24.0003 7.92V6.4C24.6136 6.4 25.1336 6.36667 25.5603 6.3C25.987 6.23333 26.3203 6.15333 26.5603 6.06C26.8136 5.96667 26.987 5.88 27.0803 5.8H28.0603C28.087 5.97333 28.1003 6.1 28.1003 6.18C28.1003 6.26 28.1003 6.34 28.1003 6.42C28.1136 6.48667 28.1403 6.61333 28.1803 6.8C28.447 6.58667 28.7536 6.4 29.1003 6.24C29.447 6.06667 29.7936 5.93333 30.1403 5.84C30.487 5.73333 30.7936 5.68 31.0603 5.68C32.287 5.68 33.1536 6.03333 33.6603 6.74C34.1803 7.43333 34.4403 8.55333 34.4403 10.1V12.78C34.4403 12.9667 34.4336 13.2333 34.4203 13.58C34.407 13.9133 34.387 14.2333 34.3603 14.54C34.587 14.5133 34.827 14.5 35.0803 14.5C35.3336 14.4867 35.527 14.48 35.6603 14.48V16H30.4203V14.7C30.7936 14.7 31.0603 14.6267 31.2203 14.48C31.3936 14.3333 31.5003 14.1267 31.5403 13.86C31.5936 13.58 31.6203 13.2667 31.6203 12.92L31.6003 10.08C31.6003 9.21333 31.4736 8.57333 31.2203 8.16C30.9803 7.73333 30.567 7.52 29.9803 7.52C29.647 7.52 29.3136 7.59333 28.9803 7.74C28.6603 7.88667 28.387 8.06 28.1603 8.26C28.1603 8.44667 28.1603 8.64 28.1603 8.84C28.1603 9.02667 28.1603 9.21333 28.1603 9.4V12.78C28.1603 12.9667 28.1536 13.2333 28.1403 13.58C28.127 13.9133 28.107 14.2333 28.0803 14.54C28.2936 14.5133 28.527 14.5 28.7803 14.5C29.047 14.4867 29.247 14.48 29.3803 14.48V16H24.1403ZM36.8552 14.7C37.2285 14.7 37.4952 14.6267 37.6552 14.48C37.8152 14.3333 37.9152 14.1267 37.9552 13.86C38.0085 13.58 38.0352 13.2667 38.0352 12.92V9.6C38.0352 9.36 38.0418 9.08667 38.0552 8.78C38.0685 8.46 38.0885 8.15333 38.1152 7.86C37.9018 7.87333 37.6485 7.88667 37.3552 7.9C37.0752 7.9 36.8618 7.90667 36.7152 7.92V6.4C37.3285 6.4 37.8485 6.36667 38.2752 6.3C38.7018 6.23333 39.0352 6.15333 39.2752 6.06C39.5285 5.96667 39.7018 5.88 39.7952 5.8H40.8752V12.78C40.8752 12.9667 40.8685 13.2333 40.8552 13.58C40.8418 13.9133 40.8218 14.2333 40.7952 14.54C41.0085 14.5133 41.2418 14.5 41.4952 14.5C41.7618 14.4867 41.9618 14.48 42.0952 14.48V16H36.8552V14.7ZM39.3552 4.22C38.9018 4.22 38.5285 4.06 38.2352 3.74C37.9418 3.42 37.7952 3.03333 37.7952 2.58C37.7952 2.12667 37.9485 1.74 38.2552 1.42C38.5618 1.1 38.9218 0.94 39.3352 0.94C39.7618 0.94 40.1152 1.1 40.3952 1.42C40.6885 1.74 40.8352 2.12667 40.8352 2.58C40.8352 3.03333 40.7018 3.42 40.4352 3.74C40.1685 4.06 39.8085 4.22 39.3552 4.22ZM48.832 16V14.68C49.1387 14.6667 49.392 14.6267 49.592 14.56C49.8054 14.4933 49.9654 14.34 50.072 14.1C50.192 13.86 50.252 13.4733 50.252 12.94V5.28C50.252 4.92 50.2587 4.57333 50.272 4.24C50.2987 3.90667 50.3187 3.65333 50.332 3.48C50.1187 3.49333 49.852 3.50667 49.532 3.52C49.212 3.52 48.9787 3.52667 48.832 3.54V2H58.832L58.952 5.88H57.632C57.632 5.14667 57.5054 4.59333 57.252 4.22C56.9987 3.84667 56.6854 3.6 56.312 3.48C55.9387 3.34667 55.572 3.28667 55.212 3.3L54.492 3.32C54.212 3.32 53.972 3.36 53.772 3.44C53.572 3.50667 53.4187 3.66667 53.312 3.92C53.2054 4.16 53.152 4.54 53.152 5.06V8.54H55.212L55.132 6.82H56.672V11.68H55.352C55.352 11.12 55.2654 10.7133 55.092 10.46C54.9187 10.2067 54.6787 10.0533 54.372 10C54.0787 9.93333 53.752 9.90667 53.392 9.92H53.152V12.72C53.152 13.08 53.1454 13.4267 53.132 13.76C53.1187 14.0933 53.0987 14.3467 53.072 14.52C53.2187 14.5067 53.412 14.5 53.652 14.5C53.892 14.4867 54.1254 14.48 54.352 14.48C54.592 14.4667 54.7587 14.46 54.852 14.46V16H48.832ZM59.863 14.7C60.2363 14.7 60.503 14.6267 60.663 14.48C60.823 14.3333 60.923 14.1267 60.963 13.86C61.0163 13.58 61.043 13.2667 61.043 12.92V9.6C61.043 9.36 61.0496 9.08667 61.063 8.78C61.0763 8.46 61.0963 8.15333 61.123 7.86C60.9096 7.87333 60.6563 7.88667 60.363 7.9C60.083 7.9 59.8696 7.90667 59.723 7.92V6.4C60.3363 6.4 60.8563 6.36667 61.283 6.3C61.7096 6.23333 62.043 6.15333 62.283 6.06C62.5363 5.96667 62.7096 5.88 62.803 5.8H63.883V12.78C63.883 12.9667 63.8763 13.2333 63.863 13.58C63.8496 13.9133 63.8296 14.2333 63.803 14.54C64.0163 14.5133 64.2496 14.5 64.503 14.5C64.7696 14.4867 64.9696 14.48 65.103 14.48V16H59.863V14.7ZM62.363 4.22C61.9096 4.22 61.5363 4.06 61.243 3.74C60.9496 3.42 60.803 3.03333 60.803 2.58C60.803 2.12667 60.9563 1.74 61.263 1.42C61.5696 1.1 61.9296 0.94 62.343 0.94C62.7696 0.94 63.123 1.1 63.403 1.42C63.6963 1.74 63.843 2.12667 63.843 2.58C63.843 3.03333 63.7096 3.42 63.443 3.74C63.1763 4.06 62.8163 4.22 62.363 4.22ZM70.7059 21.42C69.5593 21.42 68.6526 21.2933 67.9859 21.04C67.3193 20.8 66.8459 20.48 66.5659 20.08C66.2859 19.68 66.1459 19.2533 66.1459 18.8C66.1459 18.52 66.2059 18.24 66.3259 17.96C66.4459 17.68 66.6393 17.4067 66.9059 17.14C67.1859 16.8867 67.5659 16.6733 68.0459 16.5C67.4993 16.3533 67.1126 16.12 66.8859 15.8C66.6726 15.4667 66.5659 15.1133 66.5659 14.74C66.5659 14.3933 66.7059 14.0067 66.9859 13.58C67.2659 13.14 67.7726 12.8067 68.5059 12.58C67.9459 12.3533 67.4859 12 67.1259 11.52C66.7659 11.04 66.5726 10.46 66.5459 9.78C66.5193 8.98 66.7193 8.27333 67.1459 7.66C67.5726 7.03333 68.1326 6.54667 68.8259 6.2C69.5193 5.85333 70.2459 5.68 71.0059 5.68C71.3526 5.68 71.7526 5.72667 72.2059 5.82C72.6593 5.91333 73.0526 6.07333 73.3859 6.3C73.5326 5.88667 73.7193 5.5 73.9459 5.14C74.1859 4.76667 74.4726 4.46667 74.8059 4.24C75.1393 4 75.5126 3.88 75.9259 3.88C76.3793 3.88 76.7193 4 76.9459 4.24C77.1859 4.46667 77.3059 4.77333 77.3059 5.16C77.3059 5.32 77.2659 5.5 77.1859 5.7C77.1193 5.88667 76.9926 6.04667 76.8059 6.18C76.6326 6.31333 76.3859 6.38 76.0659 6.38C75.8659 6.38 75.6659 6.30667 75.4659 6.16C75.2659 6 75.1459 5.81333 75.1059 5.6C74.9326 5.65333 74.7593 5.82667 74.5859 6.12C74.4126 6.41333 74.3126 6.67333 74.2859 6.9C74.6726 7.23333 74.9659 7.62 75.1659 8.06C75.3659 8.5 75.4659 8.97333 75.4659 9.48C75.4659 10.2533 75.2459 10.94 74.8059 11.54C74.3793 12.1267 73.8193 12.5933 73.1259 12.94C72.4459 13.2733 71.7126 13.44 70.9259 13.44C70.7526 13.44 70.5593 13.4333 70.3459 13.42C70.1326 13.3933 69.9259 13.38 69.7259 13.38C69.4326 13.38 69.1859 13.4333 68.9859 13.54C68.7859 13.6467 68.6859 13.7933 68.6859 13.98C68.6859 14.2333 68.8793 14.4067 69.2659 14.5C69.6526 14.5933 70.3126 14.6667 71.2459 14.72C72.2726 14.7733 73.1659 14.9067 73.9259 15.12C74.6993 15.32 75.2993 15.64 75.7259 16.08C76.1526 16.52 76.3659 17.1267 76.3659 17.9C76.3659 18.4733 76.1993 18.9733 75.8659 19.4C75.5326 19.84 75.0859 20.2067 74.5259 20.5C73.9793 20.8067 73.3726 21.0333 72.7059 21.18C72.0393 21.34 71.3726 21.42 70.7059 21.42ZM71.2859 20.04C72.2326 20.04 72.9459 19.8667 73.4259 19.52C73.9193 19.1733 74.1659 18.8133 74.1659 18.44C74.1659 18.16 74.0593 17.9267 73.8459 17.74C73.6326 17.5667 73.3126 17.4267 72.8859 17.32C72.4726 17.2133 71.9393 17.1467 71.2859 17.12C70.9926 17.0933 70.6526 17.0733 70.2659 17.06C69.8793 17.0467 69.5393 17.0133 69.2459 16.96C69.0459 17.12 68.8926 17.32 68.7859 17.56C68.6793 17.8 68.6193 18.0333 68.6059 18.26C68.5793 18.7933 68.8059 19.22 69.2859 19.54C69.7793 19.8733 70.4459 20.04 71.2859 20.04ZM71.0059 12.1C71.3659 12.1 71.6659 11.9867 71.9059 11.76C72.1593 11.5333 72.3459 11.2467 72.4659 10.9C72.5993 10.5533 72.6659 10.2 72.6659 9.84C72.6659 9.37333 72.6059 8.92667 72.4859 8.5C72.3659 8.06 72.1793 7.70667 71.9259 7.44C71.6859 7.16 71.3726 7.02 70.9859 7.02C70.4526 7.02 70.0393 7.26 69.7459 7.74C69.4526 8.22 69.3059 8.76667 69.3059 9.38C69.3059 9.84667 69.3726 10.2933 69.5059 10.72C69.6393 11.1333 69.8326 11.4667 70.0859 11.72C70.3393 11.9733 70.6459 12.1 71.0059 12.1ZM81.6788 16.32C80.8788 16.32 80.2321 16.1667 79.7388 15.86C79.2588 15.5533 78.9054 15.0733 78.6788 14.42C78.4654 13.7667 78.3588 12.9267 78.3588 11.9V9.6C78.3588 9.36 78.3654 9.08667 78.3788 8.78C78.3921 8.46 78.4054 8.15333 78.4188 7.86C78.2054 7.87333 77.9521 7.88667 77.6588 7.9C77.3788 7.9 77.1654 7.90667 77.0188 7.92V6.4H77.2188C78.0454 6.4 78.6988 6.33333 79.1788 6.2C79.6588 6.06667 79.9654 5.93333 80.0988 5.8H81.1988V11.92C81.1988 12.7867 81.3121 13.4333 81.5388 13.86C81.7654 14.2733 82.1254 14.48 82.6188 14.48C82.9654 14.48 83.3121 14.3867 83.6588 14.2C84.0188 14 84.3121 13.7733 84.5388 13.52V9.6C84.5388 9.36 84.5454 9.08667 84.5588 8.78C84.5721 8.46 84.5921 8.15333 84.6188 7.86C84.4054 7.87333 84.1521 7.88667 83.8588 7.9C83.5788 7.9 83.3654 7.90667 83.2188 7.92V6.4H83.6988C84.3254 6.4 84.8788 6.33333 85.3588 6.2C85.8388 6.05333 86.1454 5.92 86.2788 5.8H87.3788V12.78C87.3788 12.9667 87.3721 13.2333 87.3588 13.58C87.3454 13.9133 87.3254 14.2333 87.2988 14.54C87.5121 14.5133 87.7454 14.5 87.9988 14.5C88.2654 14.4867 88.4654 14.48 88.5988 14.48V16H84.7988C84.7854 15.8267 84.7654 15.6533 84.7388 15.48C84.7254 15.3067 84.7054 15.1333 84.6788 14.96C84.2654 15.3067 83.8188 15.62 83.3388 15.9C82.8721 16.18 82.3188 16.32 81.6788 16.32ZM94.642 16.32C93.6687 16.32 92.8087 16.1067 92.062 15.68C91.3154 15.24 90.7354 14.6267 90.322 13.84C89.9087 13.04 89.702 12.1 89.702 11.02C89.702 10.0867 89.9087 9.21333 90.322 8.4C90.7354 7.58667 91.3154 6.93333 92.062 6.44C92.822 5.93333 93.702 5.68 94.702 5.68C95.262 5.68 95.8087 5.76 96.342 5.92C96.8754 6.06667 97.3554 6.32667 97.782 6.7C98.222 7.07333 98.5687 7.58 98.822 8.22C99.0887 8.86 99.2154 9.66 99.202 10.62L92.642 10.74C92.642 11.46 92.7287 12.1067 92.902 12.68C93.0887 13.2533 93.3887 13.7067 93.802 14.04C94.2154 14.3733 94.7687 14.54 95.462 14.54C95.7287 14.54 96.0287 14.4933 96.362 14.4C96.7087 14.3067 97.0554 14.1533 97.402 13.94C97.762 13.7133 98.0954 13.4133 98.402 13.04L99.302 13.88C98.822 14.56 98.3087 15.08 97.762 15.44C97.2154 15.7867 96.6687 16.02 96.122 16.14C95.5887 16.26 95.0954 16.32 94.642 16.32ZM92.762 9.34H96.442C96.4287 8.78 96.3487 8.34 96.202 8.02C96.0687 7.68667 95.882 7.44667 95.642 7.3C95.402 7.15333 95.122 7.08 94.802 7.08C94.2154 7.08 93.7554 7.29333 93.422 7.72C93.0887 8.13333 92.8687 8.67333 92.762 9.34ZM100.664 14.7C101.037 14.7 101.304 14.6267 101.464 14.48C101.624 14.3333 101.724 14.1267 101.764 13.86C101.817 13.58 101.844 13.2667 101.844 12.92V9.56C101.844 9.32 101.85 9.05333 101.864 8.76C101.877 8.45333 101.897 8.15333 101.924 7.86C101.71 7.87333 101.457 7.88667 101.164 7.9C100.884 7.9 100.67 7.90667 100.524 7.92V6.4H101.324C101.844 6.4 102.317 6.33333 102.744 6.2C103.184 6.06667 103.47 5.93333 103.604 5.8H104.584C104.61 5.93333 104.63 6.18667 104.644 6.56C104.657 6.92 104.664 7.24 104.664 7.52C105.024 7.08 105.364 6.72667 105.684 6.46C106.004 6.19333 106.317 6 106.624 5.88C106.944 5.74667 107.264 5.68 107.584 5.68C108.05 5.68 108.457 5.81333 108.804 6.08C109.15 6.33333 109.324 6.75333 109.324 7.34C109.324 7.54 109.277 7.75333 109.184 7.98C109.09 8.19333 108.944 8.37333 108.744 8.52C108.544 8.66667 108.27 8.74 107.924 8.74C107.657 8.74 107.384 8.66 107.104 8.5C106.824 8.34 106.664 8.03333 106.624 7.58C106.357 7.58 106.09 7.69333 105.824 7.92C105.557 8.13333 105.317 8.39333 105.104 8.7C104.904 8.99333 104.764 9.26667 104.684 9.52V12.78C104.684 12.9667 104.677 13.2333 104.664 13.58C104.65 13.9133 104.63 14.2333 104.604 14.54C104.817 14.5133 105.05 14.5 105.304 14.5C105.57 14.4867 105.77 14.48 105.904 14.48V16H100.664V14.7ZM115.735 16C115.709 15.8133 115.689 15.66 115.675 15.54C115.675 15.4067 115.669 15.2533 115.655 15.08C115.202 15.5333 114.722 15.8533 114.215 16.04C113.709 16.2267 113.195 16.32 112.675 16.32C111.822 16.32 111.155 16.0667 110.675 15.56C110.195 15.0533 109.955 14.42 109.955 13.66C109.955 13.02 110.115 12.4733 110.435 12.02C110.769 11.5667 111.202 11.2 111.735 10.92C112.282 10.6267 112.882 10.4067 113.535 10.26C114.202 10.1 114.869 10.0067 115.535 9.98V8.94C115.535 8.59333 115.489 8.28 115.395 8C115.315 7.72 115.169 7.5 114.955 7.34C114.755 7.18 114.469 7.10667 114.095 7.12C113.842 7.13333 113.595 7.18667 113.355 7.28C113.115 7.37333 112.909 7.50667 112.735 7.68C112.842 7.8 112.909 7.93333 112.935 8.08C112.962 8.21333 112.975 8.33333 112.975 8.44C112.975 8.70667 112.869 8.98667 112.655 9.28C112.442 9.56 112.102 9.69333 111.635 9.68C111.235 9.66667 110.929 9.52667 110.715 9.26C110.502 8.99333 110.395 8.68 110.395 8.32C110.395 7.78667 110.582 7.32667 110.955 6.94C111.342 6.54 111.855 6.23333 112.495 6.02C113.135 5.79333 113.842 5.68 114.615 5.68C115.789 5.68 116.695 5.98667 117.335 6.6C117.989 7.2 118.315 8.16667 118.315 9.5C118.315 9.95333 118.315 10.34 118.315 10.66C118.315 10.98 118.309 11.3 118.295 11.62C118.295 11.94 118.295 12.3267 118.295 12.78C118.295 12.9667 118.289 13.2333 118.275 13.58C118.262 13.9133 118.242 14.2333 118.215 14.54C118.442 14.5133 118.682 14.5 118.935 14.5C119.189 14.4867 119.382 14.48 119.515 14.48V16H115.735ZM115.515 11.4C115.142 11.44 114.789 11.5067 114.455 11.6C114.122 11.6933 113.829 11.82 113.575 11.98C113.335 12.14 113.142 12.3333 112.995 12.56C112.862 12.7867 112.795 13.04 112.795 13.32C112.809 13.6933 112.929 13.96 113.155 14.12C113.382 14.28 113.642 14.36 113.935 14.36C114.242 14.36 114.529 14.2933 114.795 14.16C115.062 14.0267 115.302 13.8533 115.515 13.64C115.515 13.5067 115.515 13.38 115.515 13.26C115.515 13.1267 115.515 12.9933 115.515 12.86C115.515 12.62 115.515 12.38 115.515 12.14C115.515 11.8867 115.515 11.64 115.515 11.4Z" fill="#0F172A"/>
<path d="M9.792 40.24C9.248 38.912 8.704 37.592 8.16 36.28C7.632 34.968 7.096 33.656 6.552 32.344C6.424 32.04 6.256 31.616 6.048 31.072C5.856 30.512 5.648 29.872 5.424 29.152C5.216 28.432 5.024 27.688 4.848 26.92C4.88 27.816 4.904 28.664 4.92 29.464C4.936 30.248 4.936 31 4.92 31.72C4.92 32.072 4.92 32.432 4.92 32.8C4.92 33.168 4.912 33.536 4.896 33.904C4.896 34.256 4.896 34.616 4.896 34.984C4.896 35.336 4.896 35.696 4.896 36.064C4.896 36.496 4.88 36.912 4.848 37.312C4.832 37.712 4.808 38.016 4.776 38.224C5.048 38.192 5.376 38.176 5.76 38.176C6.16 38.16 6.44 38.152 6.6 38.152V40H1.128V38.416C1.496 38.4 1.8 38.352 2.04 38.272C2.296 38.192 2.488 38.008 2.616 37.72C2.76 37.432 2.832 36.968 2.832 36.328L2.976 27.136C2.992 26.704 3.008 26.288 3.024 25.888C3.04 25.488 3.056 25.184 3.072 24.976C2.816 24.992 2.496 25.008 2.112 25.024C1.728 25.024 1.448 25.032 1.272 25.048V23.2H6.576L10.2 32.488C10.344 32.856 10.504 33.288 10.68 33.784C10.856 34.264 11.024 34.736 11.184 35.2C11.344 35.648 11.464 36.008 11.544 36.28H11.568C11.776 35.72 11.968 35.176 12.144 34.648C12.32 34.12 12.504 33.608 12.696 33.112C13.32 31.448 13.936 29.792 14.544 28.144C15.168 26.496 15.792 24.848 16.416 23.2H21.96V24.784C21.608 24.8 21.296 24.848 21.024 24.928C20.752 25.008 20.544 25.192 20.4 25.48C20.272 25.752 20.216 26.216 20.232 26.872L20.592 36.064C20.624 36.496 20.624 36.912 20.592 37.312C20.56 37.712 20.528 38.016 20.496 38.224C20.768 38.192 21.096 38.176 21.48 38.176C21.88 38.16 22.16 38.152 22.32 38.152V40H15.648V38.416C16.016 38.4 16.328 38.352 16.584 38.272C16.856 38.192 17.056 38.008 17.184 37.72C17.328 37.432 17.384 36.968 17.352 36.328L17.16 31.24C17.16 31.048 17.144 30.72 17.112 30.256C17.08 29.776 17.048 29.256 17.016 28.696C17 28.12 16.984 27.584 16.968 27.088C16.92 27.2 16.872 27.312 16.824 27.424C16.776 27.52 16.736 27.624 16.704 27.736L12.024 40.24H9.792ZM29.3533 40.384C28.1853 40.384 27.1532 40.128 26.2572 39.616C25.3612 39.088 24.6652 38.352 24.1692 37.408C23.6732 36.448 23.4252 35.32 23.4252 34.024C23.4252 32.904 23.6732 31.856 24.1692 30.88C24.6652 29.904 25.3612 29.12 26.2572 28.528C27.1692 27.92 28.2253 27.616 29.4253 27.616C30.0972 27.616 30.7532 27.712 31.3932 27.904C32.0333 28.08 32.6093 28.392 33.1213 28.84C33.6493 29.288 34.0653 29.896 34.3693 30.664C34.6893 31.432 34.8413 32.392 34.8253 33.544L26.9532 33.688C26.9532 34.552 27.0572 35.328 27.2652 36.016C27.4892 36.704 27.8492 37.248 28.3453 37.648C28.8413 38.048 29.5052 38.248 30.3372 38.248C30.6572 38.248 31.0173 38.192 31.4173 38.08C31.8333 37.968 32.2492 37.784 32.6652 37.528C33.0972 37.256 33.4973 36.896 33.8653 36.448L34.9453 37.456C34.3693 38.272 33.7533 38.896 33.0972 39.328C32.4412 39.744 31.7852 40.024 31.1293 40.168C30.4892 40.312 29.8972 40.384 29.3533 40.384ZM27.0972 32.008H31.5133C31.4973 31.336 31.4012 30.808 31.2252 30.424C31.0652 30.024 30.8412 29.736 30.5532 29.56C30.2652 29.384 29.9292 29.296 29.5452 29.296C28.8412 29.296 28.2892 29.552 27.8892 30.064C27.4892 30.56 27.2252 31.208 27.0972 32.008ZM41.9993 40.384C41.3113 40.384 40.6393 40.296 39.9833 40.12C39.3273 39.944 38.8153 39.72 38.4473 39.448L38.4953 40.168H36.6713L36.5753 36.04H38.1353C38.1833 36.52 38.3753 36.96 38.7113 37.36C39.0473 37.76 39.4873 38.08 40.0313 38.32C40.5753 38.544 41.1833 38.656 41.8553 38.656C42.1273 38.656 42.3833 38.616 42.6233 38.536C42.8793 38.456 43.0873 38.328 43.2473 38.152C43.4233 37.96 43.5113 37.728 43.5113 37.456C43.5113 37.152 43.3993 36.904 43.1753 36.712C42.9673 36.52 42.6553 36.336 42.2393 36.16C41.8393 35.984 41.3353 35.784 40.7273 35.56C40.2313 35.368 39.7273 35.168 39.2153 34.96C38.7193 34.752 38.2553 34.504 37.8233 34.216C37.4073 33.912 37.0713 33.544 36.8153 33.112C36.5593 32.664 36.4313 32.12 36.4313 31.48C36.4313 31.016 36.5193 30.56 36.6953 30.112C36.8713 29.648 37.1433 29.232 37.5113 28.864C37.8793 28.48 38.3433 28.176 38.9033 27.952C39.4793 27.728 40.1593 27.616 40.9433 27.616C41.3753 27.616 41.8633 27.688 42.4073 27.832C42.9673 27.96 43.4393 28.16 43.8233 28.432V27.736H45.6473V31.984H44.0873C43.9913 31.424 43.7913 30.944 43.4873 30.544C43.1993 30.144 42.8233 29.84 42.3593 29.632C41.8953 29.408 41.3753 29.296 40.7993 29.296C40.3993 29.296 40.0313 29.392 39.6953 29.584C39.3753 29.776 39.2153 30.104 39.2153 30.568C39.2153 30.936 39.3433 31.232 39.5993 31.456C39.8553 31.664 40.2073 31.84 40.6553 31.984C41.1033 32.128 41.5993 32.296 42.1433 32.488C42.9593 32.76 43.6793 33.08 44.3033 33.448C44.9433 33.816 45.4473 34.264 45.8153 34.792C46.1833 35.304 46.3673 35.936 46.3673 36.688C46.3673 37.52 46.1593 38.208 45.7433 38.752C45.3273 39.296 44.7833 39.704 44.1113 39.976C43.4553 40.248 42.7513 40.384 41.9993 40.384ZM52.7798 40.384C52.2998 40.384 51.8358 40.328 51.3878 40.216C50.9558 40.104 50.5558 39.896 50.1878 39.592C49.8358 39.272 49.5558 38.808 49.3478 38.2C49.1398 37.592 49.0358 36.784 49.0358 35.776L49.0838 29.992H47.4518V28C47.9478 27.984 48.4278 27.816 48.8918 27.496C49.3558 27.176 49.7478 26.76 50.0678 26.248C50.4038 25.736 50.6278 25.2 50.7398 24.64H52.5158L52.4918 28H55.5398V29.848L52.4918 29.92L52.4678 35.824C52.4678 36.192 52.4998 36.56 52.5638 36.928C52.6438 37.28 52.7878 37.576 52.9958 37.816C53.2038 38.04 53.5078 38.152 53.9078 38.152C54.1318 38.152 54.4358 38.072 54.8198 37.912C55.2198 37.752 55.6438 37.352 56.0918 36.712L57.2438 37.792C56.8118 38.432 56.3638 38.928 55.8998 39.28C55.4358 39.632 54.9878 39.888 54.5558 40.048C54.1398 40.208 53.7718 40.304 53.4518 40.336C53.1318 40.368 52.9078 40.384 52.7798 40.384ZM57.8418 38.44C58.2898 38.44 58.6098 38.352 58.8018 38.176C58.9938 38 59.1138 37.752 59.1618 37.432C59.2258 37.096 59.2578 36.72 59.2578 36.304V32.272C59.2578 31.984 59.2658 31.664 59.2818 31.312C59.2978 30.944 59.3218 30.584 59.3538 30.232C59.0978 30.248 58.7938 30.264 58.4418 30.28C58.1058 30.28 57.8498 30.288 57.6738 30.304V28.48H58.6338C59.2578 28.48 59.8258 28.4 60.3378 28.24C60.8658 28.08 61.2098 27.92 61.3698 27.76H62.5458C62.5778 27.92 62.6018 28.224 62.6178 28.672C62.6338 29.104 62.6418 29.488 62.6418 29.824C63.0738 29.296 63.4818 28.872 63.8658 28.552C64.2498 28.232 64.6258 28 64.9938 27.856C65.3778 27.696 65.7618 27.616 66.1458 27.616C66.7058 27.616 67.1938 27.776 67.6098 28.096C68.0258 28.4 68.2338 28.904 68.2338 29.608C68.2338 29.848 68.1778 30.104 68.0658 30.376C67.9538 30.632 67.7778 30.848 67.5378 31.024C67.2978 31.2 66.9698 31.288 66.5538 31.288C66.2338 31.288 65.9058 31.192 65.5698 31C65.2338 30.808 65.0418 30.44 64.9938 29.896C64.6738 29.896 64.3538 30.032 64.0338 30.304C63.7138 30.56 63.4258 30.872 63.1698 31.24C62.9298 31.592 62.7618 31.92 62.6658 32.224V36.136C62.6658 36.36 62.6578 36.68 62.6418 37.096C62.6258 37.496 62.6018 37.88 62.5698 38.248C62.8258 38.216 63.1058 38.2 63.4098 38.2C63.7298 38.184 63.9698 38.176 64.1298 38.176V40H57.8418V38.44ZM74.7736 40.384C73.6056 40.384 72.5736 40.128 71.6776 39.616C70.7816 39.088 70.0856 38.352 69.5896 37.408C69.0936 36.448 68.8456 35.32 68.8456 34.024C68.8456 32.904 69.0936 31.856 69.5896 30.88C70.0856 29.904 70.7816 29.12 71.6776 28.528C72.5896 27.92 73.6456 27.616 74.8456 27.616C75.5176 27.616 76.1736 27.712 76.8136 27.904C77.4536 28.08 78.0296 28.392 78.5416 28.84C79.0696 29.288 79.4856 29.896 79.7896 30.664C80.1096 31.432 80.2616 32.392 80.2456 33.544L72.3736 33.688C72.3736 34.552 72.4776 35.328 72.6856 36.016C72.9096 36.704 73.2696 37.248 73.7656 37.648C74.2616 38.048 74.9256 38.248 75.7576 38.248C76.0776 38.248 76.4376 38.192 76.8376 38.08C77.2536 37.968 77.6696 37.784 78.0856 37.528C78.5176 37.256 78.9176 36.896 79.2856 36.448L80.3656 37.456C79.7896 38.272 79.1736 38.896 78.5176 39.328C77.8616 39.744 77.2056 40.024 76.5496 40.168C75.9096 40.312 75.3176 40.384 74.7736 40.384ZM72.5176 32.008H76.9336C76.9176 31.336 76.8216 30.808 76.6456 30.424C76.4856 30.024 76.2616 29.736 75.9736 29.56C75.6856 29.384 75.3496 29.296 74.9656 29.296C74.2616 29.296 73.7096 29.552 73.3096 30.064C72.9096 30.56 72.6456 31.208 72.5176 32.008ZM92.7363 40.384C91.7763 40.384 90.9283 40.136 90.1923 39.64C89.4723 39.144 88.9043 38.44 88.4883 37.528C88.0883 36.616 87.8883 35.544 87.8883 34.312C87.8883 33.016 88.1363 31.864 88.6323 30.856C89.1283 29.848 89.8243 29.056 90.7203 28.48C91.6163 27.904 92.6563 27.616 93.8403 27.616C94.2723 27.616 94.6563 27.664 94.9923 27.76C95.3443 27.84 95.6723 27.936 95.9763 28.048V26.464C95.9763 26.24 95.9843 25.92 96.0003 25.504C96.0163 25.088 96.0403 24.704 96.0723 24.352C95.8163 24.368 95.5123 24.384 95.1603 24.4C94.8083 24.416 94.5443 24.424 94.3683 24.424V22.6C95.1203 22.6 95.7443 22.56 96.2403 22.48C96.7523 22.4 97.1523 22.304 97.4403 22.192C97.7443 22.08 97.9523 21.976 98.0643 21.88H99.3603V36.136C99.3603 36.36 99.3523 36.68 99.3363 37.096C99.3203 37.496 99.2963 37.88 99.2643 38.248C99.5363 38.216 99.8243 38.2 100.128 38.2C100.432 38.184 100.664 38.176 100.824 38.176V40H96.2643C96.2483 39.824 96.2243 39.64 96.1923 39.448C96.1763 39.256 96.1523 39.072 96.1203 38.896C95.5923 39.44 95.0483 39.824 94.4883 40.048C93.9283 40.272 93.3443 40.384 92.7363 40.384ZM93.9843 38.2C94.4003 38.2 94.7843 38.096 95.1363 37.888C95.4883 37.664 95.7683 37.384 95.9763 37.048C95.9763 36.808 95.9763 36.568 95.9763 36.328C95.9763 36.088 95.9763 35.848 95.9763 35.608V29.848C95.8163 29.72 95.5763 29.616 95.2563 29.536C94.9363 29.44 94.6083 29.392 94.2723 29.392C93.5363 29.408 92.9603 29.64 92.5443 30.088C92.1283 30.536 91.8323 31.104 91.6563 31.792C91.4963 32.48 91.4163 33.2 91.4163 33.952C91.4163 34.624 91.4963 35.288 91.6563 35.944C91.8323 36.6 92.1043 37.144 92.4723 37.576C92.8563 37.992 93.3603 38.2 93.9843 38.2ZM107.989 40.384C106.821 40.384 105.789 40.128 104.893 39.616C103.997 39.088 103.301 38.352 102.805 37.408C102.309 36.448 102.061 35.32 102.061 34.024C102.061 32.904 102.309 31.856 102.805 30.88C103.301 29.904 103.997 29.12 104.893 28.528C105.805 27.92 106.861 27.616 108.061 27.616C108.733 27.616 109.389 27.712 110.029 27.904C110.669 28.08 111.245 28.392 111.757 28.84C112.285 29.288 112.701 29.896 113.005 30.664C113.325 31.432 113.477 32.392 113.461 33.544L105.589 33.688C105.589 34.552 105.693 35.328 105.901 36.016C106.125 36.704 106.485 37.248 106.981 37.648C107.477 38.048 108.141 38.248 108.973 38.248C109.293 38.248 109.653 38.192 110.053 38.08C110.469 37.968 110.885 37.784 111.301 37.528C111.733 37.256 112.133 36.896 112.501 36.448L113.581 37.456C113.005 38.272 112.389 38.896 111.733 39.328C111.077 39.744 110.421 40.024 109.765 40.168C109.125 40.312 108.533 40.384 107.989 40.384ZM105.733 32.008H110.149C110.133 31.336 110.037 30.808 109.861 30.424C109.701 30.024 109.477 29.736 109.189 29.56C108.901 29.384 108.565 29.296 108.181 29.296C107.477 29.296 106.925 29.552 106.525 30.064C106.125 30.56 105.861 31.208 105.733 32.008ZM126.984 40.384C125.912 40.384 124.928 40.144 124.032 39.664C123.136 39.184 122.416 38.488 121.872 37.576C121.344 36.664 121.08 35.56 121.08 34.264C121.08 33.352 121.232 32.496 121.536 31.696C121.84 30.896 122.264 30.192 122.808 29.584C123.368 28.976 124.024 28.496 124.776 28.144C125.544 27.792 126.392 27.616 127.32 27.616C128.344 27.616 129.192 27.776 129.864 28.096C130.552 28.4 131.064 28.808 131.4 29.32C131.752 29.816 131.928 30.344 131.928 30.904C131.928 31.368 131.784 31.784 131.496 32.152C131.224 32.504 130.832 32.688 130.32 32.704C129.712 32.72 129.288 32.552 129.048 32.2C128.808 31.832 128.688 31.48 128.688 31.144C128.688 31 128.712 30.832 128.76 30.64C128.808 30.432 128.88 30.248 128.976 30.088C128.864 29.848 128.696 29.672 128.472 29.56C128.248 29.448 128.016 29.376 127.776 29.344C127.552 29.296 127.368 29.28 127.224 29.296C126.456 29.344 125.824 29.728 125.328 30.448C124.832 31.168 124.584 32.208 124.584 33.568C124.584 34.368 124.68 35.12 124.872 35.824C125.08 36.512 125.416 37.08 125.88 37.528C126.344 37.976 126.968 38.216 127.752 38.248C128.424 38.264 129.08 38.104 129.72 37.768C130.36 37.432 130.904 36.976 131.352 36.4L132.456 37.48C131.88 38.28 131.28 38.888 130.656 39.304C130.032 39.72 129.408 40 128.784 40.144C128.176 40.304 127.576 40.384 126.984 40.384ZM139.33 40.384C138.162 40.384 137.13 40.128 136.234 39.616C135.338 39.088 134.642 38.352 134.146 37.408C133.65 36.448 133.402 35.32 133.402 34.024C133.402 32.904 133.65 31.856 134.146 30.88C134.642 29.904 135.338 29.12 136.234 28.528C137.146 27.92 138.202 27.616 139.402 27.616C140.074 27.616 140.73 27.712 141.37 27.904C142.01 28.08 142.586 28.392 143.098 28.84C143.626 29.288 144.042 29.896 144.346 30.664C144.666 31.432 144.818 32.392 144.802 33.544L136.93 33.688C136.93 34.552 137.034 35.328 137.242 36.016C137.466 36.704 137.826 37.248 138.322 37.648C138.818 38.048 139.482 38.248 140.314 38.248C140.634 38.248 140.994 38.192 141.394 38.08C141.81 37.968 142.226 37.784 142.642 37.528C143.074 37.256 143.474 36.896 143.842 36.448L144.922 37.456C144.346 38.272 143.73 38.896 143.074 39.328C142.418 39.744 141.762 40.024 141.106 40.168C140.466 40.312 139.874 40.384 139.33 40.384ZM137.074 32.008H141.49C141.474 31.336 141.378 30.808 141.202 30.424C141.042 30.024 140.818 29.736 140.53 29.56C140.242 29.384 139.906 29.296 139.522 29.296C138.818 29.296 138.266 29.552 137.866 30.064C137.466 30.56 137.202 31.208 137.074 32.008ZM146.456 38.44C146.904 38.44 147.224 38.352 147.416 38.176C147.608 38 147.728 37.752 147.776 37.432C147.84 37.096 147.872 36.72 147.872 36.304V32.272C147.872 31.984 147.88 31.664 147.896 31.312C147.912 30.944 147.936 30.584 147.968 30.232C147.712 30.248 147.408 30.264 147.056 30.28C146.72 30.28 146.464 30.288 146.288 30.304V28.48H147.248C147.872 28.48 148.44 28.4 148.952 28.24C149.48 28.08 149.824 27.92 149.984 27.76H151.16C151.192 27.92 151.216 28.224 151.232 28.672C151.248 29.104 151.256 29.488 151.256 29.824C151.688 29.296 152.096 28.872 152.48 28.552C152.864 28.232 153.24 28 153.608 27.856C153.992 27.696 154.376 27.616 154.76 27.616C155.32 27.616 155.808 27.776 156.224 28.096C156.64 28.4 156.848 28.904 156.848 29.608C156.848 29.848 156.792 30.104 156.68 30.376C156.568 30.632 156.392 30.848 156.152 31.024C155.912 31.2 155.584 31.288 155.168 31.288C154.848 31.288 154.52 31.192 154.184 31C153.848 30.808 153.656 30.44 153.608 29.896C153.288 29.896 152.968 30.032 152.648 30.304C152.328 30.56 152.04 30.872 151.784 31.24C151.544 31.592 151.376 31.92 151.28 32.224V36.136C151.28 36.36 151.272 36.68 151.256 37.096C151.24 37.496 151.216 37.88 151.184 38.248C151.44 38.216 151.72 38.2 152.024 38.2C152.344 38.184 152.584 38.176 152.744 38.176V40H146.456V38.44ZM157.887 38.44C158.335 38.44 158.655 38.352 158.847 38.176C159.039 38 159.159 37.752 159.207 37.432C159.271 37.096 159.303 36.72 159.303 36.304V32.32C159.303 32.032 159.311 31.704 159.327 31.336C159.343 30.952 159.367 30.584 159.399 30.232C159.143 30.248 158.839 30.264 158.487 30.28C158.151 30.28 157.895 30.288 157.719 30.304V28.48C158.455 28.48 159.079 28.44 159.591 28.36C160.103 28.28 160.503 28.184 160.791 28.072C161.095 27.96 161.303 27.856 161.415 27.76H162.711V36.136C162.711 36.36 162.703 36.68 162.687 37.096C162.671 37.496 162.647 37.88 162.615 38.248C162.871 38.216 163.151 38.2 163.455 38.2C163.775 38.184 164.015 38.176 164.175 38.176V40H157.887V38.44ZM160.887 25.864C160.343 25.864 159.895 25.672 159.543 25.288C159.191 24.904 159.015 24.44 159.015 23.896C159.015 23.352 159.199 22.888 159.567 22.504C159.935 22.12 160.367 21.928 160.863 21.928C161.375 21.928 161.799 22.12 162.135 22.504C162.487 22.888 162.663 23.352 162.663 23.896C162.663 24.44 162.503 24.904 162.183 25.288C161.863 25.672 161.431 25.864 160.887 25.864ZM165.639 40V38.44C166.087 38.44 166.407 38.352 166.599 38.176C166.791 38 166.911 37.752 166.959 37.432C167.023 37.096 167.055 36.72 167.055 36.304V32.272C167.055 31.984 167.063 31.664 167.079 31.312C167.095 30.944 167.119 30.584 167.151 30.232C166.895 30.248 166.591 30.264 166.239 30.28C165.903 30.28 165.647 30.288 165.471 30.304V28.48C166.207 28.48 166.831 28.44 167.343 28.36C167.855 28.28 168.255 28.184 168.543 28.072C168.847 27.96 169.055 27.856 169.167 27.76H170.343C170.375 27.92 170.391 28.12 170.391 28.36C170.407 28.6 170.423 28.8 170.439 28.96C170.983 28.544 171.567 28.216 172.191 27.976C172.831 27.736 173.431 27.616 173.991 27.616C174.727 27.616 175.335 27.752 175.815 28.024C176.295 28.28 176.679 28.672 176.967 29.2C177.543 28.72 178.175 28.336 178.863 28.048C179.567 27.76 180.239 27.616 180.879 27.616C182.175 27.616 183.151 27.992 183.807 28.744C184.479 29.48 184.815 30.768 184.815 32.608V36.136C184.815 36.36 184.807 36.68 184.791 37.096C184.775 37.496 184.751 37.88 184.719 38.248C184.975 38.216 185.255 38.2 185.559 38.2C185.879 38.184 186.119 38.176 186.279 38.176V40H180.207V38.44C180.575 38.44 180.839 38.352 180.999 38.176C181.175 38 181.287 37.752 181.335 37.432C181.383 37.096 181.407 36.72 181.407 36.304V32.632C181.391 31.592 181.215 30.872 180.879 30.472C180.559 30.072 180.127 29.864 179.583 29.848C179.167 29.832 178.775 29.904 178.407 30.064C178.055 30.224 177.735 30.416 177.447 30.64C177.527 30.96 177.583 31.312 177.615 31.696C177.647 32.08 177.663 32.488 177.663 32.92C177.663 33.464 177.663 34 177.663 34.528C177.663 35.056 177.663 35.592 177.663 36.136C177.663 36.36 177.655 36.68 177.639 37.096C177.623 37.496 177.599 37.88 177.567 38.248C177.823 38.216 178.103 38.2 178.407 38.2C178.711 38.184 178.951 38.176 179.127 38.176V40H172.935V38.44C173.351 38.44 173.647 38.352 173.823 38.176C174.015 38 174.135 37.752 174.183 37.432C174.231 37.096 174.255 36.72 174.255 36.304L174.231 32.56C174.231 31.52 174.079 30.808 173.775 30.424C173.471 30.04 173.047 29.84 172.503 29.824C172.103 29.824 171.727 29.912 171.375 30.088C171.039 30.264 170.735 30.472 170.463 30.712C170.463 30.92 170.463 31.12 170.463 31.312C170.463 31.504 170.463 31.704 170.463 31.912V36.136C170.463 36.36 170.455 36.68 170.439 37.096C170.423 37.496 170.399 37.88 170.367 38.248C170.623 38.216 170.887 38.2 171.159 38.2C171.431 38.184 171.647 38.176 171.807 38.176V40H165.639ZM193.497 40.384C192.345 40.384 191.305 40.136 190.377 39.64C189.449 39.144 188.713 38.44 188.169 37.528C187.641 36.6 187.377 35.512 187.377 34.264C187.377 32.936 187.649 31.776 188.193 30.784C188.753 29.776 189.489 29 190.401 28.456C191.329 27.896 192.337 27.616 193.425 27.616C194.577 27.616 195.609 27.864 196.521 28.36C197.433 28.856 198.153 29.568 198.681 30.496C199.209 31.408 199.473 32.504 199.473 33.784C199.473 35.128 199.217 36.296 198.705 37.288C198.193 38.28 197.489 39.048 196.593 39.592C195.697 40.12 194.665 40.384 193.497 40.384ZM193.593 38.68C194.233 38.664 194.713 38.44 195.033 38.008C195.369 37.576 195.601 37.032 195.729 36.376C195.857 35.72 195.921 35.056 195.921 34.384C195.921 33.792 195.873 33.192 195.777 32.584C195.697 31.976 195.561 31.424 195.369 30.928C195.177 30.432 194.913 30.032 194.577 29.728C194.257 29.424 193.857 29.28 193.377 29.296C192.753 29.312 192.257 29.536 191.889 29.968C191.537 30.4 191.281 30.944 191.121 31.6C190.977 32.24 190.905 32.912 190.905 33.616C190.905 34.432 190.993 35.232 191.169 36.016C191.345 36.8 191.625 37.448 192.009 37.96C192.409 38.456 192.937 38.696 193.593 38.68ZM194.649 26.44L191.745 23.896C191.537 23.688 191.369 23.448 191.241 23.176C191.113 22.888 191.065 22.6 191.097 22.312C191.145 22.008 191.297 21.744 191.553 21.52C191.809 21.312 192.073 21.216 192.345 21.232C192.633 21.232 192.905 21.312 193.161 21.472C193.417 21.616 193.625 21.824 193.785 22.096L195.753 25.456L194.649 26.44ZM201.111 40V38.44C201.559 38.44 201.879 38.352 202.071 38.176C202.263 38 202.383 37.752 202.431 37.432C202.495 37.096 202.527 36.72 202.527 36.304V32.272C202.527 31.984 202.535 31.664 202.551 31.312C202.567 30.944 202.591 30.584 202.623 30.232C202.367 30.248 202.063 30.264 201.711 30.28C201.375 30.28 201.119 30.288 200.943 30.304V28.48C201.679 28.48 202.303 28.44 202.815 28.36C203.327 28.28 203.727 28.184 204.015 28.072C204.319 27.96 204.527 27.856 204.639 27.76H205.815C205.847 27.968 205.863 28.12 205.863 28.216C205.863 28.312 205.863 28.408 205.863 28.504C205.879 28.584 205.911 28.736 205.959 28.96C206.279 28.704 206.647 28.48 207.063 28.288C207.479 28.08 207.895 27.92 208.311 27.808C208.727 27.68 209.095 27.616 209.415 27.616C210.887 27.616 211.927 28.04 212.535 28.888C213.159 29.72 213.471 31.064 213.471 32.92V36.136C213.471 36.36 213.463 36.68 213.447 37.096C213.431 37.496 213.407 37.88 213.375 38.248C213.647 38.216 213.935 38.2 214.239 38.2C214.543 38.184 214.775 38.176 214.935 38.176V40H208.647V38.44C209.095 38.44 209.415 38.352 209.607 38.176C209.815 38 209.943 37.752 209.991 37.432C210.055 37.096 210.087 36.72 210.087 36.304L210.063 32.896C210.063 31.856 209.911 31.088 209.607 30.592C209.319 30.08 208.823 29.824 208.119 29.824C207.719 29.824 207.319 29.912 206.919 30.088C206.535 30.264 206.207 30.472 205.935 30.712C205.935 30.936 205.935 31.168 205.935 31.408C205.935 31.632 205.935 31.856 205.935 32.08V36.136C205.935 36.36 205.927 36.68 205.911 37.096C205.895 37.496 205.871 37.88 205.839 38.248C206.095 38.216 206.375 38.2 206.679 38.2C206.999 38.184 207.239 38.176 207.399 38.176V40H201.111ZM216.268 38.44C216.716 38.44 217.036 38.352 217.228 38.176C217.42 38 217.54 37.752 217.588 37.432C217.652 37.096 217.684 36.72 217.684 36.304V32.32C217.684 32.032 217.692 31.704 217.708 31.336C217.724 30.952 217.748 30.584 217.78 30.232C217.524 30.248 217.22 30.264 216.868 30.28C216.532 30.28 216.276 30.288 216.1 30.304V28.48C216.836 28.48 217.46 28.44 217.972 28.36C218.484 28.28 218.884 28.184 219.172 28.072C219.476 27.96 219.684 27.856 219.796 27.76H221.092V36.136C221.092 36.36 221.084 36.68 221.068 37.096C221.052 37.496 221.028 37.88 220.996 38.248C221.252 38.216 221.532 38.2 221.836 38.2C222.156 38.184 222.396 38.176 222.556 38.176V40H216.268V38.44ZM219.268 25.864C218.724 25.864 218.276 25.672 217.924 25.288C217.572 24.904 217.396 24.44 217.396 23.896C217.396 23.352 217.58 22.888 217.948 22.504C218.316 22.12 218.748 21.928 219.244 21.928C219.756 21.928 220.18 22.12 220.516 22.504C220.868 22.888 221.044 23.352 221.044 23.896C221.044 24.44 220.884 24.904 220.564 25.288C220.244 25.672 219.812 25.864 219.268 25.864ZM229.708 40.384C228.54 40.384 227.508 40.128 226.612 39.616C225.716 39.088 225.02 38.352 224.524 37.408C224.028 36.448 223.78 35.32 223.78 34.024C223.78 32.904 224.028 31.856 224.524 30.88C225.02 29.904 225.716 29.12 226.612 28.528C227.524 27.92 228.58 27.616 229.78 27.616C230.452 27.616 231.108 27.712 231.748 27.904C232.388 28.08 232.964 28.392 233.476 28.84C234.004 29.288 234.42 29.896 234.724 30.664C235.044 31.432 235.196 32.392 235.18 33.544L227.308 33.688C227.308 34.552 227.412 35.328 227.62 36.016C227.844 36.704 228.204 37.248 228.7 37.648C229.196 38.048 229.86 38.248 230.692 38.248C231.012 38.248 231.372 38.192 231.772 38.08C232.188 37.968 232.604 37.784 233.02 37.528C233.452 37.256 233.852 36.896 234.22 36.448L235.3 37.456C234.724 38.272 234.108 38.896 233.452 39.328C232.796 39.744 232.14 40.024 231.484 40.168C230.844 40.312 230.252 40.384 229.708 40.384ZM227.452 32.008H231.868C231.852 31.336 231.756 30.808 231.58 30.424C231.42 30.024 231.196 29.736 230.908 29.56C230.62 29.384 230.284 29.296 229.9 29.296C229.196 29.296 228.644 29.552 228.244 30.064C227.844 30.56 227.58 31.208 227.452 32.008ZM242.354 40.384C241.666 40.384 240.994 40.296 240.338 40.12C239.682 39.944 239.17 39.72 238.802 39.448L238.85 40.168H237.026L236.93 36.04H238.49C238.538 36.52 238.73 36.96 239.066 37.36C239.402 37.76 239.842 38.08 240.386 38.32C240.93 38.544 241.538 38.656 242.21 38.656C242.482 38.656 242.738 38.616 242.978 38.536C243.234 38.456 243.442 38.328 243.602 38.152C243.778 37.96 243.866 37.728 243.866 37.456C243.866 37.152 243.754 36.904 243.53 36.712C243.322 36.52 243.01 36.336 242.594 36.16C242.194 35.984 241.69 35.784 241.082 35.56C240.586 35.368 240.082 35.168 239.57 34.96C239.074 34.752 238.61 34.504 238.178 34.216C237.762 33.912 237.426 33.544 237.17 33.112C236.914 32.664 236.786 32.12 236.786 31.48C236.786 31.016 236.874 30.56 237.05 30.112C237.226 29.648 237.498 29.232 237.866 28.864C238.234 28.48 238.698 28.176 239.258 27.952C239.834 27.728 240.514 27.616 241.298 27.616C241.73 27.616 242.218 27.688 242.762 27.832C243.322 27.96 243.794 28.16 244.178 28.432V27.736H246.002V31.984H244.442C244.346 31.424 244.146 30.944 243.842 30.544C243.554 30.144 243.178 29.84 242.714 29.632C242.25 29.408 241.73 29.296 241.154 29.296C240.754 29.296 240.386 29.392 240.05 29.584C239.73 29.776 239.57 30.104 239.57 30.568C239.57 30.936 239.698 31.232 239.954 31.456C240.21 31.664 240.562 31.84 241.01 31.984C241.458 32.128 241.954 32.296 242.498 32.488C243.314 32.76 244.034 33.08 244.658 33.448C245.298 33.816 245.802 34.264 246.17 34.792C246.538 35.304 246.722 35.936 246.722 36.688C246.722 37.52 246.514 38.208 246.098 38.752C245.682 39.296 245.138 39.704 244.466 39.976C243.81 40.248 243.106 40.384 242.354 40.384Z" fill="#E11D48"/>
</svg>

