<svg width="73" height="35" viewBox="0 0 73 35" fill="none" xmlns="http://www.w3.org/2000/svg">
<path d="M7.86142 4.224C7.86142 3.70133 7.79609 3.272 7.66542 2.936C7.53475 2.59067 7.33875 2.334 7.07742 2.166C6.82542 1.998 6.50342 1.91867 6.11142 1.928H5.25742V8.844C5.25742 9.096 5.25275 9.32933 5.24342 9.544C5.23409 9.75867 5.22009 9.92667 5.20142 10.048C5.37875 10.0387 5.57942 10.0293 5.80342 10.02C6.03675 10.0107 6.21409 10.006 6.33542 10.006V10.93H2.51342V10.16C2.77475 10.1507 2.97542 10.104 3.11542 10.02C3.25542 9.936 3.35342 9.796 3.40942 9.6C3.46542 9.404 3.49342 9.12867 3.49342 8.774L3.50742 1.942H2.59742C2.04675 1.95133 1.62675 2.138 1.33742 2.502C1.04809 2.866 0.903421 3.44 0.903421 4.224H0.119421L0.189421 1.13H8.57542L8.65942 4.224H7.86142Z" fill="#0F172A"/>
<path d="M12.2666 11.154C11.6039 11.154 11.0019 11.0093 10.4606 10.72C9.91928 10.4213 9.48994 10.006 9.17261 9.474C8.86461 8.93267 8.71061 8.30267 8.71061 7.584C8.71061 6.828 8.86927 6.156 9.18661 5.568C9.50394 4.98 9.92861 4.52267 10.4606 4.196C11.0019 3.86933 11.5946 3.706 12.2386 3.706C12.9013 3.706 13.4986 3.85533 14.0306 4.154C14.5626 4.45267 14.9826 4.868 15.2906 5.4C15.6079 5.932 15.7666 6.562 15.7666 7.29C15.7666 8.05533 15.6126 8.732 15.3046 9.32C15.0059 9.89867 14.5906 10.3513 14.0586 10.678C13.5359 10.9953 12.9386 11.154 12.2666 11.154ZM12.3366 10.3C12.7566 10.3 13.0786 10.1693 13.3026 9.908C13.5266 9.64667 13.6806 9.31533 13.7646 8.914C13.8579 8.50333 13.9046 8.08333 13.9046 7.654C13.9046 7.29 13.8719 6.92133 13.8066 6.548C13.7506 6.17467 13.6573 5.83867 13.5266 5.54C13.3959 5.232 13.2233 4.98933 13.0086 4.812C12.7939 4.62533 12.5326 4.532 12.2246 4.532C11.8139 4.54133 11.4873 4.67667 11.2446 4.938C11.0019 5.19933 10.8246 5.53067 10.7126 5.932C10.6099 6.33333 10.5586 6.758 10.5586 7.206C10.5586 7.71 10.6193 8.20467 10.7406 8.69C10.8619 9.166 11.0533 9.558 11.3146 9.866C11.5759 10.1647 11.9166 10.3093 12.3366 10.3Z" fill="#0F172A"/>
<path d="M16.8343 10.93V10.188C17.105 10.188 17.2963 10.132 17.4083 10.02C17.5203 9.89867 17.5903 9.73067 17.6183 9.516C17.6463 9.30133 17.6603 9.05867 17.6603 8.788V6.156C17.6603 5.988 17.665 5.81067 17.6743 5.624C17.6837 5.43733 17.6977 5.246 17.7163 5.05C17.567 5.05933 17.3943 5.06867 17.1983 5.078C17.0117 5.08733 16.8577 5.09667 16.7363 5.106V4.196C17.1563 4.196 17.5017 4.17733 17.7723 4.14C18.043 4.09333 18.253 4.03733 18.4023 3.972C18.5517 3.90667 18.659 3.846 18.7243 3.79H19.3123C19.331 3.89267 19.3403 3.97667 19.3403 4.042C19.3403 4.10733 19.345 4.17733 19.3543 4.252C19.3637 4.31733 19.3777 4.41533 19.3963 4.546C19.583 4.38733 19.7977 4.24733 20.0403 4.126C20.2923 3.99533 20.5443 3.89267 20.7963 3.818C21.0483 3.74333 21.2817 3.706 21.4963 3.706C22.3363 3.706 22.9383 3.95333 23.3023 4.448C23.6663 4.94267 23.8483 5.73133 23.8483 6.814V8.928C23.8483 9.07733 23.8437 9.25933 23.8343 9.474C23.8343 9.67933 23.8203 9.88 23.7923 10.076C23.951 10.0573 24.1143 10.048 24.2823 10.048C24.4503 10.0387 24.5903 10.034 24.7023 10.034V10.93H21.3003V10.188C21.571 10.188 21.7623 10.132 21.8743 10.02C21.9957 9.89867 22.0703 9.73067 22.0983 9.516C22.1263 9.30133 22.1403 9.05867 22.1403 8.788L22.1263 6.8C22.1263 6.128 22.0237 5.62867 21.8183 5.302C21.6223 4.966 21.2957 4.798 20.8383 4.798C20.5677 4.80733 20.3017 4.87267 20.0403 4.994C19.779 5.11533 19.5597 5.26933 19.3823 5.456C19.3917 5.568 19.3963 5.68467 19.3963 5.806C19.3963 5.92733 19.3963 6.04867 19.3963 6.17L19.3823 8.928C19.3823 9.07733 19.3777 9.25933 19.3683 9.474C19.3683 9.67933 19.3543 9.88 19.3263 10.076C19.4757 10.0573 19.6343 10.048 19.8023 10.048C19.9797 10.0387 20.1243 10.034 20.2363 10.034V10.93H16.8343Z" fill="#0F172A"/>
<path d="M25.598 10.188C25.8687 10.188 26.06 10.132 26.172 10.02C26.284 9.89867 26.354 9.73067 26.382 9.516C26.41 9.30133 26.424 9.05867 26.424 8.788V6.17C26.424 6.01133 26.4287 5.83867 26.438 5.652C26.4473 5.456 26.4613 5.25533 26.48 5.05C26.3213 5.05933 26.1487 5.06867 25.962 5.078C25.7753 5.08733 25.6213 5.09667 25.5 5.106V4.196C25.92 4.196 26.2653 4.17733 26.536 4.14C26.816 4.09333 27.0307 4.03733 27.18 3.972C27.3387 3.90667 27.4507 3.846 27.516 3.79H28.146V8.928C28.146 9.07733 28.1413 9.25933 28.132 9.474C28.132 9.67933 28.118 9.88 28.09 10.076C28.2393 10.0573 28.398 10.048 28.566 10.048C28.7433 10.0387 28.888 10.034 29 10.034V10.93H25.598V10.188ZM27.208 2.586C26.9373 2.586 26.7087 2.488 26.522 2.292C26.3353 2.08667 26.242 1.83933 26.242 1.55C26.242 1.26067 26.3353 1.01333 26.522 0.808C26.718 0.602667 26.9467 0.5 27.208 0.5C27.4787 0.5 27.7027 0.602667 27.88 0.808C28.0667 1.01333 28.16 1.26067 28.16 1.55C28.16 1.83933 28.0713 2.08667 27.894 2.292C27.7167 2.488 27.488 2.586 27.208 2.586Z" fill="#0F172A"/>
<path d="M0 29.3986V28.2618C0.39154 28.248 0.692187 28.186 0.901941 28.0758C1.11169 27.9518 1.25852 27.7451 1.34242 27.4557C1.42632 27.1526 1.46828 26.7392 1.46828 26.2156V17.9685C1.46828 17.624 1.47527 17.2933 1.48925 16.9764C1.51722 16.6594 1.53819 16.4114 1.55218 16.2323C1.31446 16.2461 1.04178 16.2598 0.734138 16.2736C0.426499 16.2736 0.181787 16.2805 0 16.2943V14.9301H10.236L10.3409 18.8159H9.18721C9.18721 18.0305 9.05437 17.4449 8.78868 17.0591C8.52299 16.6594 8.18738 16.3907 7.78186 16.253C7.37634 16.1152 6.96382 16.0532 6.54431 16.0669L5.51652 16.0876C5.15295 16.1014 4.86628 16.1703 4.65653 16.2943C4.46076 16.4183 4.32093 16.6319 4.23702 16.935C4.15312 17.2244 4.11117 17.624 4.11117 18.1339V21.7303H6.75407L6.64919 19.9528H8.03357V24.748H6.9009C6.9009 24.1555 6.81 23.7283 6.62822 23.4665C6.44643 23.2047 6.18773 23.0463 5.85213 22.9911C5.53051 22.9222 5.14596 22.9016 4.69848 22.9291L4.11117 22.9498V26.3189C4.11117 26.6909 4.10418 27.0354 4.0902 27.3524C4.07621 27.6693 4.05524 27.9173 4.02727 28.0965C4.20906 28.0827 4.41881 28.0758 4.65653 28.0758C4.90824 28.062 5.15295 28.0551 5.39067 28.0551C5.64237 28.0413 5.83814 28.0344 5.97798 28.0344V29.3986H0Z" fill="#E11D48"/>
<path d="M11.425 28.3031C11.8305 28.3031 12.1172 28.2205 12.285 28.0551C12.4528 27.876 12.5577 27.628 12.5996 27.311C12.6416 26.9941 12.6626 26.6358 12.6626 26.2362V22.3711C12.6626 22.1368 12.6696 21.8819 12.6835 21.6063C12.6975 21.3169 12.7185 21.0207 12.7465 20.7175C12.5087 20.7313 12.2501 20.7451 11.9704 20.7589C11.6907 20.7726 11.46 20.7864 11.2782 20.8002V19.4567C11.9075 19.4567 12.4248 19.4291 12.8304 19.374C13.2499 19.3051 13.5715 19.2224 13.7952 19.126C14.033 19.0295 14.2008 18.94 14.2986 18.8573H15.2425V26.4429C15.2425 26.6634 15.2355 26.9321 15.2216 27.249C15.2216 27.5522 15.2006 27.8484 15.1586 28.1378C15.3824 28.1102 15.6201 28.0965 15.8718 28.0965C16.1375 28.0827 16.3542 28.0758 16.522 28.0758V29.3986H11.425V28.3031ZM13.8372 17.0797C13.4317 17.0797 13.0891 16.935 12.8094 16.6457C12.5297 16.3425 12.3899 15.9774 12.3899 15.5502C12.3899 15.123 12.5297 14.7579 12.8094 14.4547C13.103 14.1516 13.4456 14 13.8372 14C14.2427 14 14.5783 14.1516 14.844 14.4547C15.1237 14.7579 15.2635 15.123 15.2635 15.5502C15.2635 15.9774 15.1307 16.3425 14.865 16.6457C14.5993 16.935 14.2567 17.0797 13.8372 17.0797Z" fill="#E11D48"/>
<path d="M22.6578 35C21.4273 35 20.4484 34.8691 19.7213 34.6073C19.0081 34.3455 18.4907 34.001 18.1691 33.5738C17.8615 33.1604 17.7076 32.7264 17.7076 32.2717C17.7076 31.9272 17.7845 31.6033 17.9384 31.3002C18.0922 31.0108 18.3159 30.7352 18.6096 30.4734C18.9032 30.2116 19.2598 30.0049 19.6793 29.8533C19.1479 29.7018 18.7634 29.4744 18.5257 29.1713C18.288 28.8543 18.1691 28.4961 18.1691 28.0965C18.1691 27.6968 18.3299 27.2766 18.6515 26.8356C18.9871 26.3947 19.5115 26.0846 20.2247 25.9055C19.6234 25.6437 19.127 25.2579 18.7354 24.748C18.3579 24.2382 18.1621 23.6319 18.1481 22.9291C18.1341 22.1024 18.3439 21.372 18.7774 20.7382C19.2249 20.1043 19.8052 19.6152 20.5183 19.2707C21.2315 18.9124 21.9726 18.7333 22.7417 18.7333C23.1333 18.7333 23.5668 18.7884 24.0422 18.8986C24.5176 19.0089 24.9371 19.1811 25.3007 19.4154C25.4406 19.002 25.6363 18.623 25.888 18.2785C26.1397 17.9203 26.4334 17.6309 26.769 17.4104C27.1186 17.19 27.5031 17.0797 27.9226 17.0797C28.3561 17.0797 28.6847 17.19 28.9085 17.4104C29.1322 17.6309 29.2441 17.9272 29.2441 18.2992C29.2441 18.4508 29.2091 18.6161 29.1392 18.7953C29.0693 18.9744 28.9504 19.126 28.7826 19.25C28.6148 19.374 28.3841 19.436 28.0904 19.436C27.8667 19.436 27.6569 19.3602 27.4612 19.2087C27.2794 19.0571 27.1675 18.8711 27.1256 18.6506C26.8878 18.7057 26.6711 18.878 26.4753 19.1673C26.2935 19.4567 26.1817 19.7323 26.1397 19.9941C26.5173 20.3248 26.8109 20.7175 27.0207 21.1722C27.2304 21.6132 27.3353 22.0886 27.3353 22.5984C27.3353 23.3839 27.1116 24.0866 26.6641 24.7067C26.2306 25.313 25.6573 25.7884 24.9441 26.1329C24.245 26.4774 23.4898 26.6496 22.6788 26.6496C22.469 26.6496 22.2593 26.6427 22.0495 26.6289C21.8398 26.6014 21.616 26.5876 21.3783 26.5876C21.0008 26.5876 20.6861 26.6634 20.4344 26.815C20.1967 26.9665 20.0918 27.1663 20.1198 27.4144C20.1618 27.7037 20.4135 27.8967 20.8749 27.9931C21.3364 28.0758 22.0495 28.1447 23.0144 28.1998C24.0911 28.2549 25.028 28.3858 25.8251 28.5925C26.6222 28.7992 27.2374 29.123 27.6709 29.564C28.1044 30.0187 28.3212 30.6388 28.3212 31.4242C28.3212 32.003 28.1534 32.5128 27.8178 32.9537C27.4822 33.3947 27.0347 33.7667 26.4753 34.0699C25.93 34.373 25.3217 34.6004 24.6505 34.752C23.9933 34.9173 23.329 35 22.6578 35ZM23.0564 33.7805C24.1191 33.7805 24.9301 33.5876 25.4895 33.2018C26.0488 32.8159 26.3285 32.3957 26.3285 31.9409C26.3285 31.5827 26.1957 31.2933 25.93 31.0728C25.6643 30.8661 25.2867 30.7077 24.7973 30.5974C24.3079 30.4872 23.6996 30.4183 22.9724 30.3907C22.6508 30.377 22.2942 30.3563 21.9027 30.3287C21.5112 30.315 21.1546 30.2805 20.833 30.2254C20.5673 30.4183 20.3575 30.6594 20.2037 30.9488C20.0639 31.2382 19.9939 31.5276 19.9939 31.8169C19.966 32.4094 20.2317 32.8848 20.791 33.2431C21.3504 33.6014 22.1055 33.7805 23.0564 33.7805ZM22.7627 25.4921C23.1822 25.4921 23.5318 25.375 23.8115 25.1407C24.1051 24.8927 24.3219 24.5827 24.4617 24.2106C24.6155 23.8248 24.6924 23.4183 24.6924 22.9911C24.6924 22.4675 24.6225 21.9715 24.4827 21.503C24.3428 21.0207 24.1261 20.6348 23.8324 20.3455C23.5388 20.0423 23.1682 19.8907 22.7207 19.8907C22.0915 19.8907 21.6021 20.1526 21.2525 20.6762C20.9169 21.186 20.7491 21.7923 20.7491 22.4951C20.7491 23.0325 20.826 23.5354 20.9798 24.0039C21.1476 24.4587 21.3783 24.8238 21.672 25.0994C21.9796 25.3612 22.3432 25.4921 22.7627 25.4921Z" fill="#E11D48"/>
<path d="M33.9775 29.7293C33.1664 29.7293 32.5022 29.5778 31.9848 29.2746C31.4814 28.9715 31.1108 28.4892 30.8731 27.8278C30.6354 27.1526 30.5165 26.2707 30.5165 25.1821V22.3711C30.5165 22.1368 30.5235 21.875 30.5375 21.5856C30.5515 21.2963 30.5655 21.0069 30.5795 20.7175C30.3557 20.7313 30.104 20.7451 29.8243 20.7589C29.5447 20.7589 29.3139 20.7657 29.1322 20.7795V19.4567H29.4887C30.2578 19.4567 30.8521 19.3947 31.2716 19.2707C31.7051 19.1329 31.9988 18.9951 32.1526 18.8573H33.1175V25.1821C33.1175 26.1742 33.2503 26.9114 33.516 27.3937C33.7957 27.876 34.2432 28.1171 34.8584 28.1171C35.2779 28.1033 35.6905 27.9793 36.096 27.7451C36.5155 27.5108 36.8511 27.2352 37.1028 26.9183V22.4537C37.1028 22.1782 37.1098 21.8957 37.1238 21.6063C37.1378 21.3031 37.1587 21.0069 37.1867 20.7175C36.963 20.7313 36.7043 20.7451 36.4106 20.7589C36.1309 20.7589 35.9002 20.7657 35.7184 20.7795V19.4567H36.2638C36.907 19.4567 37.4384 19.3878 37.8579 19.25C38.2914 19.1122 38.5781 18.9813 38.7179 18.8573H39.6828V26.2776C39.6828 26.4705 39.6758 26.753 39.6618 27.125C39.6478 27.497 39.6268 27.8346 39.5989 28.1378C39.8366 28.1102 40.0883 28.0965 40.354 28.0965C40.6197 28.0827 40.8364 28.0689 41.0042 28.0551V29.3986H37.3545C37.3265 29.2057 37.2986 29.0128 37.2706 28.8199C37.2566 28.627 37.2426 28.4409 37.2287 28.2618C36.7952 28.6476 36.3057 28.9921 35.7604 29.2953C35.229 29.5846 34.6347 29.7293 33.9775 29.7293Z" fill="#E11D48"/>
<path d="M47.4505 29.7293C46.4437 29.7293 45.5488 29.5089 44.7657 29.0679C43.9826 28.6132 43.3743 27.9793 42.9408 27.1663C42.5073 26.3396 42.2906 25.3681 42.2906 24.252C42.2906 23.2874 42.5073 22.3848 42.9408 21.5443C43.3743 20.7037 43.9826 20.0285 44.7657 19.5187C45.5628 18.9951 46.4857 18.7333 47.5344 18.7333C48.1218 18.7333 48.6881 18.8159 49.2334 18.9813C49.7788 19.1467 50.2682 19.4222 50.7017 19.8081C51.1352 20.1939 51.4778 20.7037 51.7295 21.3376C51.9952 21.9715 52.1211 22.7431 52.1071 23.6526L45.0593 23.7766C45.0593 24.6309 45.1572 25.3888 45.353 26.0502C45.5628 26.6978 45.8984 27.2146 46.3598 27.6004C46.8213 27.9724 47.4296 28.1585 48.1847 28.1585C48.5203 28.1585 48.8769 28.1033 49.2544 27.9931C49.646 27.8691 50.0305 27.69 50.4081 27.4557C50.7856 27.2077 51.1212 26.9045 51.4149 26.5463L52.2119 27.2697C51.7505 27.9311 51.2401 28.4409 50.6807 28.7992C50.1214 29.1575 49.5621 29.3986 49.0027 29.5226C48.4434 29.6604 47.926 29.7293 47.4505 29.7293ZM45.1642 22.5364H49.5271C49.5131 21.9852 49.4292 21.5236 49.2754 21.1516C49.1356 20.7657 48.9258 20.4764 48.6461 20.2835C48.3665 20.0768 48.0239 19.9734 47.6183 19.9734C46.9331 19.9734 46.3808 20.2008 45.9613 20.6555C45.5558 21.0965 45.2901 21.7234 45.1642 22.5364Z" fill="#E11D48"/>
<path d="M53.7445 28.3031C54.15 28.3031 54.4366 28.2205 54.6044 28.0551C54.7723 27.876 54.8771 27.628 54.9191 27.311C54.961 26.9941 54.982 26.6358 54.982 26.2362V22.3504C54.982 22.1024 54.989 21.8406 55.003 21.565C55.017 21.2894 55.0379 21.0069 55.0659 20.7175C54.8282 20.7313 54.5695 20.7451 54.2898 20.7589C54.0101 20.7589 53.7794 20.7657 53.5976 20.7795V19.4567H54.3737C54.9331 19.4567 55.4015 19.3947 55.7791 19.2707C56.1566 19.1329 56.4223 18.9951 56.5761 18.8573H57.4571C57.4851 19.0226 57.506 19.2844 57.52 19.6427C57.534 20.001 57.541 20.3593 57.541 20.7175C57.8626 20.3041 58.1982 19.9528 58.5478 19.6634C58.8974 19.3602 59.254 19.1329 59.6176 18.9813C59.9951 18.8159 60.3797 18.7333 60.7712 18.7333C61.2187 18.7333 61.6102 18.8573 61.9458 19.1053C62.2954 19.3533 62.4702 19.753 62.4702 20.3041C62.4702 20.4833 62.4213 20.6762 62.3234 20.8829C62.2395 21.0896 62.0996 21.2618 61.9039 21.3996C61.7221 21.5374 61.4704 21.6063 61.1488 21.6063C60.8551 21.6063 60.5754 21.5167 60.3097 21.3376C60.058 21.1447 59.9252 20.8415 59.9112 20.4281C59.6176 20.4144 59.3099 20.5177 58.9883 20.7382C58.6807 20.9587 58.401 21.2274 58.1493 21.5443C57.8976 21.8612 57.7018 22.185 57.562 22.5157L57.5829 26.4429C57.5829 26.6634 57.576 26.9321 57.562 27.249C57.548 27.5522 57.527 27.8484 57.499 28.1378C57.7228 28.1102 57.9605 28.0965 58.2122 28.0965C58.4639 28.0827 58.6737 28.0758 58.8415 28.0758V29.3986H53.7445V28.3031Z" fill="#E11D48"/>
<path d="M69.3713 29.3986C69.3293 29.1919 69.3014 29.0197 69.2874 28.8819C69.2874 28.7303 69.2804 28.5581 69.2664 28.3652C68.7909 28.8337 68.2805 29.1781 67.7352 29.3986C67.2038 29.6191 66.6515 29.7293 66.0781 29.7293C65.1273 29.7293 64.3931 29.4744 63.8757 28.9646C63.3723 28.4547 63.1206 27.8278 63.1206 27.0837C63.1206 26.4222 63.3024 25.8642 63.666 25.4094C64.0295 24.9409 64.505 24.562 65.0923 24.2726C65.6796 23.9695 66.3298 23.7421 67.043 23.5906C67.7562 23.4252 68.4623 23.3356 69.1615 23.3219V22.185C69.1615 21.7854 69.1126 21.4203 69.0147 21.0896C68.9308 20.7451 68.77 20.4764 68.5322 20.2835C68.2945 20.0768 67.9449 19.9734 67.4835 19.9734C67.1758 19.9872 66.8612 20.0561 66.5396 20.1801C66.232 20.2904 65.9872 20.4695 65.8055 20.7175C65.9173 20.8415 65.9872 20.9793 66.0152 21.1309C66.0432 21.2687 66.0572 21.3927 66.0572 21.503C66.0572 21.751 65.9593 22.0128 65.7635 22.2884C65.5677 22.5502 65.2531 22.6742 64.8196 22.6604C64.4421 22.6467 64.1484 22.5157 63.9386 22.2677C63.7429 22.0197 63.645 21.7234 63.645 21.3789C63.645 20.8553 63.8338 20.4006 64.2113 20.0148C64.6029 19.6152 65.1273 19.3051 65.7845 19.0846C66.4417 18.8504 67.1758 18.7333 67.9869 18.7333C69.1895 18.7333 70.1124 19.0433 70.7556 19.6634C71.3989 20.2835 71.7135 21.2756 71.6995 22.6398C71.6995 23.122 71.6995 23.563 71.6995 23.9626C71.6995 24.3484 71.6925 24.7411 71.6786 25.1407C71.6786 25.5266 71.6786 25.9606 71.6786 26.4429C71.6786 26.6496 71.6716 26.9114 71.6576 27.2283C71.6436 27.5315 71.6226 27.8346 71.5947 28.1378C71.8464 28.1102 72.0981 28.0965 72.3498 28.0965C72.6155 28.0827 72.8322 28.0689 73 28.0551V29.3986H69.3713ZM69.1405 24.5413C68.721 24.5689 68.3085 24.6378 67.903 24.748C67.4975 24.8445 67.1339 24.9823 66.8123 25.1614C66.4907 25.3406 66.232 25.5679 66.0362 25.8435C65.8544 26.1053 65.7705 26.4085 65.7845 26.753C65.7985 27.1801 65.9383 27.497 66.204 27.7037C66.4697 27.8967 66.7773 27.9931 67.1269 27.9931C67.5324 27.9931 67.896 27.9104 68.2176 27.7451C68.5532 27.5797 68.8609 27.3593 69.1405 27.0837C69.1405 26.9459 69.1405 26.8012 69.1405 26.6496C69.1405 26.498 69.1405 26.3465 69.1405 26.1949C69.1405 26.002 69.1405 25.7608 69.1405 25.4715C69.1405 25.1821 69.1405 24.872 69.1405 24.5413Z" fill="#E11D48"/>
</svg>

