<svg width="265" height="41" viewBox="0 0 265 41" fill="none" xmlns="http://www.w3.org/2000/svg">
<path d="M11.34 6.52C11.34 5.8 11.24 5.20667 11.04 4.74C10.84 4.26 10.5533 3.90667 10.18 3.68C9.82 3.44 9.38667 3.32667 8.88 3.34H7.92V12.72C7.92 13.08 7.91333 13.4267 7.9 13.76C7.88667 14.0933 7.86667 14.3467 7.84 14.52C8.06667 14.4933 8.35333 14.48 8.7 14.48C9.06 14.4667 9.30667 14.46 9.44 14.46V16H3.6V14.68C3.90667 14.6667 4.16 14.6267 4.36 14.56C4.57333 14.4933 4.73333 14.34 4.84 14.1C4.96 13.86 5.02 13.4733 5.02 12.94V3.36H4.1C3.34 3.37333 2.74 3.63333 2.3 4.14C1.86 4.64667 1.64 5.44 1.64 6.52H0.32L0.42 2H12.54L12.66 6.52H11.34ZM17.7122 16.32C16.7522 16.32 15.8855 16.1133 15.1122 15.7C14.3389 15.2867 13.7255 14.7 13.2722 13.94C12.8322 13.1667 12.6122 12.26 12.6122 11.22C12.6122 10.1133 12.8389 9.14667 13.2922 8.32C13.7589 7.48 14.3722 6.83333 15.1322 6.38C15.9055 5.91333 16.7455 5.68 17.6522 5.68C18.6122 5.68 19.4722 5.88667 20.2322 6.3C20.9922 6.71333 21.5922 7.30667 22.0322 8.08C22.4722 8.84 22.6922 9.75333 22.6922 10.82C22.6922 11.94 22.4789 12.9133 22.0522 13.74C21.6255 14.5667 21.0389 15.2067 20.2922 15.66C19.5455 16.1 18.6855 16.32 17.7122 16.32ZM17.7922 14.9C18.3255 14.8867 18.7255 14.7 18.9922 14.34C19.2722 13.98 19.4655 13.5267 19.5722 12.98C19.6789 12.4333 19.7322 11.88 19.7322 11.32C19.7322 10.8267 19.6922 10.3267 19.6122 9.82C19.5455 9.31333 19.4322 8.85333 19.2722 8.44C19.1122 8.02667 18.8922 7.69333 18.6122 7.44C18.3455 7.18667 18.0122 7.06667 17.6122 7.08C17.0922 7.09333 16.6789 7.28 16.3722 7.64C16.0789 8 15.8655 8.45333 15.7322 9C15.6122 9.53333 15.5522 10.0933 15.5522 10.68C15.5522 11.36 15.6255 12.0267 15.7722 12.68C15.9189 13.3333 16.1522 13.8733 16.4722 14.3C16.8055 14.7133 17.2455 14.9133 17.7922 14.9ZM24.1403 16V14.7C24.5136 14.7 24.7803 14.6267 24.9403 14.48C25.1003 14.3333 25.2003 14.1267 25.2403 13.86C25.2936 13.58 25.3203 13.2667 25.3203 12.92V9.56C25.3203 9.32 25.327 9.05333 25.3403 8.76C25.3536 8.45333 25.3736 8.15333 25.4003 7.86C25.187 7.87333 24.9336 7.88667 24.6403 7.9C24.3603 7.9 24.147 7.90667 24.0003 7.92V6.4C24.6136 6.4 25.1336 6.36667 25.5603 6.3C25.987 6.23333 26.3203 6.15333 26.5603 6.06C26.8136 5.96667 26.987 5.88 27.0803 5.8H28.0603C28.087 5.97333 28.1003 6.1 28.1003 6.18C28.1003 6.26 28.1003 6.34 28.1003 6.42C28.1136 6.48667 28.1403 6.61333 28.1803 6.8C28.447 6.58667 28.7536 6.4 29.1003 6.24C29.447 6.06667 29.7936 5.93333 30.1403 5.84C30.487 5.73333 30.7936 5.68 31.0603 5.68C32.287 5.68 33.1536 6.03333 33.6603 6.74C34.1803 7.43333 34.4403 8.55333 34.4403 10.1V12.78C34.4403 12.9667 34.4336 13.2333 34.4203 13.58C34.407 13.9133 34.387 14.2333 34.3603 14.54C34.587 14.5133 34.827 14.5 35.0803 14.5C35.3336 14.4867 35.527 14.48 35.6603 14.48V16H30.4203V14.7C30.7936 14.7 31.0603 14.6267 31.2203 14.48C31.3936 14.3333 31.5003 14.1267 31.5403 13.86C31.5936 13.58 31.6203 13.2667 31.6203 12.92L31.6003 10.08C31.6003 9.21333 31.4736 8.57333 31.2203 8.16C30.9803 7.73333 30.567 7.52 29.9803 7.52C29.647 7.52 29.3136 7.59333 28.9803 7.74C28.6603 7.88667 28.387 8.06 28.1603 8.26C28.1603 8.44667 28.1603 8.64 28.1603 8.84C28.1603 9.02667 28.1603 9.21333 28.1603 9.4V12.78C28.1603 12.9667 28.1536 13.2333 28.1403 13.58C28.127 13.9133 28.107 14.2333 28.0803 14.54C28.2936 14.5133 28.527 14.5 28.7803 14.5C29.047 14.4867 29.247 14.48 29.3803 14.48V16H24.1403ZM36.8552 14.7C37.2285 14.7 37.4952 14.6267 37.6552 14.48C37.8152 14.3333 37.9152 14.1267 37.9552 13.86C38.0085 13.58 38.0352 13.2667 38.0352 12.92V9.6C38.0352 9.36 38.0418 9.08667 38.0552 8.78C38.0685 8.46 38.0885 8.15333 38.1152 7.86C37.9018 7.87333 37.6485 7.88667 37.3552 7.9C37.0752 7.9 36.8618 7.90667 36.7152 7.92V6.4C37.3285 6.4 37.8485 6.36667 38.2752 6.3C38.7018 6.23333 39.0352 6.15333 39.2752 6.06C39.5285 5.96667 39.7018 5.88 39.7952 5.8H40.8752V12.78C40.8752 12.9667 40.8685 13.2333 40.8552 13.58C40.8418 13.9133 40.8218 14.2333 40.7952 14.54C41.0085 14.5133 41.2418 14.5 41.4952 14.5C41.7618 14.4867 41.9618 14.48 42.0952 14.48V16H36.8552V14.7ZM39.3552 4.22C38.9018 4.22 38.5285 4.06 38.2352 3.74C37.9418 3.42 37.7952 3.03333 37.7952 2.58C37.7952 2.12667 37.9485 1.74 38.2552 1.42C38.5618 1.1 38.9218 0.94 39.3352 0.94C39.7618 0.94 40.1152 1.1 40.3952 1.42C40.6885 1.74 40.8352 2.12667 40.8352 2.58C40.8352 3.03333 40.7018 3.42 40.4352 3.74C40.1685 4.06 39.8085 4.22 39.3552 4.22ZM48.832 16V14.68C49.1387 14.6667 49.392 14.6267 49.592 14.56C49.8054 14.4933 49.9654 14.34 50.072 14.1C50.192 13.86 50.252 13.4733 50.252 12.94V5.28C50.252 4.92 50.2587 4.57333 50.272 4.24C50.2987 3.90667 50.3187 3.65333 50.332 3.48C50.1187 3.49333 49.852 3.50667 49.532 3.52C49.212 3.52 48.9787 3.52667 48.832 3.54V2H58.832L58.952 5.88H57.632C57.632 5.14667 57.5054 4.59333 57.252 4.22C56.9987 3.84667 56.6854 3.6 56.312 3.48C55.9387 3.34667 55.572 3.28667 55.212 3.3L54.492 3.32C54.212 3.32 53.972 3.36 53.772 3.44C53.572 3.50667 53.4187 3.66667 53.312 3.92C53.2054 4.16 53.152 4.54 53.152 5.06V8.54H55.212L55.132 6.82H56.672V11.68H55.352C55.352 11.12 55.2654 10.7133 55.092 10.46C54.9187 10.2067 54.6787 10.0533 54.372 10C54.0787 9.93333 53.752 9.90667 53.392 9.92H53.152V12.72C53.152 13.08 53.1454 13.4267 53.132 13.76C53.1187 14.0933 53.0987 14.3467 53.072 14.52C53.2187 14.5067 53.412 14.5 53.652 14.5C53.892 14.4867 54.1254 14.48 54.352 14.48C54.592 14.4667 54.7587 14.46 54.852 14.46V16H48.832ZM59.863 14.7C60.2363 14.7 60.503 14.6267 60.663 14.48C60.823 14.3333 60.923 14.1267 60.963 13.86C61.0163 13.58 61.043 13.2667 61.043 12.92V9.6C61.043 9.36 61.0496 9.08667 61.063 8.78C61.0763 8.46 61.0963 8.15333 61.123 7.86C60.9096 7.87333 60.6563 7.88667 60.363 7.9C60.083 7.9 59.8696 7.90667 59.723 7.92V6.4C60.3363 6.4 60.8563 6.36667 61.283 6.3C61.7096 6.23333 62.043 6.15333 62.283 6.06C62.5363 5.96667 62.7096 5.88 62.803 5.8H63.883V12.78C63.883 12.9667 63.8763 13.2333 63.863 13.58C63.8496 13.9133 63.8296 14.2333 63.803 14.54C64.0163 14.5133 64.2496 14.5 64.503 14.5C64.7696 14.4867 64.9696 14.48 65.103 14.48V16H59.863V14.7ZM62.363 4.22C61.9096 4.22 61.5363 4.06 61.243 3.74C60.9496 3.42 60.803 3.03333 60.803 2.58C60.803 2.12667 60.9563 1.74 61.263 1.42C61.5696 1.1 61.9296 0.94 62.343 0.94C62.7696 0.94 63.123 1.1 63.403 1.42C63.6963 1.74 63.843 2.12667 63.843 2.58C63.843 3.03333 63.7096 3.42 63.443 3.74C63.1763 4.06 62.8163 4.22 62.363 4.22ZM70.7059 21.42C69.5593 21.42 68.6526 21.2933 67.9859 21.04C67.3193 20.8 66.8459 20.48 66.5659 20.08C66.2859 19.68 66.1459 19.2533 66.1459 18.8C66.1459 18.52 66.2059 18.24 66.3259 17.96C66.4459 17.68 66.6393 17.4067 66.9059 17.14C67.1859 16.8867 67.5659 16.6733 68.0459 16.5C67.4993 16.3533 67.1126 16.12 66.8859 15.8C66.6726 15.4667 66.5659 15.1133 66.5659 14.74C66.5659 14.3933 66.7059 14.0067 66.9859 13.58C67.2659 13.14 67.7726 12.8067 68.5059 12.58C67.9459 12.3533 67.4859 12 67.1259 11.52C66.7659 11.04 66.5726 10.46 66.5459 9.78C66.5193 8.98 66.7193 8.27333 67.1459 7.66C67.5726 7.03333 68.1326 6.54667 68.8259 6.2C69.5193 5.85333 70.2459 5.68 71.0059 5.68C71.3526 5.68 71.7526 5.72667 72.2059 5.82C72.6593 5.91333 73.0526 6.07333 73.3859 6.3C73.5326 5.88667 73.7193 5.5 73.9459 5.14C74.1859 4.76667 74.4726 4.46667 74.8059 4.24C75.1393 4 75.5126 3.88 75.9259 3.88C76.3793 3.88 76.7193 4 76.9459 4.24C77.1859 4.46667 77.3059 4.77333 77.3059 5.16C77.3059 5.32 77.2659 5.5 77.1859 5.7C77.1193 5.88667 76.9926 6.04667 76.8059 6.18C76.6326 6.31333 76.3859 6.38 76.0659 6.38C75.8659 6.38 75.6659 6.30667 75.4659 6.16C75.2659 6 75.1459 5.81333 75.1059 5.6C74.9326 5.65333 74.7593 5.82667 74.5859 6.12C74.4126 6.41333 74.3126 6.67333 74.2859 6.9C74.6726 7.23333 74.9659 7.62 75.1659 8.06C75.3659 8.5 75.4659 8.97333 75.4659 9.48C75.4659 10.2533 75.2459 10.94 74.8059 11.54C74.3793 12.1267 73.8193 12.5933 73.1259 12.94C72.4459 13.2733 71.7126 13.44 70.9259 13.44C70.7526 13.44 70.5593 13.4333 70.3459 13.42C70.1326 13.3933 69.9259 13.38 69.7259 13.38C69.4326 13.38 69.1859 13.4333 68.9859 13.54C68.7859 13.6467 68.6859 13.7933 68.6859 13.98C68.6859 14.2333 68.8793 14.4067 69.2659 14.5C69.6526 14.5933 70.3126 14.6667 71.2459 14.72C72.2726 14.7733 73.1659 14.9067 73.9259 15.12C74.6993 15.32 75.2993 15.64 75.7259 16.08C76.1526 16.52 76.3659 17.1267 76.3659 17.9C76.3659 18.4733 76.1993 18.9733 75.8659 19.4C75.5326 19.84 75.0859 20.2067 74.5259 20.5C73.9793 20.8067 73.3726 21.0333 72.7059 21.18C72.0393 21.34 71.3726 21.42 70.7059 21.42ZM71.2859 20.04C72.2326 20.04 72.9459 19.8667 73.4259 19.52C73.9193 19.1733 74.1659 18.8133 74.1659 18.44C74.1659 18.16 74.0593 17.9267 73.8459 17.74C73.6326 17.5667 73.3126 17.4267 72.8859 17.32C72.4726 17.2133 71.9393 17.1467 71.2859 17.12C70.9926 17.0933 70.6526 17.0733 70.2659 17.06C69.8793 17.0467 69.5393 17.0133 69.2459 16.96C69.0459 17.12 68.8926 17.32 68.7859 17.56C68.6793 17.8 68.6193 18.0333 68.6059 18.26C68.5793 18.7933 68.8059 19.22 69.2859 19.54C69.7793 19.8733 70.4459 20.04 71.2859 20.04ZM71.0059 12.1C71.3659 12.1 71.6659 11.9867 71.9059 11.76C72.1593 11.5333 72.3459 11.2467 72.4659 10.9C72.5993 10.5533 72.6659 10.2 72.6659 9.84C72.6659 9.37333 72.6059 8.92667 72.4859 8.5C72.3659 8.06 72.1793 7.70667 71.9259 7.44C71.6859 7.16 71.3726 7.02 70.9859 7.02C70.4526 7.02 70.0393 7.26 69.7459 7.74C69.4526 8.22 69.3059 8.76667 69.3059 9.38C69.3059 9.84667 69.3726 10.2933 69.5059 10.72C69.6393 11.1333 69.8326 11.4667 70.0859 11.72C70.3393 11.9733 70.6459 12.1 71.0059 12.1ZM81.6788 16.32C80.8788 16.32 80.2321 16.1667 79.7388 15.86C79.2588 15.5533 78.9054 15.0733 78.6788 14.42C78.4654 13.7667 78.3588 12.9267 78.3588 11.9V9.6C78.3588 9.36 78.3654 9.08667 78.3788 8.78C78.3921 8.46 78.4054 8.15333 78.4188 7.86C78.2054 7.87333 77.9521 7.88667 77.6588 7.9C77.3788 7.9 77.1654 7.90667 77.0188 7.92V6.4H77.2188C78.0454 6.4 78.6988 6.33333 79.1788 6.2C79.6588 6.06667 79.9654 5.93333 80.0988 5.8H81.1988V11.92C81.1988 12.7867 81.3121 13.4333 81.5388 13.86C81.7654 14.2733 82.1254 14.48 82.6188 14.48C82.9654 14.48 83.3121 14.3867 83.6588 14.2C84.0188 14 84.3121 13.7733 84.5388 13.52V9.6C84.5388 9.36 84.5454 9.08667 84.5588 8.78C84.5721 8.46 84.5921 8.15333 84.6188 7.86C84.4054 7.87333 84.1521 7.88667 83.8588 7.9C83.5788 7.9 83.3654 7.90667 83.2188 7.92V6.4H83.6988C84.3254 6.4 84.8788 6.33333 85.3588 6.2C85.8388 6.05333 86.1454 5.92 86.2788 5.8H87.3788V12.78C87.3788 12.9667 87.3721 13.2333 87.3588 13.58C87.3454 13.9133 87.3254 14.2333 87.2988 14.54C87.5121 14.5133 87.7454 14.5 87.9988 14.5C88.2654 14.4867 88.4654 14.48 88.5988 14.48V16H84.7988C84.7854 15.8267 84.7654 15.6533 84.7388 15.48C84.7254 15.3067 84.7054 15.1333 84.6788 14.96C84.2654 15.3067 83.8188 15.62 83.3388 15.9C82.8721 16.18 82.3188 16.32 81.6788 16.32ZM94.642 16.32C93.6687 16.32 92.8087 16.1067 92.062 15.68C91.3154 15.24 90.7354 14.6267 90.322 13.84C89.9087 13.04 89.702 12.1 89.702 11.02C89.702 10.0867 89.9087 9.21333 90.322 8.4C90.7354 7.58667 91.3154 6.93333 92.062 6.44C92.822 5.93333 93.702 5.68 94.702 5.68C95.262 5.68 95.8087 5.76 96.342 5.92C96.8754 6.06667 97.3554 6.32667 97.782 6.7C98.222 7.07333 98.5687 7.58 98.822 8.22C99.0887 8.86 99.2154 9.66 99.202 10.62L92.642 10.74C92.642 11.46 92.7287 12.1067 92.902 12.68C93.0887 13.2533 93.3887 13.7067 93.802 14.04C94.2154 14.3733 94.7687 14.54 95.462 14.54C95.7287 14.54 96.0287 14.4933 96.362 14.4C96.7087 14.3067 97.0554 14.1533 97.402 13.94C97.762 13.7133 98.0954 13.4133 98.402 13.04L99.302 13.88C98.822 14.56 98.3087 15.08 97.762 15.44C97.2154 15.7867 96.6687 16.02 96.122 16.14C95.5887 16.26 95.0954 16.32 94.642 16.32ZM92.762 9.34H96.442C96.4287 8.78 96.3487 8.34 96.202 8.02C96.0687 7.68667 95.882 7.44667 95.642 7.3C95.402 7.15333 95.122 7.08 94.802 7.08C94.2154 7.08 93.7554 7.29333 93.422 7.72C93.0887 8.13333 92.8687 8.67333 92.762 9.34ZM100.664 14.7C101.037 14.7 101.304 14.6267 101.464 14.48C101.624 14.3333 101.724 14.1267 101.764 13.86C101.817 13.58 101.844 13.2667 101.844 12.92V9.56C101.844 9.32 101.85 9.05333 101.864 8.76C101.877 8.45333 101.897 8.15333 101.924 7.86C101.71 7.87333 101.457 7.88667 101.164 7.9C100.884 7.9 100.67 7.90667 100.524 7.92V6.4H101.324C101.844 6.4 102.317 6.33333 102.744 6.2C103.184 6.06667 103.47 5.93333 103.604 5.8H104.584C104.61 5.93333 104.63 6.18667 104.644 6.56C104.657 6.92 104.664 7.24 104.664 7.52C105.024 7.08 105.364 6.72667 105.684 6.46C106.004 6.19333 106.317 6 106.624 5.88C106.944 5.74667 107.264 5.68 107.584 5.68C108.05 5.68 108.457 5.81333 108.804 6.08C109.15 6.33333 109.324 6.75333 109.324 7.34C109.324 7.54 109.277 7.75333 109.184 7.98C109.09 8.19333 108.944 8.37333 108.744 8.52C108.544 8.66667 108.27 8.74 107.924 8.74C107.657 8.74 107.384 8.66 107.104 8.5C106.824 8.34 106.664 8.03333 106.624 7.58C106.357 7.58 106.09 7.69333 105.824 7.92C105.557 8.13333 105.317 8.39333 105.104 8.7C104.904 8.99333 104.764 9.26667 104.684 9.52V12.78C104.684 12.9667 104.677 13.2333 104.664 13.58C104.65 13.9133 104.63 14.2333 104.604 14.54C104.817 14.5133 105.05 14.5 105.304 14.5C105.57 14.4867 105.77 14.48 105.904 14.48V16H100.664V14.7ZM115.735 16C115.709 15.8133 115.689 15.66 115.675 15.54C115.675 15.4067 115.669 15.2533 115.655 15.08C115.202 15.5333 114.722 15.8533 114.215 16.04C113.709 16.2267 113.195 16.32 112.675 16.32C111.822 16.32 111.155 16.0667 110.675 15.56C110.195 15.0533 109.955 14.42 109.955 13.66C109.955 13.02 110.115 12.4733 110.435 12.02C110.769 11.5667 111.202 11.2 111.735 10.92C112.282 10.6267 112.882 10.4067 113.535 10.26C114.202 10.1 114.869 10.0067 115.535 9.98V8.94C115.535 8.59333 115.489 8.28 115.395 8C115.315 7.72 115.169 7.5 114.955 7.34C114.755 7.18 114.469 7.10667 114.095 7.12C113.842 7.13333 113.595 7.18667 113.355 7.28C113.115 7.37333 112.909 7.50667 112.735 7.68C112.842 7.8 112.909 7.93333 112.935 8.08C112.962 8.21333 112.975 8.33333 112.975 8.44C112.975 8.70667 112.869 8.98667 112.655 9.28C112.442 9.56 112.102 9.69333 111.635 9.68C111.235 9.66667 110.929 9.52667 110.715 9.26C110.502 8.99333 110.395 8.68 110.395 8.32C110.395 7.78667 110.582 7.32667 110.955 6.94C111.342 6.54 111.855 6.23333 112.495 6.02C113.135 5.79333 113.842 5.68 114.615 5.68C115.789 5.68 116.695 5.98667 117.335 6.6C117.989 7.2 118.315 8.16667 118.315 9.5C118.315 9.95333 118.315 10.34 118.315 10.66C118.315 10.98 118.309 11.3 118.295 11.62C118.295 11.94 118.295 12.3267 118.295 12.78C118.295 12.9667 118.289 13.2333 118.275 13.58C118.262 13.9133 118.242 14.2333 118.215 14.54C118.442 14.5133 118.682 14.5 118.935 14.5C119.189 14.4867 119.382 14.48 119.515 14.48V16H115.735ZM115.515 11.4C115.142 11.44 114.789 11.5067 114.455 11.6C114.122 11.6933 113.829 11.82 113.575 11.98C113.335 12.14 113.142 12.3333 112.995 12.56C112.862 12.7867 112.795 13.04 112.795 13.32C112.809 13.6933 112.929 13.96 113.155 14.12C113.382 14.28 113.642 14.36 113.935 14.36C114.242 14.36 114.529 14.2933 114.795 14.16C115.062 14.0267 115.302 13.8533 115.515 13.64C115.515 13.5067 115.515 13.38 115.515 13.26C115.515 13.1267 115.515 12.9933 115.515 12.86C115.515 12.62 115.515 12.38 115.515 12.14C115.515 11.8867 115.515 11.64 115.515 11.4Z" fill="#0F172A"/>
<path d="M9.792 40.24C9.248 38.912 8.704 37.592 8.16 36.28C7.632 34.968 7.096 33.656 6.552 32.344C6.424 32.04 6.256 31.616 6.048 31.072C5.856 30.512 5.648 29.872 5.424 29.152C5.216 28.432 5.024 27.688 4.848 26.92C4.88 27.816 4.904 28.664 4.92 29.464C4.936 30.248 4.936 31 4.92 31.72C4.92 32.072 4.92 32.432 4.92 32.8C4.92 33.168 4.912 33.536 4.896 33.904C4.896 34.256 4.896 34.616 4.896 34.984C4.896 35.336 4.896 35.696 4.896 36.064C4.896 36.496 4.88 36.912 4.848 37.312C4.832 37.712 4.808 38.016 4.776 38.224C5.048 38.192 5.376 38.176 5.76 38.176C6.16 38.16 6.44 38.152 6.6 38.152V40H1.128V38.416C1.496 38.4 1.8 38.352 2.04 38.272C2.296 38.192 2.488 38.008 2.616 37.72C2.76 37.432 2.832 36.968 2.832 36.328L2.976 27.136C2.992 26.704 3.008 26.288 3.024 25.888C3.04 25.488 3.056 25.184 3.072 24.976C2.816 24.992 2.496 25.008 2.112 25.024C1.728 25.024 1.448 25.032 1.272 25.048V23.2H6.576L10.2 32.488C10.344 32.856 10.504 33.288 10.68 33.784C10.856 34.264 11.024 34.736 11.184 35.2C11.344 35.648 11.464 36.008 11.544 36.28H11.568C11.776 35.72 11.968 35.176 12.144 34.648C12.32 34.12 12.504 33.608 12.696 33.112C13.32 31.448 13.936 29.792 14.544 28.144C15.168 26.496 15.792 24.848 16.416 23.2H21.96V24.784C21.608 24.8 21.296 24.848 21.024 24.928C20.752 25.008 20.544 25.192 20.4 25.48C20.272 25.752 20.216 26.216 20.232 26.872L20.592 36.064C20.624 36.496 20.624 36.912 20.592 37.312C20.56 37.712 20.528 38.016 20.496 38.224C20.768 38.192 21.096 38.176 21.48 38.176C21.88 38.16 22.16 38.152 22.32 38.152V40H15.648V38.416C16.016 38.4 16.328 38.352 16.584 38.272C16.856 38.192 17.056 38.008 17.184 37.72C17.328 37.432 17.384 36.968 17.352 36.328L17.16 31.24C17.16 31.048 17.144 30.72 17.112 30.256C17.08 29.776 17.048 29.256 17.016 28.696C17 28.12 16.984 27.584 16.968 27.088C16.92 27.2 16.872 27.312 16.824 27.424C16.776 27.52 16.736 27.624 16.704 27.736L12.024 40.24H9.792ZM30.6888 40C30.6568 39.776 30.6328 39.592 30.6168 39.448C30.6168 39.288 30.6088 39.104 30.5928 38.896C30.0488 39.44 29.4728 39.824 28.8648 40.048C28.2568 40.272 27.6408 40.384 27.0168 40.384C25.9928 40.384 25.1928 40.08 24.6168 39.472C24.0408 38.864 23.7528 38.104 23.7528 37.192C23.7528 36.424 23.9448 35.768 24.3288 35.224C24.7288 34.68 25.2488 34.24 25.8888 33.904C26.5448 33.552 27.2648 33.288 28.0488 33.112C28.8488 32.92 29.6488 32.808 30.4488 32.776V31.528C30.4488 31.112 30.3928 30.736 30.2808 30.4C30.1848 30.064 30.0088 29.8 29.7528 29.608C29.5128 29.416 29.1688 29.328 28.7208 29.344C28.4168 29.36 28.1208 29.424 27.8328 29.536C27.5448 29.648 27.2968 29.808 27.0888 30.016C27.2168 30.16 27.2968 30.32 27.3288 30.496C27.3608 30.656 27.3768 30.8 27.3768 30.928C27.3768 31.248 27.2488 31.584 26.9928 31.936C26.7368 32.272 26.3288 32.432 25.7688 32.416C25.2888 32.4 24.9208 32.232 24.6648 31.912C24.4088 31.592 24.2808 31.216 24.2808 30.784C24.2808 30.144 24.5048 29.592 24.9528 29.128C25.4168 28.648 26.0328 28.28 26.8008 28.024C27.5688 27.752 28.4168 27.616 29.3448 27.616C30.7528 27.616 31.8408 27.984 32.6088 28.72C33.3928 29.44 33.7848 30.6 33.7848 32.2C33.7848 32.744 33.7848 33.208 33.7848 33.592C33.7848 33.976 33.7768 34.36 33.7608 34.744C33.7608 35.128 33.7608 35.592 33.7608 36.136C33.7608 36.36 33.7528 36.68 33.7368 37.096C33.7208 37.496 33.6968 37.88 33.6648 38.248C33.9368 38.216 34.2248 38.2 34.5288 38.2C34.8328 38.184 35.0648 38.176 35.2248 38.176V40H30.6888ZM30.4248 34.48C29.9768 34.528 29.5528 34.608 29.1528 34.72C28.7528 34.832 28.4008 34.984 28.0968 35.176C27.8088 35.368 27.5768 35.6 27.4008 35.872C27.2408 36.144 27.1608 36.448 27.1608 36.784C27.1768 37.232 27.3208 37.552 27.5928 37.744C27.8648 37.936 28.1768 38.032 28.5288 38.032C28.8968 38.032 29.2408 37.952 29.5608 37.792C29.8808 37.632 30.1688 37.424 30.4248 37.168C30.4248 37.008 30.4248 36.856 30.4248 36.712C30.4248 36.552 30.4248 36.392 30.4248 36.232C30.4248 35.944 30.4248 35.656 30.4248 35.368C30.4248 35.064 30.4248 34.768 30.4248 34.48ZM42.1907 40.384C41.0227 40.384 39.9907 40.128 39.0947 39.616C38.1987 39.088 37.5027 38.352 37.0067 37.408C36.5107 36.448 36.2627 35.32 36.2627 34.024C36.2627 32.904 36.5107 31.856 37.0067 30.88C37.5027 29.904 38.1987 29.12 39.0947 28.528C40.0067 27.92 41.0627 27.616 42.2627 27.616C42.9347 27.616 43.5907 27.712 44.2307 27.904C44.8707 28.08 45.4467 28.392 45.9588 28.84C46.4867 29.288 46.9027 29.896 47.2067 30.664C47.5267 31.432 47.6788 32.392 47.6628 33.544L39.7907 33.688C39.7907 34.552 39.8947 35.328 40.1027 36.016C40.3267 36.704 40.6867 37.248 41.1827 37.648C41.6787 38.048 42.3427 38.248 43.1747 38.248C43.4947 38.248 43.8547 38.192 44.2547 38.08C44.6707 37.968 45.0867 37.784 45.5027 37.528C45.9347 37.256 46.3347 36.896 46.7027 36.448L47.7828 37.456C47.2067 38.272 46.5907 38.896 45.9347 39.328C45.2787 39.744 44.6227 40.024 43.9667 40.168C43.3267 40.312 42.7347 40.384 42.1907 40.384ZM39.9347 32.008H44.3507C44.3347 31.336 44.2387 30.808 44.0627 30.424C43.9027 30.024 43.6787 29.736 43.3907 29.56C43.1027 29.384 42.7667 29.296 42.3827 29.296C41.6787 29.296 41.1267 29.552 40.7267 30.064C40.3267 30.56 40.0627 31.208 39.9347 32.008ZM54.8368 40.384C54.1488 40.384 53.4768 40.296 52.8208 40.12C52.1648 39.944 51.6528 39.72 51.2848 39.448L51.3328 40.168H49.5088L49.4128 36.04H50.9728C51.0208 36.52 51.2128 36.96 51.5488 37.36C51.8848 37.76 52.3248 38.08 52.8688 38.32C53.4128 38.544 54.0208 38.656 54.6928 38.656C54.9648 38.656 55.2208 38.616 55.4608 38.536C55.7168 38.456 55.9248 38.328 56.0848 38.152C56.2608 37.96 56.3488 37.728 56.3488 37.456C56.3488 37.152 56.2368 36.904 56.0128 36.712C55.8048 36.52 55.4928 36.336 55.0768 36.16C54.6768 35.984 54.1728 35.784 53.5648 35.56C53.0688 35.368 52.5648 35.168 52.0528 34.96C51.5568 34.752 51.0928 34.504 50.6608 34.216C50.2448 33.912 49.9088 33.544 49.6528 33.112C49.3968 32.664 49.2688 32.12 49.2688 31.48C49.2688 31.016 49.3568 30.56 49.5328 30.112C49.7088 29.648 49.9808 29.232 50.3488 28.864C50.7168 28.48 51.1808 28.176 51.7408 27.952C52.3168 27.728 52.9968 27.616 53.7808 27.616C54.2128 27.616 54.7008 27.688 55.2448 27.832C55.8048 27.96 56.2768 28.16 56.6608 28.432V27.736H58.4848V31.984H56.9248C56.8288 31.424 56.6288 30.944 56.3248 30.544C56.0368 30.144 55.6608 29.84 55.1968 29.632C54.7328 29.408 54.2128 29.296 53.6368 29.296C53.2368 29.296 52.8688 29.392 52.5328 29.584C52.2128 29.776 52.0528 30.104 52.0528 30.568C52.0528 30.936 52.1808 31.232 52.4368 31.456C52.6928 31.664 53.0448 31.84 53.4928 31.984C53.9408 32.128 54.4368 32.296 54.9808 32.488C55.7968 32.76 56.5168 33.08 57.1408 33.448C57.7808 33.816 58.2848 34.264 58.6528 34.792C59.0208 35.304 59.2048 35.936 59.2048 36.688C59.2048 37.52 58.9968 38.208 58.5808 38.752C58.1648 39.296 57.6208 39.704 56.9488 39.976C56.2928 40.248 55.5888 40.384 54.8368 40.384ZM65.6172 40.384C65.1372 40.384 64.6732 40.328 64.2252 40.216C63.7932 40.104 63.3932 39.896 63.0252 39.592C62.6732 39.272 62.3932 38.808 62.1852 38.2C61.9772 37.592 61.8732 36.784 61.8732 35.776L61.9212 29.992H60.2892V28C60.7852 27.984 61.2652 27.816 61.7292 27.496C62.1932 27.176 62.5852 26.76 62.9052 26.248C63.2412 25.736 63.4652 25.2 63.5772 24.64H65.3532L65.3292 28H68.3772V29.848L65.3292 29.92L65.3052 35.824C65.3052 36.192 65.3372 36.56 65.4012 36.928C65.4812 37.28 65.6252 37.576 65.8332 37.816C66.0412 38.04 66.3452 38.152 66.7452 38.152C66.9692 38.152 67.2732 38.072 67.6572 37.912C68.0572 37.752 68.4812 37.352 68.9292 36.712L70.0812 37.792C69.6492 38.432 69.2012 38.928 68.7372 39.28C68.2732 39.632 67.8252 39.888 67.3932 40.048C66.9772 40.208 66.6092 40.304 66.2892 40.336C65.9692 40.368 65.7452 40.384 65.6172 40.384ZM70.6793 38.44C71.1273 38.44 71.4473 38.352 71.6393 38.176C71.8313 38 71.9513 37.752 71.9993 37.432C72.0633 37.096 72.0953 36.72 72.0953 36.304V32.272C72.0953 31.984 72.1033 31.664 72.1193 31.312C72.1353 30.944 72.1593 30.584 72.1913 30.232C71.9353 30.248 71.6313 30.264 71.2793 30.28C70.9433 30.28 70.6873 30.288 70.5113 30.304V28.48H71.4713C72.0953 28.48 72.6633 28.4 73.1753 28.24C73.7033 28.08 74.0473 27.92 74.2073 27.76H75.3833C75.4153 27.92 75.4393 28.224 75.4553 28.672C75.4713 29.104 75.4793 29.488 75.4793 29.824C75.9113 29.296 76.3193 28.872 76.7033 28.552C77.0873 28.232 77.4633 28 77.8313 27.856C78.2153 27.696 78.5993 27.616 78.9833 27.616C79.5433 27.616 80.0313 27.776 80.4473 28.096C80.8633 28.4 81.0713 28.904 81.0713 29.608C81.0713 29.848 81.0153 30.104 80.9033 30.376C80.7913 30.632 80.6153 30.848 80.3753 31.024C80.1353 31.2 79.8073 31.288 79.3913 31.288C79.0713 31.288 78.7433 31.192 78.4073 31C78.0713 30.808 77.8793 30.44 77.8313 29.896C77.5113 29.896 77.1913 30.032 76.8713 30.304C76.5513 30.56 76.2633 30.872 76.0073 31.24C75.7673 31.592 75.5993 31.92 75.5033 32.224V36.136C75.5033 36.36 75.4953 36.68 75.4793 37.096C75.4633 37.496 75.4393 37.88 75.4073 38.248C75.6633 38.216 75.9433 38.2 76.2473 38.2C76.5673 38.184 76.8073 38.176 76.9673 38.176V40H70.6793V38.44ZM87.8031 40.384C86.6511 40.384 85.6111 40.136 84.6831 39.64C83.7551 39.144 83.0191 38.44 82.4751 37.528C81.9471 36.6 81.6831 35.512 81.6831 34.264C81.6831 32.936 81.9551 31.776 82.4991 30.784C83.0591 29.776 83.7951 29 84.7071 28.456C85.6351 27.896 86.6431 27.616 87.7311 27.616C88.8831 27.616 89.9151 27.864 90.8271 28.36C91.7391 28.856 92.4591 29.568 92.9871 30.496C93.5151 31.408 93.7791 32.504 93.7791 33.784C93.7791 35.128 93.5231 36.296 93.0111 37.288C92.4991 38.28 91.7951 39.048 90.8991 39.592C90.0031 40.12 88.9711 40.384 87.8031 40.384ZM87.8991 38.68C88.5391 38.664 89.0191 38.44 89.3391 38.008C89.6751 37.576 89.9071 37.032 90.0351 36.376C90.1631 35.72 90.2271 35.056 90.2271 34.384C90.2271 33.792 90.1791 33.192 90.0831 32.584C90.0031 31.976 89.8671 31.424 89.6751 30.928C89.4831 30.432 89.2191 30.032 88.8831 29.728C88.5631 29.424 88.1631 29.28 87.6831 29.296C87.0591 29.312 86.5631 29.536 86.1951 29.968C85.8431 30.4 85.5871 30.944 85.4271 31.6C85.2831 32.24 85.2111 32.912 85.2111 33.616C85.2111 34.432 85.2991 35.232 85.4751 36.016C85.6511 36.8 85.9311 37.448 86.3151 37.96C86.7151 38.456 87.2431 38.696 87.8991 38.68ZM106.253 40.384C105.293 40.384 104.445 40.136 103.709 39.64C102.989 39.144 102.421 38.44 102.005 37.528C101.605 36.616 101.405 35.544 101.405 34.312C101.405 33.016 101.653 31.864 102.149 30.856C102.645 29.848 103.341 29.056 104.237 28.48C105.133 27.904 106.173 27.616 107.357 27.616C107.789 27.616 108.173 27.664 108.509 27.76C108.861 27.84 109.189 27.936 109.493 28.048V26.464C109.493 26.24 109.501 25.92 109.517 25.504C109.533 25.088 109.557 24.704 109.589 24.352C109.333 24.368 109.029 24.384 108.677 24.4C108.325 24.416 108.061 24.424 107.885 24.424V22.6C108.637 22.6 109.261 22.56 109.757 22.48C110.269 22.4 110.669 22.304 110.957 22.192C111.261 22.08 111.469 21.976 111.581 21.88H112.877V36.136C112.877 36.36 112.869 36.68 112.853 37.096C112.837 37.496 112.813 37.88 112.781 38.248C113.053 38.216 113.341 38.2 113.645 38.2C113.949 38.184 114.181 38.176 114.341 38.176V40H109.781C109.765 39.824 109.741 39.64 109.709 39.448C109.693 39.256 109.669 39.072 109.637 38.896C109.109 39.44 108.565 39.824 108.005 40.048C107.445 40.272 106.861 40.384 106.253 40.384ZM107.501 38.2C107.917 38.2 108.301 38.096 108.653 37.888C109.005 37.664 109.285 37.384 109.493 37.048C109.493 36.808 109.493 36.568 109.493 36.328C109.493 36.088 109.493 35.848 109.493 35.608V29.848C109.333 29.72 109.093 29.616 108.773 29.536C108.453 29.44 108.125 29.392 107.789 29.392C107.053 29.408 106.477 29.64 106.061 30.088C105.645 30.536 105.349 31.104 105.173 31.792C105.013 32.48 104.933 33.2 104.933 33.952C104.933 34.624 105.013 35.288 105.173 35.944C105.349 36.6 105.621 37.144 105.989 37.576C106.373 37.992 106.877 38.2 107.501 38.2ZM121.506 40.384C120.338 40.384 119.306 40.128 118.41 39.616C117.514 39.088 116.818 38.352 116.322 37.408C115.826 36.448 115.578 35.32 115.578 34.024C115.578 32.904 115.826 31.856 116.322 30.88C116.818 29.904 117.514 29.12 118.41 28.528C119.322 27.92 120.378 27.616 121.578 27.616C122.25 27.616 122.906 27.712 123.546 27.904C124.186 28.08 124.762 28.392 125.274 28.84C125.802 29.288 126.218 29.896 126.522 30.664C126.842 31.432 126.994 32.392 126.978 33.544L119.106 33.688C119.106 34.552 119.21 35.328 119.418 36.016C119.642 36.704 120.002 37.248 120.498 37.648C120.994 38.048 121.658 38.248 122.49 38.248C122.81 38.248 123.17 38.192 123.57 38.08C123.986 37.968 124.402 37.784 124.818 37.528C125.25 37.256 125.65 36.896 126.018 36.448L127.098 37.456C126.522 38.272 125.906 38.896 125.25 39.328C124.594 39.744 123.938 40.024 123.282 40.168C122.642 40.312 122.05 40.384 121.506 40.384ZM119.25 32.008H123.666C123.65 31.336 123.554 30.808 123.378 30.424C123.218 30.024 122.994 29.736 122.706 29.56C122.418 29.384 122.082 29.296 121.698 29.296C120.994 29.296 120.442 29.552 120.042 30.064C119.642 30.56 119.378 31.208 119.25 32.008ZM140.501 40.384C139.429 40.384 138.445 40.144 137.549 39.664C136.653 39.184 135.933 38.488 135.389 37.576C134.861 36.664 134.597 35.56 134.597 34.264C134.597 33.352 134.749 32.496 135.053 31.696C135.357 30.896 135.781 30.192 136.325 29.584C136.885 28.976 137.541 28.496 138.293 28.144C139.061 27.792 139.909 27.616 140.837 27.616C141.861 27.616 142.709 27.776 143.381 28.096C144.069 28.4 144.581 28.808 144.917 29.32C145.269 29.816 145.445 30.344 145.445 30.904C145.445 31.368 145.301 31.784 145.013 32.152C144.741 32.504 144.349 32.688 143.837 32.704C143.229 32.72 142.805 32.552 142.565 32.2C142.325 31.832 142.205 31.48 142.205 31.144C142.205 31 142.229 30.832 142.277 30.64C142.325 30.432 142.397 30.248 142.493 30.088C142.381 29.848 142.213 29.672 141.989 29.56C141.765 29.448 141.533 29.376 141.293 29.344C141.069 29.296 140.885 29.28 140.741 29.296C139.973 29.344 139.341 29.728 138.845 30.448C138.349 31.168 138.101 32.208 138.101 33.568C138.101 34.368 138.197 35.12 138.389 35.824C138.597 36.512 138.933 37.08 139.397 37.528C139.861 37.976 140.485 38.216 141.269 38.248C141.941 38.264 142.597 38.104 143.237 37.768C143.877 37.432 144.421 36.976 144.869 36.4L145.973 37.48C145.397 38.28 144.797 38.888 144.173 39.304C143.549 39.72 142.925 40 142.301 40.144C141.693 40.304 141.093 40.384 140.501 40.384ZM152.847 40.384C151.679 40.384 150.647 40.128 149.751 39.616C148.855 39.088 148.159 38.352 147.663 37.408C147.167 36.448 146.919 35.32 146.919 34.024C146.919 32.904 147.167 31.856 147.663 30.88C148.159 29.904 148.855 29.12 149.751 28.528C150.663 27.92 151.719 27.616 152.919 27.616C153.591 27.616 154.247 27.712 154.887 27.904C155.527 28.08 156.103 28.392 156.615 28.84C157.143 29.288 157.559 29.896 157.863 30.664C158.183 31.432 158.335 32.392 158.319 33.544L150.447 33.688C150.447 34.552 150.551 35.328 150.759 36.016C150.983 36.704 151.343 37.248 151.839 37.648C152.335 38.048 152.999 38.248 153.831 38.248C154.151 38.248 154.511 38.192 154.911 38.08C155.327 37.968 155.743 37.784 156.159 37.528C156.591 37.256 156.991 36.896 157.359 36.448L158.439 37.456C157.863 38.272 157.247 38.896 156.591 39.328C155.935 39.744 155.279 40.024 154.623 40.168C153.983 40.312 153.391 40.384 152.847 40.384ZM150.591 32.008H155.007C154.991 31.336 154.895 30.808 154.719 30.424C154.559 30.024 154.335 29.736 154.047 29.56C153.759 29.384 153.423 29.296 153.039 29.296C152.335 29.296 151.783 29.552 151.383 30.064C150.983 30.56 150.719 31.208 150.591 32.008ZM159.973 38.44C160.421 38.44 160.741 38.352 160.933 38.176C161.125 38 161.245 37.752 161.293 37.432C161.357 37.096 161.389 36.72 161.389 36.304V32.272C161.389 31.984 161.397 31.664 161.413 31.312C161.429 30.944 161.453 30.584 161.485 30.232C161.229 30.248 160.925 30.264 160.573 30.28C160.237 30.28 159.981 30.288 159.805 30.304V28.48H160.765C161.389 28.48 161.957 28.4 162.469 28.24C162.997 28.08 163.341 27.92 163.501 27.76H164.677C164.709 27.92 164.733 28.224 164.749 28.672C164.765 29.104 164.773 29.488 164.773 29.824C165.205 29.296 165.613 28.872 165.997 28.552C166.381 28.232 166.757 28 167.125 27.856C167.509 27.696 167.893 27.616 168.277 27.616C168.837 27.616 169.325 27.776 169.741 28.096C170.157 28.4 170.365 28.904 170.365 29.608C170.365 29.848 170.309 30.104 170.197 30.376C170.085 30.632 169.909 30.848 169.669 31.024C169.429 31.2 169.101 31.288 168.685 31.288C168.365 31.288 168.037 31.192 167.701 31C167.365 30.808 167.173 30.44 167.125 29.896C166.805 29.896 166.485 30.032 166.165 30.304C165.845 30.56 165.557 30.872 165.301 31.24C165.061 31.592 164.893 31.92 164.797 32.224V36.136C164.797 36.36 164.789 36.68 164.773 37.096C164.757 37.496 164.733 37.88 164.701 38.248C164.957 38.216 165.237 38.2 165.541 38.2C165.861 38.184 166.101 38.176 166.261 38.176V40H159.973V38.44ZM176.905 40.384C175.737 40.384 174.705 40.128 173.809 39.616C172.913 39.088 172.217 38.352 171.721 37.408C171.225 36.448 170.977 35.32 170.977 34.024C170.977 32.904 171.225 31.856 171.721 30.88C172.217 29.904 172.913 29.12 173.809 28.528C174.721 27.92 175.777 27.616 176.977 27.616C177.649 27.616 178.305 27.712 178.945 27.904C179.585 28.08 180.161 28.392 180.673 28.84C181.201 29.288 181.617 29.896 181.921 30.664C182.241 31.432 182.393 32.392 182.377 33.544L174.505 33.688C174.505 34.552 174.609 35.328 174.817 36.016C175.041 36.704 175.401 37.248 175.897 37.648C176.393 38.048 177.057 38.248 177.889 38.248C178.209 38.248 178.569 38.192 178.969 38.08C179.385 37.968 179.801 37.784 180.217 37.528C180.649 37.256 181.049 36.896 181.417 36.448L182.497 37.456C181.921 38.272 181.305 38.896 180.649 39.328C179.993 39.744 179.337 40.024 178.681 40.168C178.041 40.312 177.449 40.384 176.905 40.384ZM174.649 32.008H179.065C179.049 31.336 178.953 30.808 178.777 30.424C178.617 30.024 178.393 29.736 178.105 29.56C177.817 29.384 177.481 29.296 177.097 29.296C176.393 29.296 175.841 29.552 175.441 30.064C175.041 30.56 174.777 31.208 174.649 32.008ZM184.031 40V38.44C184.479 38.44 184.799 38.352 184.991 38.176C185.183 38 185.303 37.752 185.351 37.432C185.415 37.096 185.447 36.72 185.447 36.304V32.272C185.447 31.984 185.455 31.664 185.471 31.312C185.487 30.944 185.511 30.584 185.543 30.232C185.287 30.248 184.983 30.264 184.631 30.28C184.295 30.28 184.039 30.288 183.863 30.304V28.48C184.599 28.48 185.223 28.44 185.735 28.36C186.247 28.28 186.647 28.184 186.935 28.072C187.239 27.96 187.447 27.856 187.559 27.76H188.735C188.767 27.92 188.783 28.12 188.783 28.36C188.799 28.6 188.815 28.8 188.831 28.96C189.375 28.544 189.959 28.216 190.583 27.976C191.223 27.736 191.823 27.616 192.383 27.616C193.119 27.616 193.727 27.752 194.207 28.024C194.687 28.28 195.071 28.672 195.359 29.2C195.935 28.72 196.567 28.336 197.255 28.048C197.959 27.76 198.631 27.616 199.271 27.616C200.567 27.616 201.543 27.992 202.199 28.744C202.871 29.48 203.207 30.768 203.207 32.608V36.136C203.207 36.36 203.199 36.68 203.183 37.096C203.167 37.496 203.143 37.88 203.111 38.248C203.367 38.216 203.647 38.2 203.951 38.2C204.271 38.184 204.511 38.176 204.671 38.176V40H198.599V38.44C198.967 38.44 199.231 38.352 199.391 38.176C199.567 38 199.679 37.752 199.727 37.432C199.775 37.096 199.799 36.72 199.799 36.304V32.632C199.783 31.592 199.607 30.872 199.271 30.472C198.951 30.072 198.519 29.864 197.975 29.848C197.559 29.832 197.167 29.904 196.799 30.064C196.447 30.224 196.127 30.416 195.839 30.64C195.919 30.96 195.975 31.312 196.007 31.696C196.039 32.08 196.055 32.488 196.055 32.92C196.055 33.464 196.055 34 196.055 34.528C196.055 35.056 196.055 35.592 196.055 36.136C196.055 36.36 196.047 36.68 196.031 37.096C196.015 37.496 195.991 37.88 195.959 38.248C196.215 38.216 196.495 38.2 196.799 38.2C197.103 38.184 197.343 38.176 197.519 38.176V40H191.327V38.44C191.743 38.44 192.039 38.352 192.215 38.176C192.407 38 192.527 37.752 192.575 37.432C192.623 37.096 192.647 36.72 192.647 36.304L192.623 32.56C192.623 31.52 192.471 30.808 192.167 30.424C191.863 30.04 191.439 29.84 190.895 29.824C190.495 29.824 190.119 29.912 189.767 30.088C189.431 30.264 189.127 30.472 188.855 30.712C188.855 30.92 188.855 31.12 188.855 31.312C188.855 31.504 188.855 31.704 188.855 31.912V36.136C188.855 36.36 188.847 36.68 188.831 37.096C188.815 37.496 188.791 37.88 188.759 38.248C189.015 38.216 189.279 38.2 189.551 38.2C189.823 38.184 190.039 38.176 190.199 38.176V40H184.031ZM211.889 40.384C210.737 40.384 209.697 40.136 208.769 39.64C207.841 39.144 207.105 38.44 206.561 37.528C206.033 36.6 205.769 35.512 205.769 34.264C205.769 32.936 206.041 31.776 206.585 30.784C207.145 29.776 207.881 29 208.793 28.456C209.721 27.896 210.729 27.616 211.817 27.616C212.969 27.616 214.001 27.864 214.913 28.36C215.825 28.856 216.545 29.568 217.073 30.496C217.601 31.408 217.865 32.504 217.865 33.784C217.865 35.128 217.609 36.296 217.097 37.288C216.585 38.28 215.881 39.048 214.985 39.592C214.089 40.12 213.057 40.384 211.889 40.384ZM211.985 38.68C212.625 38.664 213.105 38.44 213.425 38.008C213.761 37.576 213.993 37.032 214.121 36.376C214.249 35.72 214.313 35.056 214.313 34.384C214.313 33.792 214.265 33.192 214.169 32.584C214.089 31.976 213.953 31.424 213.761 30.928C213.569 30.432 213.305 30.032 212.969 29.728C212.649 29.424 212.249 29.28 211.769 29.296C211.145 29.312 210.649 29.536 210.281 29.968C209.929 30.4 209.673 30.944 209.513 31.6C209.369 32.24 209.297 32.912 209.297 33.616C209.297 34.432 209.385 35.232 209.561 36.016C209.737 36.8 210.017 37.448 210.401 37.96C210.801 38.456 211.329 38.696 211.985 38.68ZM219.503 40V38.44C219.951 38.44 220.271 38.352 220.463 38.176C220.655 38 220.775 37.752 220.823 37.432C220.887 37.096 220.919 36.72 220.919 36.304V32.272C220.919 31.984 220.927 31.664 220.943 31.312C220.959 30.944 220.983 30.584 221.015 30.232C220.759 30.248 220.455 30.264 220.103 30.28C219.767 30.28 219.511 30.288 219.335 30.304V28.48C220.071 28.48 220.695 28.44 221.207 28.36C221.719 28.28 222.119 28.184 222.407 28.072C222.711 27.96 222.919 27.856 223.031 27.76H224.207C224.239 27.968 224.255 28.12 224.255 28.216C224.255 28.312 224.255 28.408 224.255 28.504C224.271 28.584 224.303 28.736 224.351 28.96C224.671 28.704 225.039 28.48 225.455 28.288C225.871 28.08 226.287 27.92 226.703 27.808C227.119 27.68 227.487 27.616 227.807 27.616C229.279 27.616 230.319 28.04 230.927 28.888C231.551 29.72 231.863 31.064 231.863 32.92V36.136C231.863 36.36 231.855 36.68 231.839 37.096C231.823 37.496 231.799 37.88 231.767 38.248C232.039 38.216 232.327 38.2 232.631 38.2C232.935 38.184 233.167 38.176 233.327 38.176V40H227.039V38.44C227.487 38.44 227.807 38.352 227.999 38.176C228.207 38 228.335 37.752 228.383 37.432C228.447 37.096 228.479 36.72 228.479 36.304L228.455 32.896C228.455 31.856 228.303 31.088 227.999 30.592C227.711 30.08 227.215 29.824 226.511 29.824C226.111 29.824 225.711 29.912 225.311 30.088C224.927 30.264 224.599 30.472 224.327 30.712C224.327 30.936 224.327 31.168 224.327 31.408C224.327 31.632 224.327 31.856 224.327 32.08V36.136C224.327 36.36 224.319 36.68 224.303 37.096C224.287 37.496 224.263 37.88 224.231 38.248C224.487 38.216 224.767 38.2 225.071 38.2C225.391 38.184 225.631 38.176 225.791 38.176V40H219.503ZM234.661 38.44C235.109 38.44 235.429 38.352 235.621 38.176C235.813 38 235.933 37.752 235.981 37.432C236.045 37.096 236.077 36.72 236.077 36.304V32.32C236.077 32.032 236.085 31.704 236.101 31.336C236.117 30.952 236.141 30.584 236.173 30.232C235.917 30.248 235.613 30.264 235.261 30.28C234.925 30.28 234.669 30.288 234.493 30.304V28.48C235.229 28.48 235.853 28.44 236.365 28.36C236.877 28.28 237.277 28.184 237.565 28.072C237.869 27.96 238.077 27.856 238.189 27.76H239.485V36.136C239.485 36.36 239.477 36.68 239.461 37.096C239.445 37.496 239.421 37.88 239.389 38.248C239.645 38.216 239.925 38.2 240.229 38.2C240.549 38.184 240.789 38.176 240.949 38.176V40H234.661V38.44ZM237.661 25.864C237.117 25.864 236.669 25.672 236.317 25.288C235.965 24.904 235.789 24.44 235.789 23.896C235.789 23.352 235.973 22.888 236.341 22.504C236.709 22.12 237.141 21.928 237.637 21.928C238.149 21.928 238.573 22.12 238.909 22.504C239.261 22.888 239.437 23.352 239.437 23.896C239.437 24.44 239.277 24.904 238.957 25.288C238.637 25.672 238.205 25.864 237.661 25.864ZM249.084 40C249.052 39.776 249.028 39.592 249.012 39.448C249.012 39.288 249.004 39.104 248.988 38.896C248.444 39.44 247.868 39.824 247.26 40.048C246.652 40.272 246.036 40.384 245.412 40.384C244.388 40.384 243.588 40.08 243.012 39.472C242.436 38.864 242.148 38.104 242.148 37.192C242.148 36.424 242.34 35.768 242.724 35.224C243.124 34.68 243.644 34.24 244.284 33.904C244.94 33.552 245.66 33.288 246.444 33.112C247.244 32.92 248.044 32.808 248.844 32.776V31.528C248.844 31.112 248.788 30.736 248.676 30.4C248.58 30.064 248.404 29.8 248.148 29.608C247.908 29.416 247.564 29.328 247.116 29.344C246.812 29.36 246.516 29.424 246.228 29.536C245.94 29.648 245.692 29.808 245.484 30.016C245.612 30.16 245.692 30.32 245.724 30.496C245.756 30.656 245.772 30.8 245.772 30.928C245.772 31.248 245.644 31.584 245.388 31.936C245.132 32.272 244.724 32.432 244.164 32.416C243.684 32.4 243.316 32.232 243.06 31.912C242.804 31.592 242.676 31.216 242.676 30.784C242.676 30.144 242.9 29.592 243.348 29.128C243.812 28.648 244.428 28.28 245.196 28.024C245.964 27.752 246.812 27.616 247.74 27.616C249.148 27.616 250.236 27.984 251.004 28.72C251.788 29.44 252.18 30.6 252.18 32.2C252.18 32.744 252.18 33.208 252.18 33.592C252.18 33.976 252.172 34.36 252.156 34.744C252.156 35.128 252.156 35.592 252.156 36.136C252.156 36.36 252.148 36.68 252.132 37.096C252.116 37.496 252.092 37.88 252.06 38.248C252.332 38.216 252.62 38.2 252.924 38.2C253.228 38.184 253.46 38.176 253.62 38.176V40H249.084ZM248.82 34.48C248.372 34.528 247.948 34.608 247.548 34.72C247.148 34.832 246.796 34.984 246.492 35.176C246.204 35.368 245.972 35.6 245.796 35.872C245.636 36.144 245.556 36.448 245.556 36.784C245.572 37.232 245.716 37.552 245.988 37.744C246.26 37.936 246.572 38.032 246.924 38.032C247.292 38.032 247.636 37.952 247.956 37.792C248.276 37.632 248.564 37.424 248.82 37.168C248.82 37.008 248.82 36.856 248.82 36.712C248.82 36.552 248.82 36.392 248.82 36.232C248.82 35.944 248.82 35.656 248.82 35.368C248.82 35.064 248.82 34.768 248.82 34.48ZM260.418 40.384C259.73 40.384 259.058 40.296 258.402 40.12C257.746 39.944 257.234 39.72 256.866 39.448L256.914 40.168H255.09L254.994 36.04H256.554C256.602 36.52 256.794 36.96 257.13 37.36C257.466 37.76 257.906 38.08 258.45 38.32C258.994 38.544 259.602 38.656 260.274 38.656C260.546 38.656 260.802 38.616 261.042 38.536C261.298 38.456 261.506 38.328 261.666 38.152C261.842 37.96 261.93 37.728 261.93 37.456C261.93 37.152 261.818 36.904 261.594 36.712C261.386 36.52 261.074 36.336 260.658 36.16C260.258 35.984 259.754 35.784 259.146 35.56C258.65 35.368 258.146 35.168 257.634 34.96C257.138 34.752 256.674 34.504 256.242 34.216C255.826 33.912 255.49 33.544 255.234 33.112C254.978 32.664 254.85 32.12 254.85 31.48C254.85 31.016 254.938 30.56 255.114 30.112C255.29 29.648 255.562 29.232 255.93 28.864C256.298 28.48 256.762 28.176 257.322 27.952C257.898 27.728 258.578 27.616 259.362 27.616C259.794 27.616 260.282 27.688 260.826 27.832C261.386 27.96 261.858 28.16 262.242 28.432V27.736H264.066V31.984H262.506C262.41 31.424 262.21 30.944 261.906 30.544C261.618 30.144 261.242 29.84 260.778 29.632C260.314 29.408 259.794 29.296 259.218 29.296C258.818 29.296 258.45 29.392 258.114 29.584C257.794 29.776 257.634 30.104 257.634 30.568C257.634 30.936 257.762 31.232 258.018 31.456C258.274 31.664 258.626 31.84 259.074 31.984C259.522 32.128 260.018 32.296 260.562 32.488C261.378 32.76 262.098 33.08 262.722 33.448C263.362 33.816 263.866 34.264 264.234 34.792C264.602 35.304 264.786 35.936 264.786 36.688C264.786 37.52 264.578 38.208 264.162 38.752C263.746 39.296 263.202 39.704 262.53 39.976C261.874 40.248 261.17 40.384 260.418 40.384Z" fill="#E11D48"/>
</svg>

